G75*
%MOIN*%
%OFA0B0*%
%FSLAX24Y24*%
%IPPOS*%
%LPD*%
%AMOC8*
5,1,8,0,0,1.08239X$1,22.5*
%
%ADD10C,0.0050*%
%ADD11C,0.0200*%
%ADD12C,0.0060*%
%ADD13C,0.0080*%
%ADD14C,0.0098*%
%ADD15C,0.0180*%
%ADD16C,0.0039*%
%ADD17C,0.0120*%
D10*
X008028Y004875D02*
X008030Y004937D01*
X008036Y005000D01*
X008046Y005061D01*
X008060Y005122D01*
X008077Y005182D01*
X008098Y005241D01*
X008124Y005298D01*
X008152Y005353D01*
X008184Y005407D01*
X008220Y005458D01*
X008258Y005508D01*
X008300Y005554D01*
X008344Y005598D01*
X008392Y005639D01*
X008441Y005677D01*
X008493Y005711D01*
X008547Y005742D01*
X008603Y005770D01*
X008661Y005794D01*
X008720Y005815D01*
X008780Y005831D01*
X008841Y005844D01*
X008903Y005853D01*
X008965Y005858D01*
X009028Y005859D01*
X009090Y005856D01*
X009152Y005849D01*
X009214Y005838D01*
X009274Y005823D01*
X009334Y005805D01*
X009392Y005783D01*
X009449Y005757D01*
X009504Y005727D01*
X009557Y005694D01*
X009608Y005658D01*
X009656Y005619D01*
X009702Y005576D01*
X009745Y005531D01*
X009785Y005483D01*
X009822Y005433D01*
X009856Y005380D01*
X009887Y005326D01*
X009913Y005270D01*
X009937Y005212D01*
X009956Y005152D01*
X009972Y005092D01*
X009984Y005030D01*
X009992Y004969D01*
X009996Y004906D01*
X009996Y004844D01*
X009992Y004781D01*
X009984Y004720D01*
X009972Y004658D01*
X009956Y004598D01*
X009937Y004538D01*
X009913Y004480D01*
X009887Y004424D01*
X009856Y004370D01*
X009822Y004317D01*
X009785Y004267D01*
X009745Y004219D01*
X009702Y004174D01*
X009656Y004131D01*
X009608Y004092D01*
X009557Y004056D01*
X009504Y004023D01*
X009449Y003993D01*
X009392Y003967D01*
X009334Y003945D01*
X009274Y003927D01*
X009214Y003912D01*
X009152Y003901D01*
X009090Y003894D01*
X009028Y003891D01*
X008965Y003892D01*
X008903Y003897D01*
X008841Y003906D01*
X008780Y003919D01*
X008720Y003935D01*
X008661Y003956D01*
X008603Y003980D01*
X008547Y004008D01*
X008493Y004039D01*
X008441Y004073D01*
X008392Y004111D01*
X008344Y004152D01*
X008300Y004196D01*
X008258Y004242D01*
X008220Y004292D01*
X008184Y004343D01*
X008152Y004397D01*
X008124Y004452D01*
X008098Y004509D01*
X008077Y004568D01*
X008060Y004628D01*
X008046Y004689D01*
X008036Y004750D01*
X008030Y004813D01*
X008028Y004875D01*
X008770Y012400D02*
X008860Y012400D01*
X008905Y012445D01*
X009019Y012445D02*
X009064Y012400D01*
X009154Y012400D01*
X009200Y012445D01*
X009200Y012490D01*
X009154Y012535D01*
X009064Y012535D01*
X009019Y012580D01*
X009019Y012625D01*
X009064Y012670D01*
X009154Y012670D01*
X009200Y012625D01*
X008905Y012625D02*
X008860Y012670D01*
X008770Y012670D01*
X008725Y012625D01*
X008725Y012445D01*
X008770Y012400D01*
X009600Y012445D02*
X009645Y012400D01*
X009735Y012400D01*
X009780Y012445D01*
X009780Y012535D01*
X009690Y012535D01*
X009780Y012625D02*
X009735Y012670D01*
X009645Y012670D01*
X009600Y012625D01*
X009600Y012445D01*
X009894Y012400D02*
X009894Y012670D01*
X010075Y012400D01*
X010075Y012670D01*
X010189Y012670D02*
X010324Y012670D01*
X010369Y012625D01*
X010369Y012445D01*
X010324Y012400D01*
X010189Y012400D01*
X010189Y012670D01*
X010600Y012625D02*
X010645Y012670D01*
X010735Y012670D01*
X010780Y012625D01*
X010780Y012580D01*
X010735Y012535D01*
X010780Y012490D01*
X010780Y012445D01*
X010735Y012400D01*
X010645Y012400D01*
X010600Y012445D01*
X010690Y012535D02*
X010735Y012535D01*
X010894Y012490D02*
X010984Y012400D01*
X011075Y012490D01*
X011075Y012670D01*
X011189Y012625D02*
X011234Y012670D01*
X011324Y012670D01*
X011369Y012625D01*
X011369Y012580D01*
X011324Y012535D01*
X011369Y012490D01*
X011369Y012445D01*
X011324Y012400D01*
X011234Y012400D01*
X011189Y012445D01*
X011279Y012535D02*
X011324Y012535D01*
X011662Y012490D02*
X011797Y012490D01*
X011842Y012535D01*
X011842Y012625D01*
X011797Y012670D01*
X011662Y012670D01*
X011662Y012400D01*
X011752Y012490D02*
X011842Y012400D01*
X011957Y012400D02*
X012137Y012400D01*
X011957Y012400D02*
X011957Y012670D01*
X012252Y012670D02*
X012252Y012625D01*
X012342Y012535D01*
X012342Y012400D01*
X012342Y012535D02*
X012432Y012625D01*
X012432Y012670D01*
X012600Y012670D02*
X012690Y012580D01*
X012780Y012670D01*
X012780Y012400D01*
X012894Y012445D02*
X012939Y012400D01*
X013029Y012400D01*
X013075Y012445D01*
X013075Y012625D01*
X013029Y012670D01*
X012939Y012670D01*
X012894Y012625D01*
X012894Y012445D01*
X012600Y012400D02*
X012600Y012670D01*
X013189Y012625D02*
X013189Y012580D01*
X013234Y012535D01*
X013324Y012535D01*
X013369Y012490D01*
X013369Y012445D01*
X013324Y012400D01*
X013234Y012400D01*
X013189Y012445D01*
X013189Y012625D02*
X013234Y012670D01*
X013324Y012670D01*
X013369Y012625D01*
X013662Y012670D02*
X013662Y012400D01*
X013842Y012400D02*
X013842Y012670D01*
X013752Y012580D01*
X013662Y012670D01*
X013957Y012670D02*
X014047Y012670D01*
X014002Y012670D02*
X014002Y012400D01*
X013957Y012400D02*
X014047Y012400D01*
X014153Y012445D02*
X014198Y012400D01*
X014288Y012400D01*
X014333Y012445D01*
X014333Y012490D01*
X014288Y012535D01*
X014198Y012535D01*
X014153Y012580D01*
X014153Y012625D01*
X014198Y012670D01*
X014288Y012670D01*
X014333Y012625D01*
X014600Y012625D02*
X014600Y012580D01*
X014645Y012535D01*
X014735Y012535D01*
X014780Y012490D01*
X014780Y012445D01*
X014735Y012400D01*
X014645Y012400D01*
X014600Y012445D01*
X014600Y012625D02*
X014645Y012670D01*
X014735Y012670D01*
X014780Y012625D01*
X014894Y012625D02*
X014894Y012445D01*
X014939Y012400D01*
X015029Y012400D01*
X015075Y012445D01*
X015189Y012400D02*
X015189Y012670D01*
X015075Y012625D02*
X015029Y012670D01*
X014939Y012670D01*
X014894Y012625D01*
X015189Y012490D02*
X015369Y012670D01*
X015234Y012535D02*
X015369Y012400D01*
X010894Y012490D02*
X010894Y012670D01*
D11*
X003162Y007875D02*
X003164Y007895D01*
X003170Y007913D01*
X003179Y007931D01*
X003191Y007946D01*
X003206Y007958D01*
X003224Y007967D01*
X003242Y007973D01*
X003262Y007975D01*
X003282Y007973D01*
X003300Y007967D01*
X003318Y007958D01*
X003333Y007946D01*
X003345Y007931D01*
X003354Y007913D01*
X003360Y007895D01*
X003362Y007875D01*
X003360Y007855D01*
X003354Y007837D01*
X003345Y007819D01*
X003333Y007804D01*
X003318Y007792D01*
X003300Y007783D01*
X003282Y007777D01*
X003262Y007775D01*
X003242Y007777D01*
X003224Y007783D01*
X003206Y007792D01*
X003191Y007804D01*
X003179Y007819D01*
X003170Y007837D01*
X003164Y007855D01*
X003162Y007875D01*
D12*
X002687Y002125D02*
X002689Y002204D01*
X002695Y002283D01*
X002705Y002362D01*
X002719Y002440D01*
X002736Y002517D01*
X002758Y002593D01*
X002783Y002668D01*
X002813Y002741D01*
X002845Y002813D01*
X002882Y002884D01*
X002922Y002952D01*
X002965Y003018D01*
X003011Y003082D01*
X003061Y003144D01*
X003114Y003203D01*
X003169Y003259D01*
X003228Y003313D01*
X003289Y003363D01*
X003352Y003411D01*
X003418Y003455D01*
X003486Y003496D01*
X003556Y003533D01*
X003627Y003567D01*
X003701Y003597D01*
X003775Y003623D01*
X003851Y003645D01*
X003928Y003664D01*
X004006Y003679D01*
X004084Y003690D01*
X004163Y003697D01*
X004242Y003700D01*
X004321Y003699D01*
X004400Y003694D01*
X004479Y003685D01*
X004557Y003672D01*
X004634Y003655D01*
X004711Y003635D01*
X004786Y003610D01*
X004860Y003582D01*
X004933Y003550D01*
X005003Y003515D01*
X005072Y003476D01*
X005139Y003433D01*
X005204Y003387D01*
X005266Y003339D01*
X005326Y003287D01*
X005383Y003232D01*
X005437Y003174D01*
X005488Y003114D01*
X005536Y003051D01*
X005581Y002986D01*
X005623Y002918D01*
X005661Y002849D01*
X005695Y002778D01*
X005726Y002705D01*
X005754Y002630D01*
X005777Y002555D01*
X005797Y002478D01*
X005813Y002401D01*
X005825Y002322D01*
X005833Y002244D01*
X005837Y002165D01*
X005837Y002085D01*
X005833Y002006D01*
X005825Y001928D01*
X005813Y001849D01*
X005797Y001772D01*
X005777Y001695D01*
X005754Y001620D01*
X005726Y001545D01*
X005695Y001472D01*
X005661Y001401D01*
X005623Y001332D01*
X005581Y001264D01*
X005536Y001199D01*
X005488Y001136D01*
X005437Y001076D01*
X005383Y001018D01*
X005326Y000963D01*
X005266Y000911D01*
X005204Y000863D01*
X005139Y000817D01*
X005072Y000774D01*
X005003Y000735D01*
X004933Y000700D01*
X004860Y000668D01*
X004786Y000640D01*
X004711Y000615D01*
X004634Y000595D01*
X004557Y000578D01*
X004479Y000565D01*
X004400Y000556D01*
X004321Y000551D01*
X004242Y000550D01*
X004163Y000553D01*
X004084Y000560D01*
X004006Y000571D01*
X003928Y000586D01*
X003851Y000605D01*
X003775Y000627D01*
X003701Y000653D01*
X003627Y000683D01*
X003556Y000717D01*
X003486Y000754D01*
X003418Y000795D01*
X003352Y000839D01*
X003289Y000887D01*
X003228Y000937D01*
X003169Y000991D01*
X003114Y001047D01*
X003061Y001106D01*
X003011Y001168D01*
X002965Y001232D01*
X002922Y001298D01*
X002882Y001366D01*
X002845Y001437D01*
X002813Y001509D01*
X002783Y001582D01*
X002758Y001657D01*
X002736Y001733D01*
X002719Y001810D01*
X002705Y001888D01*
X002695Y001967D01*
X002689Y002046D01*
X002687Y002125D01*
X005312Y001675D02*
X005612Y001675D01*
X005462Y001825D02*
X005462Y001525D01*
X006012Y000525D02*
X010012Y000525D01*
X010012Y003725D01*
X006012Y003725D01*
X006012Y000525D01*
X005462Y005025D02*
X005462Y005325D01*
X005612Y005175D02*
X005312Y005175D01*
X002687Y005625D02*
X002689Y005704D01*
X002695Y005783D01*
X002705Y005862D01*
X002719Y005940D01*
X002736Y006017D01*
X002758Y006093D01*
X002783Y006168D01*
X002813Y006241D01*
X002845Y006313D01*
X002882Y006384D01*
X002922Y006452D01*
X002965Y006518D01*
X003011Y006582D01*
X003061Y006644D01*
X003114Y006703D01*
X003169Y006759D01*
X003228Y006813D01*
X003289Y006863D01*
X003352Y006911D01*
X003418Y006955D01*
X003486Y006996D01*
X003556Y007033D01*
X003627Y007067D01*
X003701Y007097D01*
X003775Y007123D01*
X003851Y007145D01*
X003928Y007164D01*
X004006Y007179D01*
X004084Y007190D01*
X004163Y007197D01*
X004242Y007200D01*
X004321Y007199D01*
X004400Y007194D01*
X004479Y007185D01*
X004557Y007172D01*
X004634Y007155D01*
X004711Y007135D01*
X004786Y007110D01*
X004860Y007082D01*
X004933Y007050D01*
X005003Y007015D01*
X005072Y006976D01*
X005139Y006933D01*
X005204Y006887D01*
X005266Y006839D01*
X005326Y006787D01*
X005383Y006732D01*
X005437Y006674D01*
X005488Y006614D01*
X005536Y006551D01*
X005581Y006486D01*
X005623Y006418D01*
X005661Y006349D01*
X005695Y006278D01*
X005726Y006205D01*
X005754Y006130D01*
X005777Y006055D01*
X005797Y005978D01*
X005813Y005901D01*
X005825Y005822D01*
X005833Y005744D01*
X005837Y005665D01*
X005837Y005585D01*
X005833Y005506D01*
X005825Y005428D01*
X005813Y005349D01*
X005797Y005272D01*
X005777Y005195D01*
X005754Y005120D01*
X005726Y005045D01*
X005695Y004972D01*
X005661Y004901D01*
X005623Y004832D01*
X005581Y004764D01*
X005536Y004699D01*
X005488Y004636D01*
X005437Y004576D01*
X005383Y004518D01*
X005326Y004463D01*
X005266Y004411D01*
X005204Y004363D01*
X005139Y004317D01*
X005072Y004274D01*
X005003Y004235D01*
X004933Y004200D01*
X004860Y004168D01*
X004786Y004140D01*
X004711Y004115D01*
X004634Y004095D01*
X004557Y004078D01*
X004479Y004065D01*
X004400Y004056D01*
X004321Y004051D01*
X004242Y004050D01*
X004163Y004053D01*
X004084Y004060D01*
X004006Y004071D01*
X003928Y004086D01*
X003851Y004105D01*
X003775Y004127D01*
X003701Y004153D01*
X003627Y004183D01*
X003556Y004217D01*
X003486Y004254D01*
X003418Y004295D01*
X003352Y004339D01*
X003289Y004387D01*
X003228Y004437D01*
X003169Y004491D01*
X003114Y004547D01*
X003061Y004606D01*
X003011Y004668D01*
X002965Y004732D01*
X002922Y004798D01*
X002882Y004866D01*
X002845Y004937D01*
X002813Y005009D01*
X002783Y005082D01*
X002758Y005157D01*
X002736Y005233D01*
X002719Y005310D01*
X002705Y005388D01*
X002695Y005467D01*
X002689Y005546D01*
X002687Y005625D01*
X003645Y008384D02*
X003645Y009366D01*
X005505Y009366D02*
X005505Y008384D01*
X007963Y008757D02*
X007963Y008993D01*
X008436Y008993D02*
X008436Y008757D01*
X008711Y012750D02*
X009211Y012750D01*
X009461Y013000D01*
X009711Y012750D01*
X010211Y012750D01*
X010461Y013000D01*
X010711Y012750D01*
X011211Y012750D01*
X011461Y013000D01*
X011711Y012750D01*
X012211Y012750D01*
X012461Y013000D01*
X012711Y012750D01*
X013211Y012750D01*
X013461Y013000D01*
X013711Y012750D01*
X014211Y012750D01*
X014461Y013000D01*
X014711Y012750D01*
X015211Y012750D01*
X015461Y013000D01*
X015461Y013500D01*
X015211Y013750D01*
X014711Y013750D01*
X014461Y013500D01*
X014211Y013750D01*
X013711Y013750D01*
X013461Y013500D01*
X013211Y013750D01*
X012711Y013750D01*
X012461Y013500D01*
X012211Y013750D01*
X011711Y013750D01*
X011461Y013500D01*
X011211Y013750D01*
X010711Y013750D01*
X010461Y013500D01*
X010211Y013750D01*
X009711Y013750D01*
X009461Y013500D01*
X009211Y013750D01*
X008711Y013750D01*
X008461Y013500D01*
X008461Y013000D01*
X008711Y012750D01*
X006341Y012875D02*
X006343Y012937D01*
X006349Y013000D01*
X006359Y013061D01*
X006373Y013122D01*
X006390Y013182D01*
X006411Y013241D01*
X006437Y013298D01*
X006465Y013353D01*
X006497Y013407D01*
X006533Y013458D01*
X006571Y013508D01*
X006613Y013554D01*
X006657Y013598D01*
X006705Y013639D01*
X006754Y013677D01*
X006806Y013711D01*
X006860Y013742D01*
X006916Y013770D01*
X006974Y013794D01*
X007033Y013815D01*
X007093Y013831D01*
X007154Y013844D01*
X007216Y013853D01*
X007278Y013858D01*
X007341Y013859D01*
X007403Y013856D01*
X007465Y013849D01*
X007527Y013838D01*
X007587Y013823D01*
X007647Y013805D01*
X007705Y013783D01*
X007762Y013757D01*
X007817Y013727D01*
X007870Y013694D01*
X007921Y013658D01*
X007969Y013619D01*
X008015Y013576D01*
X008058Y013531D01*
X008098Y013483D01*
X008135Y013433D01*
X008169Y013380D01*
X008200Y013326D01*
X008226Y013270D01*
X008250Y013212D01*
X008269Y013152D01*
X008285Y013092D01*
X008297Y013030D01*
X008305Y012969D01*
X008309Y012906D01*
X008309Y012844D01*
X008305Y012781D01*
X008297Y012720D01*
X008285Y012658D01*
X008269Y012598D01*
X008250Y012538D01*
X008226Y012480D01*
X008200Y012424D01*
X008169Y012370D01*
X008135Y012317D01*
X008098Y012267D01*
X008058Y012219D01*
X008015Y012174D01*
X007969Y012131D01*
X007921Y012092D01*
X007870Y012056D01*
X007817Y012023D01*
X007762Y011993D01*
X007705Y011967D01*
X007647Y011945D01*
X007587Y011927D01*
X007527Y011912D01*
X007465Y011901D01*
X007403Y011894D01*
X007341Y011891D01*
X007278Y011892D01*
X007216Y011897D01*
X007154Y011906D01*
X007093Y011919D01*
X007033Y011935D01*
X006974Y011956D01*
X006916Y011980D01*
X006860Y012008D01*
X006806Y012039D01*
X006754Y012073D01*
X006705Y012111D01*
X006657Y012152D01*
X006613Y012196D01*
X006571Y012242D01*
X006533Y012292D01*
X006497Y012343D01*
X006465Y012397D01*
X006437Y012452D01*
X006411Y012509D01*
X006390Y012568D01*
X006373Y012628D01*
X006359Y012689D01*
X006349Y012750D01*
X006343Y012813D01*
X006341Y012875D01*
X006925Y013278D02*
X006925Y013478D01*
X006825Y013378D02*
X007025Y013378D01*
X016965Y010777D02*
X016965Y008723D01*
X021059Y008723D01*
X021059Y010777D01*
X016965Y010777D01*
X017012Y003725D02*
X021012Y003725D01*
X021012Y000525D01*
X017012Y000525D01*
X017012Y003725D01*
D13*
X008168Y006054D02*
X006357Y006054D01*
X006357Y006231D01*
X006869Y006231D02*
X006869Y007019D01*
X006357Y007019D02*
X006357Y007196D01*
X008168Y007196D01*
X008168Y007019D01*
X008168Y006231D02*
X008168Y006054D01*
X013033Y009619D02*
X013190Y009619D01*
X013190Y010131D01*
X013742Y010131D01*
X013190Y010131D02*
X013033Y010131D01*
X013598Y010589D02*
X013913Y010589D01*
X013913Y010825D01*
X013913Y011455D02*
X013913Y011691D01*
X013598Y011691D01*
X011572Y010794D02*
X011572Y010456D01*
X011118Y010944D02*
X010907Y010944D01*
X010452Y010794D02*
X010452Y010456D01*
X009918Y010481D02*
X009918Y010304D01*
X008107Y010304D01*
X008107Y010481D01*
X008619Y010481D02*
X008619Y011269D01*
X008107Y011269D02*
X008107Y011446D01*
X009918Y011446D01*
X009918Y011269D01*
X007083Y011656D02*
X007083Y009844D01*
X006906Y009844D01*
X006906Y010356D02*
X006119Y010356D01*
X006119Y009844D02*
X005941Y009844D01*
X005941Y011656D01*
X006119Y011656D01*
X006906Y011656D02*
X007083Y011656D01*
X013190Y009619D02*
X013742Y009619D01*
D14*
X016758Y009358D02*
X010262Y009358D01*
X010262Y000500D01*
X016758Y000500D01*
X016758Y009358D01*
D15*
X016915Y008295D02*
X016917Y008314D01*
X016923Y008332D01*
X016932Y008348D01*
X016945Y008362D01*
X016960Y008373D01*
X016977Y008381D01*
X016996Y008385D01*
X017014Y008385D01*
X017033Y008381D01*
X017050Y008373D01*
X017065Y008362D01*
X017078Y008348D01*
X017087Y008332D01*
X017093Y008314D01*
X017095Y008295D01*
X017093Y008276D01*
X017087Y008258D01*
X017078Y008242D01*
X017065Y008228D01*
X017050Y008217D01*
X017033Y008209D01*
X017014Y008205D01*
X016996Y008205D01*
X016977Y008209D01*
X016960Y008217D01*
X016945Y008228D01*
X016932Y008242D01*
X016923Y008258D01*
X016917Y008276D01*
X016915Y008295D01*
D16*
X016936Y007559D02*
X017464Y007559D01*
X017464Y006441D01*
X016936Y006441D01*
X016936Y007559D01*
X017811Y007559D02*
X018339Y007559D01*
X018339Y006441D01*
X017811Y006441D01*
X017811Y007559D01*
X018686Y007559D02*
X019214Y007559D01*
X019214Y006441D01*
X018686Y006441D01*
X018686Y007559D01*
X019561Y007559D02*
X020089Y007559D01*
X020089Y006441D01*
X019561Y006441D01*
X019561Y007559D01*
X020436Y007559D02*
X020964Y007559D01*
X020964Y006441D01*
X020436Y006441D01*
X020436Y007559D01*
X012822Y011736D02*
X011703Y011736D01*
X011703Y012264D01*
X012822Y012264D01*
X012822Y011736D01*
X012526Y011184D02*
X011998Y011184D01*
X011998Y010066D01*
X012526Y010066D01*
X012526Y011184D01*
X010884Y011736D02*
X010884Y012264D01*
X009765Y012264D01*
X009765Y011736D01*
X010884Y011736D01*
X007589Y009434D02*
X007061Y009434D01*
X007061Y008316D01*
X007589Y008316D01*
X007589Y009434D01*
X006651Y009434D02*
X006123Y009434D01*
X006123Y008316D01*
X006651Y008316D01*
X006651Y009434D01*
X003339Y009434D02*
X003339Y008316D01*
X002811Y008316D01*
X002811Y009434D01*
X003339Y009434D01*
X002424Y012125D02*
X002426Y012207D01*
X002432Y012289D01*
X002442Y012371D01*
X002455Y012452D01*
X002473Y012532D01*
X002494Y012611D01*
X002520Y012689D01*
X002549Y012766D01*
X002581Y012842D01*
X002617Y012915D01*
X002657Y012987D01*
X002700Y013057D01*
X002746Y013125D01*
X002796Y013191D01*
X002849Y013254D01*
X002904Y013314D01*
X002963Y013372D01*
X003024Y013427D01*
X003087Y013479D01*
X003154Y013528D01*
X003222Y013573D01*
X003292Y013615D01*
X003365Y013654D01*
X003439Y013689D01*
X003515Y013721D01*
X003592Y013749D01*
X003671Y013773D01*
X003750Y013794D01*
X003831Y013810D01*
X003912Y013823D01*
X003993Y013832D01*
X004075Y013837D01*
X004158Y013838D01*
X004240Y013835D01*
X004322Y013828D01*
X004403Y013817D01*
X004484Y013803D01*
X004564Y013784D01*
X004643Y013762D01*
X004721Y013735D01*
X004797Y013706D01*
X004872Y013672D01*
X004946Y013635D01*
X005017Y013595D01*
X005087Y013551D01*
X005154Y013504D01*
X005219Y013453D01*
X005281Y013400D01*
X005341Y013344D01*
X005398Y013284D01*
X005452Y013223D01*
X005503Y013158D01*
X005551Y013092D01*
X005596Y013023D01*
X005637Y012952D01*
X005675Y012879D01*
X005710Y012804D01*
X005740Y012728D01*
X005767Y012650D01*
X005791Y012572D01*
X005810Y012492D01*
X005826Y012411D01*
X005838Y012330D01*
X005846Y012248D01*
X005850Y012166D01*
X005850Y012084D01*
X005846Y012002D01*
X005838Y011920D01*
X005826Y011839D01*
X005810Y011758D01*
X005791Y011678D01*
X005767Y011600D01*
X005740Y011522D01*
X005710Y011446D01*
X005675Y011371D01*
X005637Y011298D01*
X005596Y011227D01*
X005551Y011158D01*
X005503Y011092D01*
X005452Y011027D01*
X005398Y010966D01*
X005341Y010906D01*
X005281Y010850D01*
X005219Y010797D01*
X005154Y010746D01*
X005087Y010699D01*
X005017Y010655D01*
X004946Y010615D01*
X004872Y010578D01*
X004797Y010544D01*
X004721Y010515D01*
X004643Y010488D01*
X004564Y010466D01*
X004484Y010447D01*
X004403Y010433D01*
X004322Y010422D01*
X004240Y010415D01*
X004158Y010412D01*
X004075Y010413D01*
X003993Y010418D01*
X003912Y010427D01*
X003831Y010440D01*
X003750Y010456D01*
X003671Y010477D01*
X003592Y010501D01*
X003515Y010529D01*
X003439Y010561D01*
X003365Y010596D01*
X003292Y010635D01*
X003222Y010677D01*
X003154Y010722D01*
X003087Y010771D01*
X003024Y010823D01*
X002963Y010878D01*
X002904Y010936D01*
X002849Y010996D01*
X002796Y011059D01*
X002746Y011125D01*
X002700Y011193D01*
X002657Y011263D01*
X002617Y011335D01*
X002581Y011408D01*
X002549Y011484D01*
X002520Y011561D01*
X002494Y011639D01*
X002473Y011718D01*
X002455Y011798D01*
X002442Y011879D01*
X002432Y011961D01*
X002426Y012043D01*
X002424Y012125D01*
X005903Y004875D02*
X005905Y004937D01*
X005911Y005000D01*
X005921Y005061D01*
X005935Y005122D01*
X005952Y005182D01*
X005973Y005241D01*
X005999Y005298D01*
X006027Y005353D01*
X006059Y005407D01*
X006095Y005458D01*
X006133Y005508D01*
X006175Y005554D01*
X006219Y005598D01*
X006267Y005639D01*
X006316Y005677D01*
X006368Y005711D01*
X006422Y005742D01*
X006478Y005770D01*
X006536Y005794D01*
X006595Y005815D01*
X006655Y005831D01*
X006716Y005844D01*
X006778Y005853D01*
X006840Y005858D01*
X006903Y005859D01*
X006965Y005856D01*
X007027Y005849D01*
X007089Y005838D01*
X007149Y005823D01*
X007209Y005805D01*
X007267Y005783D01*
X007324Y005757D01*
X007379Y005727D01*
X007432Y005694D01*
X007483Y005658D01*
X007531Y005619D01*
X007577Y005576D01*
X007620Y005531D01*
X007660Y005483D01*
X007697Y005433D01*
X007731Y005380D01*
X007762Y005326D01*
X007788Y005270D01*
X007812Y005212D01*
X007831Y005152D01*
X007847Y005092D01*
X007859Y005030D01*
X007867Y004969D01*
X007871Y004906D01*
X007871Y004844D01*
X007867Y004781D01*
X007859Y004720D01*
X007847Y004658D01*
X007831Y004598D01*
X007812Y004538D01*
X007788Y004480D01*
X007762Y004424D01*
X007731Y004370D01*
X007697Y004317D01*
X007660Y004267D01*
X007620Y004219D01*
X007577Y004174D01*
X007531Y004131D01*
X007483Y004092D01*
X007432Y004056D01*
X007379Y004023D01*
X007324Y003993D01*
X007267Y003967D01*
X007209Y003945D01*
X007149Y003927D01*
X007089Y003912D01*
X007027Y003901D01*
X006965Y003894D01*
X006903Y003891D01*
X006840Y003892D01*
X006778Y003897D01*
X006716Y003906D01*
X006655Y003919D01*
X006595Y003935D01*
X006536Y003956D01*
X006478Y003980D01*
X006422Y004008D01*
X006368Y004039D01*
X006316Y004073D01*
X006267Y004111D01*
X006219Y004152D01*
X006175Y004196D01*
X006133Y004242D01*
X006095Y004292D01*
X006059Y004343D01*
X006027Y004397D01*
X005999Y004452D01*
X005973Y004509D01*
X005952Y004568D01*
X005935Y004628D01*
X005921Y004689D01*
X005911Y004750D01*
X005905Y004813D01*
X005903Y004875D01*
D17*
X017812Y012025D02*
X020212Y012025D01*
X020269Y012027D01*
X020325Y012033D01*
X020381Y012042D01*
X020437Y012055D01*
X020491Y012072D01*
X020544Y012092D01*
X020595Y012116D01*
X020645Y012144D01*
X020693Y012174D01*
X020739Y012208D01*
X020782Y012245D01*
X020823Y012284D01*
X020861Y012326D01*
X020896Y012371D01*
X020928Y012418D01*
X020957Y012467D01*
X020983Y012517D01*
X021005Y012570D01*
X021024Y012623D01*
X021039Y012678D01*
X021050Y012734D01*
X021058Y012790D01*
X021062Y012847D01*
X021062Y012903D01*
X021058Y012960D01*
X021050Y013016D01*
X021039Y013072D01*
X021024Y013127D01*
X021005Y013180D01*
X020983Y013233D01*
X020957Y013283D01*
X020928Y013332D01*
X020896Y013379D01*
X020861Y013424D01*
X020823Y013466D01*
X020782Y013505D01*
X020739Y013542D01*
X020693Y013576D01*
X020645Y013606D01*
X020595Y013634D01*
X020544Y013658D01*
X020491Y013678D01*
X020437Y013695D01*
X020381Y013708D01*
X020325Y013717D01*
X020269Y013723D01*
X020212Y013725D01*
X017812Y013725D01*
X017755Y013723D01*
X017699Y013717D01*
X017643Y013708D01*
X017587Y013695D01*
X017533Y013678D01*
X017480Y013658D01*
X017429Y013634D01*
X017379Y013606D01*
X017331Y013576D01*
X017285Y013542D01*
X017242Y013505D01*
X017201Y013466D01*
X017163Y013424D01*
X017128Y013379D01*
X017096Y013332D01*
X017067Y013283D01*
X017041Y013233D01*
X017019Y013180D01*
X017000Y013127D01*
X016985Y013072D01*
X016974Y013016D01*
X016966Y012960D01*
X016962Y012903D01*
X016962Y012847D01*
X016966Y012790D01*
X016974Y012734D01*
X016985Y012678D01*
X017000Y012623D01*
X017019Y012570D01*
X017041Y012517D01*
X017067Y012467D01*
X017096Y012418D01*
X017128Y012371D01*
X017163Y012326D01*
X017201Y012284D01*
X017242Y012245D01*
X017285Y012208D01*
X017331Y012174D01*
X017379Y012144D01*
X017429Y012116D01*
X017480Y012092D01*
X017533Y012072D01*
X017587Y012055D01*
X017643Y012042D01*
X017699Y012033D01*
X017755Y012027D01*
X017812Y012025D01*
M02*
