G75*
%MOIN*%
%OFA0B0*%
%FSLAX24Y24*%
%IPPOS*%
%LPD*%
%AMOC8*
5,1,8,0,0,1.08239X$1,22.5*
%
%ADD10R,0.0240X0.0870*%
%ADD11R,0.0472X0.0315*%
%ADD12R,0.0248X0.0327*%
%ADD13R,0.0354X0.0315*%
%ADD14R,0.0217X0.0472*%
%ADD15R,0.0137X0.0550*%
%ADD16C,0.0094*%
%ADD17R,0.0630X0.0709*%
%ADD18R,0.0500X0.0579*%
%ADD19R,0.0579X0.0500*%
D10*
X003825Y007845D03*
X004325Y007845D03*
X005325Y007845D03*
X005325Y009905D03*
X004825Y009905D03*
X004325Y009905D03*
X003825Y009905D03*
D11*
X008200Y009229D03*
X008200Y008521D03*
D12*
X012934Y009875D03*
X013840Y009875D03*
D13*
X013244Y010766D03*
X014070Y011140D03*
X013244Y011514D03*
D14*
X011386Y011137D03*
X010638Y011137D03*
X010638Y010113D03*
X011012Y010113D03*
X011386Y010113D03*
D15*
X017349Y011189D03*
X017605Y011189D03*
X017861Y011189D03*
X018117Y011189D03*
X018372Y011189D03*
X018628Y011189D03*
X018884Y011189D03*
X019140Y011189D03*
X019396Y011189D03*
X019652Y011189D03*
X019908Y011189D03*
X020164Y011189D03*
X020420Y011189D03*
X020676Y011189D03*
X020676Y008311D03*
X020420Y008311D03*
X020164Y008311D03*
X019908Y008311D03*
X019652Y008311D03*
X019396Y008311D03*
X019140Y008311D03*
X018884Y008311D03*
X018628Y008311D03*
X018372Y008311D03*
X018117Y008311D03*
X017861Y008311D03*
X017605Y008311D03*
X017349Y008311D03*
D16*
X017340Y007425D02*
X017340Y007205D01*
X017060Y007205D01*
X017060Y007425D01*
X017340Y007425D01*
X017340Y007298D02*
X017060Y007298D01*
X017060Y007391D02*
X017340Y007391D01*
X017935Y007425D02*
X017935Y007205D01*
X017935Y007425D02*
X018215Y007425D01*
X018215Y007205D01*
X017935Y007205D01*
X017935Y007298D02*
X018215Y007298D01*
X018215Y007391D02*
X017935Y007391D01*
X019090Y007425D02*
X019090Y007205D01*
X018810Y007205D01*
X018810Y007425D01*
X019090Y007425D01*
X019090Y007298D02*
X018810Y007298D01*
X018810Y007391D02*
X019090Y007391D01*
X019685Y007425D02*
X019685Y007205D01*
X019685Y007425D02*
X019965Y007425D01*
X019965Y007205D01*
X019685Y007205D01*
X019685Y007298D02*
X019965Y007298D01*
X019965Y007391D02*
X019685Y007391D01*
X020840Y007425D02*
X020840Y007205D01*
X020560Y007205D01*
X020560Y007425D01*
X020840Y007425D01*
X020840Y007298D02*
X020560Y007298D01*
X020560Y007391D02*
X020840Y007391D01*
X020840Y006795D02*
X020840Y006575D01*
X020560Y006575D01*
X020560Y006795D01*
X020840Y006795D01*
X020840Y006668D02*
X020560Y006668D01*
X020560Y006761D02*
X020840Y006761D01*
X019685Y006795D02*
X019685Y006575D01*
X019685Y006795D02*
X019965Y006795D01*
X019965Y006575D01*
X019685Y006575D01*
X019685Y006668D02*
X019965Y006668D01*
X019965Y006761D02*
X019685Y006761D01*
X019090Y006795D02*
X019090Y006575D01*
X018810Y006575D01*
X018810Y006795D01*
X019090Y006795D01*
X019090Y006668D02*
X018810Y006668D01*
X018810Y006761D02*
X019090Y006761D01*
X017935Y006795D02*
X017935Y006575D01*
X017935Y006795D02*
X018215Y006795D01*
X018215Y006575D01*
X017935Y006575D01*
X017935Y006668D02*
X018215Y006668D01*
X018215Y006761D02*
X017935Y006761D01*
X017340Y006795D02*
X017340Y006575D01*
X017060Y006575D01*
X017060Y006795D01*
X017340Y006795D01*
X017340Y006668D02*
X017060Y006668D01*
X017060Y006761D02*
X017340Y006761D01*
X012402Y010200D02*
X012402Y010420D01*
X012402Y010200D02*
X012122Y010200D01*
X012122Y010420D01*
X012402Y010420D01*
X012402Y010293D02*
X012122Y010293D01*
X012122Y010386D02*
X012402Y010386D01*
X012402Y010830D02*
X012402Y011050D01*
X012402Y010830D02*
X012122Y010830D01*
X012122Y011050D01*
X012402Y011050D01*
X012402Y010923D02*
X012122Y010923D01*
X012122Y011016D02*
X012402Y011016D01*
X012467Y011860D02*
X012687Y011860D01*
X012467Y011860D02*
X012467Y012140D01*
X012687Y012140D01*
X012687Y011860D01*
X012687Y011953D02*
X012467Y011953D01*
X012467Y012046D02*
X012687Y012046D01*
X012687Y012139D02*
X012467Y012139D01*
X012057Y011860D02*
X011837Y011860D01*
X011837Y012140D01*
X012057Y012140D01*
X012057Y011860D01*
X012057Y011953D02*
X011837Y011953D01*
X011837Y012046D02*
X012057Y012046D01*
X012057Y012139D02*
X011837Y012139D01*
X010750Y012140D02*
X010530Y012140D01*
X010750Y012140D02*
X010750Y011860D01*
X010530Y011860D01*
X010530Y012140D01*
X010530Y011953D02*
X010750Y011953D01*
X010750Y012046D02*
X010530Y012046D01*
X010530Y012139D02*
X010750Y012139D01*
X010120Y012140D02*
X009900Y012140D01*
X010120Y012140D02*
X010120Y011860D01*
X009900Y011860D01*
X009900Y012140D01*
X009900Y011953D02*
X010120Y011953D01*
X010120Y012046D02*
X009900Y012046D01*
X009900Y012139D02*
X010120Y012139D01*
X007185Y009300D02*
X007185Y009080D01*
X007185Y009300D02*
X007465Y009300D01*
X007465Y009080D01*
X007185Y009080D01*
X007185Y009173D02*
X007465Y009173D01*
X007465Y009266D02*
X007185Y009266D01*
X006247Y009300D02*
X006247Y009080D01*
X006247Y009300D02*
X006527Y009300D01*
X006527Y009080D01*
X006247Y009080D01*
X006247Y009173D02*
X006527Y009173D01*
X006527Y009266D02*
X006247Y009266D01*
X006247Y008670D02*
X006247Y008450D01*
X006247Y008670D02*
X006527Y008670D01*
X006527Y008450D01*
X006247Y008450D01*
X006247Y008543D02*
X006527Y008543D01*
X006527Y008636D02*
X006247Y008636D01*
X007185Y008670D02*
X007185Y008450D01*
X007185Y008670D02*
X007465Y008670D01*
X007465Y008450D01*
X007185Y008450D01*
X007185Y008543D02*
X007465Y008543D01*
X007465Y008636D02*
X007185Y008636D01*
X003215Y008670D02*
X003215Y008450D01*
X002935Y008450D01*
X002935Y008670D01*
X003215Y008670D01*
X003215Y008543D02*
X002935Y008543D01*
X002935Y008636D02*
X003215Y008636D01*
X003215Y009080D02*
X003215Y009300D01*
X003215Y009080D02*
X002935Y009080D01*
X002935Y009300D01*
X003215Y009300D01*
X003215Y009173D02*
X002935Y009173D01*
X002935Y009266D02*
X003215Y009266D01*
D17*
X017399Y004875D03*
X018501Y004875D03*
X019586Y004875D03*
X020688Y004875D03*
D18*
X006416Y006625D03*
X008109Y006625D03*
X008166Y010875D03*
X009859Y010875D03*
D19*
X006387Y010029D03*
X006387Y011721D03*
M02*
