G75*
%MOIN*%
%OFA0B0*%
%FSLAX24Y24*%
%IPPOS*%
%LPD*%
%AMOC8*
5,1,8,0,0,1.08239X$1,22.5*
%
%ADD10OC8,0.0500*%
%ADD11C,0.0500*%
%ADD12OC8,0.0630*%
%ADD13C,0.0630*%
%ADD14C,0.0860*%
%ADD15R,0.0709X0.1260*%
%ADD16C,0.0094*%
%ADD17C,0.0480*%
%ADD18C,0.1083*%
%ADD19C,0.0700*%
%ADD20C,0.0376*%
%ADD21C,0.0416*%
%ADD22C,0.0600*%
%ADD23C,0.0450*%
%ADD24C,0.0270*%
%ADD25C,0.0160*%
%ADD26C,0.1000*%
%ADD27C,0.0320*%
%ADD28C,0.0120*%
%ADD29C,0.0100*%
%ADD30C,0.0500*%
D10*
X007718Y012875D03*
D11*
X006931Y012875D03*
D12*
X003573Y002125D03*
X003573Y005625D03*
D13*
X004951Y005625D03*
X009012Y006253D03*
X009012Y004875D03*
X004951Y002125D03*
D14*
X011148Y002764D03*
X015872Y002764D03*
X015872Y007567D03*
X013510Y008354D03*
X011148Y007567D03*
D15*
X012410Y001250D03*
X014615Y001250D03*
D16*
X017060Y006575D02*
X017060Y006795D01*
X017340Y006795D01*
X017340Y006575D01*
X017060Y006575D01*
X017060Y006668D02*
X017340Y006668D01*
X017340Y006761D02*
X017060Y006761D01*
X017060Y007205D02*
X017060Y007425D01*
X017340Y007425D01*
X017340Y007205D01*
X017060Y007205D01*
X017060Y007298D02*
X017340Y007298D01*
X017340Y007391D02*
X017060Y007391D01*
X018215Y007425D02*
X018215Y007205D01*
X017935Y007205D01*
X017935Y007425D01*
X018215Y007425D01*
X018215Y007298D02*
X017935Y007298D01*
X017935Y007391D02*
X018215Y007391D01*
X019090Y007425D02*
X019090Y007205D01*
X018810Y007205D01*
X018810Y007425D01*
X019090Y007425D01*
X019090Y007298D02*
X018810Y007298D01*
X018810Y007391D02*
X019090Y007391D01*
X019090Y006795D02*
X019090Y006575D01*
X018810Y006575D01*
X018810Y006795D01*
X019090Y006795D01*
X019090Y006668D02*
X018810Y006668D01*
X018810Y006761D02*
X019090Y006761D01*
X018215Y006795D02*
X018215Y006575D01*
X017935Y006575D01*
X017935Y006795D01*
X018215Y006795D01*
X018215Y006668D02*
X017935Y006668D01*
X017935Y006761D02*
X018215Y006761D01*
X017747Y009325D02*
X017747Y009545D01*
X018027Y009545D01*
X018027Y009325D01*
X017747Y009325D01*
X017747Y009418D02*
X018027Y009418D01*
X018027Y009511D02*
X017747Y009511D01*
X017747Y009955D02*
X017747Y010175D01*
X018027Y010175D01*
X018027Y009955D01*
X017747Y009955D01*
X017747Y010048D02*
X018027Y010048D01*
X018027Y010141D02*
X017747Y010141D01*
X018902Y010175D02*
X018902Y009955D01*
X018622Y009955D01*
X018622Y010175D01*
X018902Y010175D01*
X018902Y010048D02*
X018622Y010048D01*
X018622Y010141D02*
X018902Y010141D01*
X019497Y010175D02*
X019497Y009955D01*
X019497Y010175D02*
X019777Y010175D01*
X019777Y009955D01*
X019497Y009955D01*
X019497Y010048D02*
X019777Y010048D01*
X019777Y010141D02*
X019497Y010141D01*
X020652Y010175D02*
X020652Y009955D01*
X020372Y009955D01*
X020372Y010175D01*
X020652Y010175D01*
X020652Y010048D02*
X020372Y010048D01*
X020372Y010141D02*
X020652Y010141D01*
X020652Y009545D02*
X020652Y009325D01*
X020372Y009325D01*
X020372Y009545D01*
X020652Y009545D01*
X020652Y009418D02*
X020372Y009418D01*
X020372Y009511D02*
X020652Y009511D01*
X019497Y009545D02*
X019497Y009325D01*
X019497Y009545D02*
X019777Y009545D01*
X019777Y009325D01*
X019497Y009325D01*
X019497Y009418D02*
X019777Y009418D01*
X019777Y009511D02*
X019497Y009511D01*
X018902Y009545D02*
X018902Y009325D01*
X018622Y009325D01*
X018622Y009545D01*
X018902Y009545D01*
X018902Y009418D02*
X018622Y009418D01*
X018622Y009511D02*
X018902Y009511D01*
X018202Y011513D02*
X018202Y011733D01*
X018202Y011513D02*
X017922Y011513D01*
X017922Y011733D01*
X018202Y011733D01*
X018202Y011606D02*
X017922Y011606D01*
X017922Y011699D02*
X018202Y011699D01*
X018202Y012142D02*
X018202Y012362D01*
X018202Y012142D02*
X017922Y012142D01*
X017922Y012362D01*
X018202Y012362D01*
X018202Y012235D02*
X017922Y012235D01*
X017922Y012328D02*
X018202Y012328D01*
X020102Y012362D02*
X020102Y012142D01*
X019822Y012142D01*
X019822Y012362D01*
X020102Y012362D01*
X020102Y012235D02*
X019822Y012235D01*
X019822Y012328D02*
X020102Y012328D01*
X020102Y011733D02*
X020102Y011513D01*
X019822Y011513D01*
X019822Y011733D01*
X020102Y011733D01*
X020102Y011606D02*
X019822Y011606D01*
X019822Y011699D02*
X020102Y011699D01*
D17*
X019962Y012875D03*
X018062Y012875D03*
D18*
X018012Y002125D03*
X020012Y002125D03*
X009012Y002125D03*
X007012Y002125D03*
D19*
X015512Y001000D03*
X014961Y013250D03*
X013961Y013250D03*
X012961Y013250D03*
X011961Y013250D03*
X010961Y013250D03*
X009961Y013250D03*
X008961Y013250D03*
D20*
X007281Y004875D03*
X006494Y004875D03*
D21*
X005121Y012125D03*
X003153Y012125D03*
D22*
X004951Y005625D02*
X005607Y004969D01*
X005701Y004875D01*
D23*
X006494Y004875D01*
X003573Y005625D02*
X003573Y009686D01*
X005012Y011125D01*
X006512Y011125D01*
X007718Y012331D01*
X007718Y012875D01*
D24*
X011211Y011875D03*
X007325Y009904D03*
X006387Y008188D03*
X008200Y008125D03*
X004325Y008500D03*
X011762Y005875D03*
X012137Y006250D03*
X017200Y006250D03*
X017200Y007750D03*
X018075Y007750D03*
X019652Y008875D03*
X020168Y008875D03*
X020751Y008875D03*
X020512Y010438D03*
X018762Y010438D03*
X017349Y010538D03*
X017012Y013125D03*
X020751Y005500D03*
D25*
X020751Y008875D01*
X019652Y008875D02*
X019152Y008375D01*
X017825Y008375D01*
X017200Y007750D01*
X017200Y007315D01*
X018075Y007315D02*
X018950Y007315D01*
X018075Y007315D02*
X018075Y007750D01*
X017200Y006685D02*
X017200Y006250D01*
X012887Y005500D02*
X012137Y006250D01*
X011762Y005875D02*
X012410Y005227D01*
X012410Y001250D01*
X012137Y001250D01*
X011762Y001625D02*
X010262Y001625D01*
X009887Y002000D01*
X009262Y002625D01*
X008762Y002625D01*
X008512Y002375D01*
X008512Y000625D01*
X012887Y000625D01*
X012887Y001625D01*
X012637Y001625D01*
X012887Y001625D02*
X012887Y001750D01*
X012762Y001875D01*
X012012Y001875D01*
X011762Y001625D01*
X009887Y001750D02*
X009887Y002000D01*
X012887Y003250D02*
X012887Y005500D01*
X011148Y007567D02*
X009012Y009703D01*
X009012Y012313D01*
X007887Y013438D01*
X007494Y013438D01*
X006931Y012875D01*
X008961Y013250D02*
X009711Y012500D01*
X016387Y012500D01*
X017012Y013125D01*
X018062Y012875D02*
X018062Y012252D01*
X017349Y011413D02*
X016887Y011875D01*
X011211Y011875D01*
X008200Y009029D02*
X007325Y009904D01*
X008200Y009029D02*
X008200Y008125D01*
X006387Y008188D02*
X005450Y008188D01*
X005137Y008500D01*
X004325Y008500D01*
X012887Y003250D02*
X014262Y001875D01*
X014512Y001625D01*
X014615Y001523D01*
X014615Y001250D01*
X014887Y001250D01*
X014887Y000875D02*
X015387Y000875D01*
X015387Y000750D02*
X015637Y000875D01*
X015512Y000875D01*
X017887Y010065D02*
X018762Y010065D01*
X018762Y010438D01*
X019637Y010065D02*
X020512Y010065D01*
X020512Y010438D01*
X019962Y012252D02*
X019962Y012875D01*
X017349Y011413D02*
X017349Y010538D01*
D26*
X013510Y008354D02*
X013510Y007002D01*
X015872Y004640D01*
X015872Y002764D01*
X017373Y002764D01*
X018012Y002125D01*
X007012Y002125D02*
X007012Y002875D01*
D27*
X007012Y003000D02*
X007012Y003250D01*
X006887Y003375D01*
X007012Y003500D01*
X007262Y003750D01*
X007887Y003750D01*
X007762Y003625D01*
X007387Y003250D01*
X007512Y003375D02*
X007262Y003125D01*
X007137Y003000D02*
X007262Y002875D01*
X007387Y002875D02*
X007387Y002750D01*
X009387Y004750D01*
X009387Y004875D01*
X009137Y004875D01*
X009137Y005000D02*
X009012Y004875D01*
X009137Y005000D02*
X009137Y005250D01*
X008762Y004875D01*
X006762Y002875D01*
X006637Y002875D01*
X006637Y003125D01*
X006887Y003375D01*
X007012Y003500D02*
X007512Y003500D01*
X007512Y003375D01*
X007512Y003500D02*
X007137Y003375D01*
X007137Y003000D01*
X007387Y002875D02*
X009387Y004875D01*
X009387Y005000D01*
X009137Y005250D01*
X008887Y005250D01*
X008637Y005000D01*
X008637Y004625D01*
X008512Y004500D01*
X008637Y004375D01*
X007137Y003375D02*
X006637Y002875D01*
X006637Y002750D01*
X006762Y002875D01*
X006637Y002750D02*
X006637Y002625D01*
X006887Y002625D01*
X006637Y002625D02*
X006637Y002125D01*
X006887Y002125D01*
X007012Y002125D02*
X007387Y002125D01*
X007387Y002750D01*
X008637Y002125D02*
X008637Y000750D01*
X008762Y000750D01*
X009012Y000750D01*
X009137Y000750D01*
X009887Y001500D01*
X009012Y002375D01*
X008762Y002375D01*
X008887Y002375D02*
X008637Y002125D01*
X008762Y002125D01*
X008762Y000750D01*
X009012Y000750D02*
X009012Y000875D01*
X009012Y001000D01*
X009012Y001375D01*
X009387Y001375D01*
X009262Y001750D01*
X009262Y001500D01*
X009387Y001250D01*
X009512Y001000D01*
X009262Y001000D02*
X009137Y001125D01*
X009137Y001500D01*
X009137Y001625D02*
X009137Y001750D01*
X008887Y002375D01*
X008887Y002250D02*
X009012Y002250D01*
X009137Y002125D01*
X009262Y001750D01*
X009762Y001125D01*
X009137Y001750D01*
X009012Y001875D01*
X009012Y002125D01*
X009637Y002125D01*
X010262Y001500D01*
X011262Y001500D01*
X011137Y001375D01*
X010012Y001375D01*
X009762Y001125D01*
X009887Y001000D01*
X012012Y001000D01*
X012012Y001125D01*
X012012Y001375D01*
X012137Y001750D01*
X011887Y001500D01*
X011512Y001250D01*
X011262Y001500D01*
X011637Y001500D01*
X011762Y001375D01*
X011137Y001375D01*
X011387Y001125D02*
X011512Y001250D01*
X010512Y001250D01*
X010137Y001250D01*
X009762Y001250D01*
X010012Y001375D01*
X009387Y001375D01*
X009012Y002125D01*
X008762Y002125D01*
X008887Y002250D01*
X008762Y002125D02*
X009012Y001875D01*
X009012Y001375D01*
X009137Y001125D01*
X009262Y001000D02*
X009012Y001000D01*
X009012Y000875D02*
X009887Y000875D01*
X010012Y000875D01*
X010137Y000750D01*
X009887Y000875D02*
X009137Y001625D01*
X008637Y002125D01*
X009012Y002125D02*
X009637Y001500D01*
X009887Y001500D01*
X010262Y001500D01*
X010137Y001250D02*
X010262Y001125D01*
X011387Y001125D01*
X012012Y001125D01*
X012637Y001125D01*
X012762Y001250D01*
X012762Y001750D01*
X012137Y001750D01*
X012137Y001500D02*
X011887Y001500D01*
X011637Y001500D01*
X011512Y001250D02*
X012137Y001250D01*
X012012Y001375D02*
X012137Y001500D01*
X012637Y001625D02*
X012637Y001250D01*
X012637Y001125D02*
X012762Y001125D01*
X012762Y000750D01*
X009137Y000750D01*
X009387Y001250D02*
X009262Y001750D01*
X009137Y001625D02*
X009012Y002125D01*
X009887Y000875D02*
X010512Y001250D01*
X012637Y001625D02*
X012762Y001750D01*
X012762Y001250D02*
X012762Y001125D01*
X014262Y000750D02*
X014262Y001750D01*
X014637Y001750D01*
X014637Y001375D01*
X014615Y001250D02*
X014990Y000875D01*
X015512Y001000D01*
X015387Y000875D01*
X014887Y001125D01*
X014887Y001000D01*
X015012Y000875D01*
X015387Y000875D01*
X015512Y000875D01*
X015512Y001000D01*
X015512Y001125D01*
X015637Y001125D01*
X015512Y001000D01*
X015387Y000750D01*
X015387Y000875D01*
X015637Y000750D01*
X015387Y000750D01*
X014262Y000750D01*
X014762Y001125D02*
X014887Y001250D01*
X014887Y001500D01*
X014887Y001250D02*
X014887Y001125D01*
X015012Y001125D01*
X015387Y001125D01*
X015512Y001125D01*
X015512Y001000D02*
X015637Y000750D01*
D28*
X015512Y000875D02*
X015887Y000625D01*
X015762Y000625D01*
X015012Y001375D01*
X015012Y001125D01*
X014887Y001125D02*
X015387Y000625D01*
X014137Y000625D01*
X014137Y001875D01*
X014262Y001875D01*
X014387Y001875D01*
X014637Y001875D01*
X014887Y001625D01*
X015512Y001000D01*
X015887Y000625D01*
X015762Y000625D02*
X015387Y000625D01*
X015387Y000750D02*
X015512Y000875D01*
X014762Y001500D02*
X014762Y001875D01*
X014887Y001875D01*
X014887Y001625D01*
X014762Y001875D02*
X014637Y001875D01*
X014512Y001750D01*
X014512Y001625D01*
X014387Y001625D02*
X014387Y001875D01*
X018075Y006685D02*
X018950Y006685D01*
X018762Y009435D02*
X017887Y009435D01*
X018762Y009435D02*
X019637Y009435D01*
X020512Y009435D01*
D29*
X020650Y009142D02*
X019753Y009142D01*
X019709Y009160D02*
X019595Y009160D01*
X019491Y009117D01*
X019410Y009036D01*
X019367Y008932D01*
X019367Y008915D01*
X019057Y008605D01*
X017729Y008605D01*
X017595Y008470D01*
X017159Y008035D01*
X017143Y008035D01*
X017038Y007992D01*
X016958Y007911D01*
X016915Y007807D01*
X016915Y007693D01*
X016954Y007598D01*
X016863Y007507D01*
X016863Y007123D01*
X016978Y007007D01*
X017421Y007007D01*
X017537Y007123D01*
X017537Y007507D01*
X017445Y007598D01*
X017485Y007693D01*
X017485Y007710D01*
X017920Y008145D01*
X019247Y008145D01*
X019692Y008590D01*
X019709Y008590D01*
X019813Y008633D01*
X019894Y008714D01*
X019937Y008818D01*
X019937Y008932D01*
X019894Y009036D01*
X019813Y009117D01*
X019709Y009160D01*
X019551Y009142D02*
X015887Y009142D01*
X015887Y009240D02*
X021210Y009240D01*
X021210Y009142D02*
X020852Y009142D01*
X020808Y009160D02*
X020694Y009160D01*
X020589Y009117D01*
X020509Y009036D01*
X020466Y008932D01*
X020466Y008818D01*
X020509Y008714D01*
X020521Y008702D01*
X020521Y006375D01*
X017456Y006375D01*
X017445Y006402D01*
X017537Y006493D01*
X017537Y006877D01*
X017421Y006993D01*
X016978Y006993D01*
X016863Y006877D01*
X016863Y006493D01*
X016954Y006402D01*
X016943Y006375D01*
X016826Y006375D01*
X016813Y006388D01*
X016650Y006551D01*
X016148Y007053D01*
X016201Y007075D01*
X016364Y007238D01*
X016452Y007452D01*
X016452Y007682D01*
X016364Y007895D01*
X016201Y008059D01*
X015988Y008147D01*
X015887Y008147D01*
X015887Y009625D01*
X009415Y009625D01*
X009387Y009653D01*
X009387Y012499D01*
X009481Y012405D01*
X009616Y012270D01*
X016482Y012270D01*
X017052Y012840D01*
X017069Y012840D01*
X017174Y012883D01*
X017254Y012964D01*
X017297Y013068D01*
X017297Y013182D01*
X017254Y013286D01*
X017174Y013367D01*
X017069Y013410D01*
X016956Y013410D01*
X016851Y013367D01*
X016771Y013286D01*
X016727Y013182D01*
X016727Y013165D01*
X016292Y012730D01*
X009806Y012730D01*
X009439Y013097D01*
X009461Y013151D01*
X009461Y013349D01*
X009387Y013528D01*
X009387Y013705D01*
X010752Y013705D01*
X010678Y013674D01*
X010537Y013533D01*
X010461Y013349D01*
X010461Y013151D01*
X010537Y012967D01*
X010678Y012826D01*
X010862Y012750D01*
X011060Y012750D01*
X011244Y012826D01*
X011385Y012967D01*
X011461Y013151D01*
X011537Y012967D01*
X011678Y012826D01*
X011862Y012750D01*
X012060Y012750D01*
X012244Y012826D01*
X012385Y012967D01*
X012461Y013151D01*
X012537Y012967D01*
X012678Y012826D01*
X012862Y012750D01*
X013060Y012750D01*
X013244Y012826D01*
X013385Y012967D01*
X013461Y013151D01*
X013537Y012967D01*
X013678Y012826D01*
X013862Y012750D01*
X014060Y012750D01*
X014244Y012826D01*
X014385Y012967D01*
X014461Y013151D01*
X014537Y012967D01*
X014678Y012826D01*
X014862Y012750D01*
X015060Y012750D01*
X015244Y012826D01*
X015385Y012967D01*
X015461Y013151D01*
X015461Y013349D01*
X015385Y013533D01*
X015244Y013674D01*
X015170Y013705D01*
X021829Y013705D01*
X021605Y013480D01*
X021442Y013199D01*
X021358Y012886D01*
X021358Y012561D01*
X021442Y012248D01*
X021605Y011967D01*
X021834Y011737D01*
X022022Y011629D01*
X021956Y011607D01*
X021602Y011350D01*
X021345Y010996D01*
X021210Y010580D01*
X021210Y006375D01*
X020981Y006375D01*
X020981Y008702D01*
X020992Y008714D01*
X021036Y008818D01*
X021036Y008932D01*
X020992Y009036D01*
X020912Y009117D01*
X020808Y009160D01*
X020986Y009043D02*
X021210Y009043D01*
X021210Y008945D02*
X021031Y008945D01*
X021036Y008846D02*
X021210Y008846D01*
X021210Y008748D02*
X021007Y008748D01*
X020981Y008649D02*
X021210Y008649D01*
X021210Y008551D02*
X020981Y008551D01*
X020981Y008452D02*
X021210Y008452D01*
X021210Y008354D02*
X020981Y008354D01*
X020981Y008255D02*
X021210Y008255D01*
X021210Y008157D02*
X020981Y008157D01*
X020981Y008058D02*
X021210Y008058D01*
X021210Y007960D02*
X020981Y007960D01*
X020981Y007861D02*
X021210Y007861D01*
X021210Y007763D02*
X020981Y007763D01*
X020981Y007664D02*
X021210Y007664D01*
X021210Y007566D02*
X020981Y007566D01*
X020981Y007467D02*
X021210Y007467D01*
X021210Y007369D02*
X020981Y007369D01*
X020981Y007270D02*
X021210Y007270D01*
X021210Y007172D02*
X020981Y007172D01*
X020981Y007073D02*
X021210Y007073D01*
X021210Y006975D02*
X020981Y006975D01*
X020981Y006876D02*
X021210Y006876D01*
X021210Y006778D02*
X020981Y006778D01*
X020981Y006679D02*
X021210Y006679D01*
X021210Y006581D02*
X020981Y006581D01*
X020981Y006482D02*
X021210Y006482D01*
X021210Y006384D02*
X020981Y006384D01*
X020521Y006384D02*
X017453Y006384D01*
X017526Y006482D02*
X020521Y006482D01*
X020521Y006581D02*
X017537Y006581D01*
X017537Y006679D02*
X020521Y006679D01*
X020521Y006778D02*
X017537Y006778D01*
X017537Y006876D02*
X020521Y006876D01*
X020521Y006975D02*
X017439Y006975D01*
X017487Y007073D02*
X017788Y007073D01*
X017738Y007123D02*
X017853Y007007D01*
X018296Y007007D01*
X018374Y007085D01*
X018651Y007085D01*
X018728Y007007D01*
X019171Y007007D01*
X019287Y007123D01*
X019287Y007507D01*
X019171Y007622D01*
X018728Y007622D01*
X018651Y007545D01*
X018374Y007545D01*
X018320Y007598D01*
X018360Y007693D01*
X018360Y007807D01*
X018316Y007911D01*
X018236Y007992D01*
X018131Y008035D01*
X018018Y008035D01*
X017913Y007992D01*
X017833Y007911D01*
X017790Y007807D01*
X017790Y007693D01*
X017829Y007598D01*
X017738Y007507D01*
X017738Y007123D01*
X017738Y007172D02*
X017537Y007172D01*
X017537Y007270D02*
X017738Y007270D01*
X017738Y007369D02*
X017537Y007369D01*
X017537Y007467D02*
X017738Y007467D01*
X017796Y007566D02*
X017478Y007566D01*
X017473Y007664D02*
X017802Y007664D01*
X017790Y007763D02*
X017537Y007763D01*
X017636Y007861D02*
X017812Y007861D01*
X017881Y007960D02*
X017734Y007960D01*
X017833Y008058D02*
X020521Y008058D01*
X020521Y007960D02*
X018268Y007960D01*
X018337Y007861D02*
X020521Y007861D01*
X020521Y007763D02*
X018360Y007763D01*
X018348Y007664D02*
X020521Y007664D01*
X020521Y007566D02*
X019228Y007566D01*
X019287Y007467D02*
X020521Y007467D01*
X020521Y007369D02*
X019287Y007369D01*
X019287Y007270D02*
X020521Y007270D01*
X020521Y007172D02*
X019287Y007172D01*
X019237Y007073D02*
X020521Y007073D01*
X018663Y007073D02*
X018362Y007073D01*
X018353Y007566D02*
X018671Y007566D01*
X019259Y008157D02*
X020521Y008157D01*
X020521Y008255D02*
X019357Y008255D01*
X019456Y008354D02*
X020521Y008354D01*
X020521Y008452D02*
X019554Y008452D01*
X019653Y008551D02*
X020521Y008551D01*
X020521Y008649D02*
X019829Y008649D01*
X019908Y008748D02*
X020495Y008748D01*
X020466Y008846D02*
X019937Y008846D01*
X019932Y008945D02*
X020471Y008945D01*
X020516Y009043D02*
X019887Y009043D01*
X019417Y009043D02*
X015887Y009043D01*
X015887Y008945D02*
X019372Y008945D01*
X019298Y008846D02*
X015887Y008846D01*
X015887Y008748D02*
X019199Y008748D01*
X019101Y008649D02*
X015887Y008649D01*
X015887Y008551D02*
X017675Y008551D01*
X017576Y008452D02*
X015887Y008452D01*
X015887Y008354D02*
X017478Y008354D01*
X017379Y008255D02*
X015887Y008255D01*
X015887Y008157D02*
X017281Y008157D01*
X017182Y008058D02*
X016202Y008058D01*
X016300Y007960D02*
X017006Y007960D01*
X016937Y007861D02*
X016378Y007861D01*
X016419Y007763D02*
X016915Y007763D01*
X016927Y007664D02*
X016452Y007664D01*
X016452Y007566D02*
X016921Y007566D01*
X016863Y007467D02*
X016452Y007467D01*
X016418Y007369D02*
X016863Y007369D01*
X016863Y007270D02*
X016377Y007270D01*
X016297Y007172D02*
X016863Y007172D01*
X016913Y007073D02*
X016196Y007073D01*
X016226Y006975D02*
X016960Y006975D01*
X016863Y006876D02*
X016325Y006876D01*
X016423Y006778D02*
X016863Y006778D01*
X016863Y006679D02*
X016522Y006679D01*
X016620Y006581D02*
X016863Y006581D01*
X016874Y006482D02*
X016719Y006482D01*
X016650Y006551D02*
X016650Y006551D01*
X016817Y006384D02*
X016947Y006384D01*
X015887Y009339D02*
X021210Y009339D01*
X021210Y009437D02*
X015887Y009437D01*
X015887Y009536D02*
X021210Y009536D01*
X021210Y009634D02*
X009406Y009634D01*
X009387Y009733D02*
X021210Y009733D01*
X021210Y009831D02*
X020807Y009831D01*
X020849Y009873D02*
X020849Y010257D01*
X020776Y010330D01*
X020797Y010381D01*
X020797Y010494D01*
X020754Y010599D01*
X020674Y010679D01*
X020569Y010722D01*
X020456Y010722D01*
X020351Y010679D01*
X020271Y010599D01*
X020227Y010494D01*
X020227Y010381D01*
X020248Y010330D01*
X020213Y010295D01*
X019936Y010295D01*
X019859Y010372D01*
X019416Y010372D01*
X019300Y010257D01*
X019300Y009873D01*
X019416Y009757D01*
X019859Y009757D01*
X019936Y009835D01*
X020213Y009835D01*
X020291Y009757D01*
X020734Y009757D01*
X020849Y009873D01*
X020849Y009930D02*
X021210Y009930D01*
X021210Y010028D02*
X020849Y010028D01*
X020849Y010127D02*
X021210Y010127D01*
X021210Y010225D02*
X020849Y010225D01*
X020783Y010324D02*
X021210Y010324D01*
X021210Y010422D02*
X020797Y010422D01*
X020786Y010521D02*
X021210Y010521D01*
X021223Y010619D02*
X020734Y010619D01*
X020581Y010718D02*
X021255Y010718D01*
X021287Y010816D02*
X017579Y010816D01*
X017579Y010718D02*
X018694Y010718D01*
X018706Y010722D02*
X018601Y010679D01*
X018521Y010599D01*
X018477Y010494D01*
X018477Y010381D01*
X018498Y010330D01*
X018463Y010295D01*
X018186Y010295D01*
X018109Y010372D01*
X017666Y010372D01*
X017550Y010257D01*
X017550Y009873D01*
X017666Y009757D01*
X018109Y009757D01*
X018186Y009835D01*
X018463Y009835D01*
X018541Y009757D01*
X018984Y009757D01*
X019099Y009873D01*
X019099Y010257D01*
X019026Y010330D01*
X019047Y010381D01*
X019047Y010494D01*
X019004Y010599D01*
X018924Y010679D01*
X018819Y010722D01*
X018706Y010722D01*
X018831Y010718D02*
X020444Y010718D01*
X020291Y010619D02*
X018984Y010619D01*
X019036Y010521D02*
X020238Y010521D01*
X020227Y010422D02*
X019047Y010422D01*
X019033Y010324D02*
X019367Y010324D01*
X019300Y010225D02*
X019099Y010225D01*
X019099Y010127D02*
X019300Y010127D01*
X019300Y010028D02*
X019099Y010028D01*
X019099Y009930D02*
X019300Y009930D01*
X019342Y009831D02*
X019057Y009831D01*
X018467Y009831D02*
X018182Y009831D01*
X017592Y009831D02*
X009387Y009831D01*
X009387Y009930D02*
X017550Y009930D01*
X017550Y010028D02*
X009387Y010028D01*
X009387Y010127D02*
X017550Y010127D01*
X017550Y010225D02*
X009387Y010225D01*
X009387Y010324D02*
X017161Y010324D01*
X017187Y010297D02*
X017292Y010253D01*
X017406Y010253D01*
X017510Y010297D01*
X017590Y010377D01*
X017634Y010482D01*
X017634Y010595D01*
X017590Y010700D01*
X017579Y010711D01*
X017579Y011509D01*
X017444Y011643D01*
X016982Y012105D01*
X011384Y012105D01*
X011372Y012117D01*
X011268Y012160D01*
X011154Y012160D01*
X011050Y012117D01*
X010969Y012036D01*
X010926Y011932D01*
X010926Y011818D01*
X010969Y011714D01*
X011050Y011633D01*
X011154Y011590D01*
X011268Y011590D01*
X011372Y011633D01*
X011384Y011645D01*
X016792Y011645D01*
X017119Y011318D01*
X017119Y010711D01*
X017107Y010700D01*
X017064Y010595D01*
X017064Y010482D01*
X017107Y010377D01*
X017187Y010297D01*
X017089Y010422D02*
X009387Y010422D01*
X009387Y010521D02*
X017064Y010521D01*
X017074Y010619D02*
X009387Y010619D01*
X009387Y010718D02*
X017119Y010718D01*
X017119Y010816D02*
X009387Y010816D01*
X009387Y010915D02*
X017119Y010915D01*
X017119Y011013D02*
X009387Y011013D01*
X009387Y011112D02*
X017119Y011112D01*
X017119Y011210D02*
X009387Y011210D01*
X009387Y011309D02*
X017119Y011309D01*
X017030Y011407D02*
X009387Y011407D01*
X009387Y011506D02*
X016931Y011506D01*
X016833Y011604D02*
X011302Y011604D01*
X011120Y011604D02*
X009387Y011604D01*
X009387Y011703D02*
X010980Y011703D01*
X010933Y011801D02*
X009387Y011801D01*
X009387Y011900D02*
X010926Y011900D01*
X010954Y011998D02*
X009387Y011998D01*
X009387Y012097D02*
X011030Y012097D01*
X011147Y012786D02*
X011775Y012786D01*
X011619Y012885D02*
X011303Y012885D01*
X011392Y012983D02*
X011530Y012983D01*
X011490Y013082D02*
X011432Y013082D01*
X011461Y013151D02*
X011461Y013349D01*
X011537Y013533D01*
X011678Y013674D01*
X011752Y013705D01*
X011170Y013705D01*
X011244Y013674D01*
X011385Y013533D01*
X011461Y013349D01*
X011461Y013151D01*
X011461Y013180D02*
X011461Y013180D01*
X011461Y013279D02*
X011461Y013279D01*
X011450Y013377D02*
X011472Y013377D01*
X011513Y013476D02*
X011409Y013476D01*
X011344Y013574D02*
X011578Y013574D01*
X011676Y013673D02*
X011246Y013673D01*
X010676Y013673D02*
X009387Y013673D01*
X009387Y013574D02*
X010578Y013574D01*
X010513Y013476D02*
X009409Y013476D01*
X009450Y013377D02*
X010472Y013377D01*
X010461Y013279D02*
X009461Y013279D01*
X009461Y013180D02*
X010461Y013180D01*
X010490Y013082D02*
X009455Y013082D01*
X009553Y012983D02*
X010530Y012983D01*
X010619Y012885D02*
X009652Y012885D01*
X009750Y012786D02*
X010775Y012786D01*
X009592Y012294D02*
X009387Y012294D01*
X009387Y012392D02*
X009494Y012392D01*
X009395Y012491D02*
X009387Y012491D01*
X009387Y012195D02*
X017725Y012195D01*
X017725Y012097D02*
X016991Y012097D01*
X017089Y011998D02*
X017788Y011998D01*
X017841Y011945D02*
X017725Y012061D01*
X017725Y012444D01*
X017832Y012551D01*
X017832Y012553D01*
X017732Y012654D01*
X017672Y012797D01*
X017672Y012953D01*
X017732Y013096D01*
X017841Y013206D01*
X017985Y013265D01*
X018140Y013265D01*
X018283Y013206D01*
X018393Y013096D01*
X018452Y012953D01*
X018452Y012797D01*
X018393Y012654D01*
X018292Y012553D01*
X018292Y012551D01*
X018399Y012444D01*
X018399Y012061D01*
X018284Y011945D01*
X017841Y011945D01*
X017483Y011604D02*
X021952Y011604D01*
X021956Y011607D02*
X021956Y011607D01*
X021894Y011703D02*
X017385Y011703D01*
X017444Y011643D02*
X017444Y011643D01*
X017579Y011506D02*
X021816Y011506D01*
X021681Y011407D02*
X017579Y011407D01*
X017579Y011309D02*
X021572Y011309D01*
X021602Y011350D02*
X021602Y011350D01*
X021602Y011350D01*
X021501Y011210D02*
X017579Y011210D01*
X017579Y011112D02*
X021429Y011112D01*
X021357Y011013D02*
X017579Y011013D01*
X017579Y010915D02*
X021319Y010915D01*
X021345Y010996D02*
X021345Y010996D01*
X021770Y011801D02*
X017286Y011801D01*
X017188Y011900D02*
X021672Y011900D01*
X021586Y011998D02*
X020237Y011998D01*
X020184Y011945D02*
X020299Y012061D01*
X020299Y012444D01*
X020192Y012551D01*
X020192Y012553D01*
X020293Y012654D01*
X020352Y012797D01*
X020352Y012953D01*
X020293Y013096D01*
X020183Y013206D01*
X020040Y013265D01*
X019885Y013265D01*
X019741Y013206D01*
X019632Y013096D01*
X019572Y012953D01*
X019572Y012797D01*
X019632Y012654D01*
X019732Y012553D01*
X019732Y012551D01*
X019625Y012444D01*
X019625Y012061D01*
X019741Y011945D01*
X020184Y011945D01*
X020299Y012097D02*
X021530Y012097D01*
X021473Y012195D02*
X020299Y012195D01*
X020299Y012294D02*
X021430Y012294D01*
X021404Y012392D02*
X020299Y012392D01*
X020253Y012491D02*
X021377Y012491D01*
X021358Y012589D02*
X020228Y012589D01*
X020307Y012688D02*
X021358Y012688D01*
X021358Y012786D02*
X020347Y012786D01*
X020352Y012885D02*
X021358Y012885D01*
X021384Y012983D02*
X020340Y012983D01*
X020299Y013082D02*
X021411Y013082D01*
X021437Y013180D02*
X020209Y013180D01*
X019716Y013180D02*
X018309Y013180D01*
X018399Y013082D02*
X019626Y013082D01*
X019585Y012983D02*
X018440Y012983D01*
X018452Y012885D02*
X019572Y012885D01*
X019577Y012786D02*
X018447Y012786D01*
X018407Y012688D02*
X019618Y012688D01*
X019697Y012589D02*
X018328Y012589D01*
X018353Y012491D02*
X019671Y012491D01*
X019625Y012392D02*
X018399Y012392D01*
X018399Y012294D02*
X019625Y012294D01*
X019625Y012195D02*
X018399Y012195D01*
X018399Y012097D02*
X019625Y012097D01*
X019688Y011998D02*
X018337Y011998D01*
X017725Y012294D02*
X016506Y012294D01*
X016605Y012392D02*
X017725Y012392D01*
X017771Y012491D02*
X016703Y012491D01*
X016802Y012589D02*
X017797Y012589D01*
X017718Y012688D02*
X016900Y012688D01*
X016999Y012786D02*
X017677Y012786D01*
X017672Y012885D02*
X017175Y012885D01*
X017262Y012983D02*
X017685Y012983D01*
X017726Y013082D02*
X017297Y013082D01*
X017297Y013180D02*
X017816Y013180D01*
X017257Y013279D02*
X021488Y013279D01*
X021545Y013377D02*
X017148Y013377D01*
X016876Y013377D02*
X015450Y013377D01*
X015461Y013279D02*
X016767Y013279D01*
X016727Y013180D02*
X015461Y013180D01*
X015432Y013082D02*
X016643Y013082D01*
X016545Y012983D02*
X015392Y012983D01*
X015303Y012885D02*
X016446Y012885D01*
X016348Y012786D02*
X015147Y012786D01*
X014775Y012786D02*
X014147Y012786D01*
X014303Y012885D02*
X014619Y012885D01*
X014530Y012983D02*
X014392Y012983D01*
X014432Y013082D02*
X014490Y013082D01*
X014461Y013151D02*
X014461Y013349D01*
X014537Y013533D01*
X014678Y013674D01*
X014752Y013705D01*
X014170Y013705D01*
X014244Y013674D01*
X014385Y013533D01*
X014461Y013349D01*
X014461Y013151D01*
X014461Y013180D02*
X014461Y013180D01*
X014461Y013279D02*
X014461Y013279D01*
X014450Y013377D02*
X014472Y013377D01*
X014513Y013476D02*
X014409Y013476D01*
X014344Y013574D02*
X014578Y013574D01*
X014676Y013673D02*
X014246Y013673D01*
X013752Y013705D02*
X013678Y013674D01*
X013537Y013533D01*
X013461Y013349D01*
X013461Y013151D01*
X013461Y013349D01*
X013385Y013533D01*
X013244Y013674D01*
X013170Y013705D01*
X013752Y013705D01*
X013676Y013673D02*
X013246Y013673D01*
X013344Y013574D02*
X013578Y013574D01*
X013513Y013476D02*
X013409Y013476D01*
X013450Y013377D02*
X013472Y013377D01*
X013461Y013279D02*
X013461Y013279D01*
X013461Y013180D02*
X013461Y013180D01*
X013432Y013082D02*
X013490Y013082D01*
X013530Y012983D02*
X013392Y012983D01*
X013303Y012885D02*
X013619Y012885D01*
X013775Y012786D02*
X013147Y012786D01*
X012775Y012786D02*
X012147Y012786D01*
X012303Y012885D02*
X012619Y012885D01*
X012530Y012983D02*
X012392Y012983D01*
X012432Y013082D02*
X012490Y013082D01*
X012461Y013151D02*
X012461Y013349D01*
X012537Y013533D01*
X012678Y013674D01*
X012752Y013705D01*
X012170Y013705D01*
X012244Y013674D01*
X012385Y013533D01*
X012461Y013349D01*
X012461Y013151D01*
X012461Y013180D02*
X012461Y013180D01*
X012461Y013279D02*
X012461Y013279D01*
X012450Y013377D02*
X012472Y013377D01*
X012513Y013476D02*
X012409Y013476D01*
X012344Y013574D02*
X012578Y013574D01*
X012676Y013673D02*
X012246Y013673D01*
X015246Y013673D02*
X021797Y013673D01*
X021698Y013574D02*
X015344Y013574D01*
X015409Y013476D02*
X021602Y013476D01*
X018541Y010619D02*
X017624Y010619D01*
X017634Y010521D02*
X018488Y010521D01*
X018477Y010422D02*
X017609Y010422D01*
X017617Y010324D02*
X017537Y010324D01*
X018158Y010324D02*
X018492Y010324D01*
X019908Y010324D02*
X020242Y010324D01*
X020217Y009831D02*
X019932Y009831D01*
X009137Y005250D02*
X009137Y004750D01*
X008887Y004500D01*
X008825Y004563D01*
X008825Y004688D01*
X009012Y004875D01*
X008887Y004875D02*
X008762Y004875D01*
X008825Y004813D02*
X008825Y004688D01*
X008887Y004625D02*
X008825Y004563D01*
X008637Y004375D01*
X008512Y004250D01*
X008012Y003750D01*
X007887Y003625D01*
X007762Y003625D01*
X007637Y003625D01*
X007762Y003750D01*
X008012Y003750D01*
X008012Y003875D02*
X008512Y004375D01*
X008512Y004250D01*
X008637Y004375D02*
X008637Y005000D01*
X008825Y004813D01*
X008887Y004875D02*
X008887Y004625D01*
X008887Y005000D02*
X008637Y005000D01*
X014262Y001875D02*
X014262Y001750D01*
X015387Y001125D02*
X015512Y001000D01*
X015637Y001125D02*
X015387Y000750D01*
D30*
X009137Y004875D02*
X009012Y004875D01*
M02*
