%
M48
M72
T01C0.0130
T02C0.0315
T03C0.0320
T04C0.0354
T05C0.0472
T06C0.0512
T07C0.1181
%
T01
X11762Y5875
X12137Y6250
X8200Y8125
X6387Y8188
X4325Y8500
X7325Y10029
X11086Y12000
X17012Y13125
X17349Y10538
X18762Y10438
X20512Y10438
X20751Y8875
X20168Y8875
X19652Y8875
X18075Y7750
X17200Y7750
X17200Y6250
X20751Y5500
T02
X15512Y1000
X4951Y2125
X3573Y2125
X3573Y5625
X4951Y5625
X6931Y12875
X7718Y12875
T03
X18062Y12875
X19962Y12875
T04
X14961Y13250
X13961Y13250
X12961Y13250
X11961Y13250
X10961Y13250
X9961Y13250
X8961Y13250
X5121Y12125
X3153Y12125
X9012Y6253
X9012Y4875
X7281Y4875
X6494Y4875
T05
X7012Y2125
X9012Y2125
X18012Y2125
X20012Y2125
T06
X15872Y2764
X11148Y2764
X11148Y7567
X13510Y8354
X15872Y7567
T07
X1331Y1556
X1331Y12723
X22591Y12723
X22591Y1556
M30
