G75*
%MOIN*%
%OFA0B0*%
%FSLAX24Y24*%
%IPPOS*%
%LPD*%
%AMOC8*
5,1,8,0,0,1.08239X$1,22.5*
%
%ADD10C,0.1241*%
%ADD11C,0.2165*%
%ADD12C,0.0320*%
%ADD13C,0.0160*%
%ADD14C,0.0120*%
%ADD15OC8,0.0560*%
%ADD16C,0.0560*%
%ADD17OC8,0.0690*%
%ADD18C,0.0690*%
%ADD19C,0.0920*%
%ADD20R,0.0769X0.1320*%
%ADD21C,0.0112*%
%ADD22C,0.0540*%
%ADD23C,0.1143*%
%ADD24C,0.0760*%
%ADD25C,0.0436*%
%ADD26C,0.0476*%
D10*
X001331Y001556D03*
X001331Y012723D03*
X022591Y012723D03*
X022591Y001556D03*
D11*
X001331Y001556D03*
X001331Y012723D03*
X022591Y012723D03*
X022591Y001556D03*
D12*
X018387Y002000D02*
X018262Y001875D01*
X017762Y001875D01*
X017262Y002375D01*
X017137Y002500D01*
X017262Y002625D02*
X017512Y002375D01*
X017887Y002375D01*
X017387Y002875D01*
X017387Y002625D01*
X017512Y002500D01*
X017512Y002875D01*
X017387Y003000D01*
X016012Y003000D01*
X015887Y003000D01*
X015887Y004375D01*
X015637Y004375D01*
X014387Y005625D01*
X015012Y005625D01*
X015137Y005500D01*
X015762Y004875D01*
X015387Y004875D01*
X014762Y005500D01*
X015137Y005500D01*
X014887Y005750D02*
X014637Y005750D01*
X013387Y007000D01*
X013137Y007000D01*
X013137Y007250D01*
X013137Y007500D01*
X013512Y007500D01*
X013387Y007375D02*
X013762Y007375D01*
X013762Y008000D01*
X013637Y008125D01*
X013637Y007625D01*
X013387Y007375D02*
X013387Y008125D01*
X013387Y008250D02*
X013137Y008000D01*
X013137Y008375D01*
X013887Y008375D01*
X013887Y007125D01*
X013887Y006750D01*
X014887Y005750D01*
X014387Y006125D02*
X013637Y006875D01*
X013637Y007000D01*
X013387Y007000D01*
X013137Y007000D02*
X013137Y006875D01*
X015137Y004875D01*
X015387Y004875D01*
X015137Y004875D02*
X015512Y004500D01*
X015637Y004500D02*
X015637Y002625D01*
X017262Y002625D01*
X017262Y002875D02*
X015887Y002875D01*
X015762Y002875D01*
X015762Y004250D01*
X016012Y004250D01*
X016012Y003000D01*
X015887Y003000D02*
X015887Y002875D01*
X016262Y003125D02*
X017512Y003125D01*
X018387Y002250D01*
X018387Y002000D01*
X016262Y003125D02*
X016262Y004750D01*
X013887Y007125D01*
X013762Y007250D01*
X013137Y007250D01*
X013137Y007500D02*
X013137Y008000D01*
X013387Y008250D02*
X013637Y008250D01*
X009262Y005125D02*
X009137Y005250D01*
X009012Y005250D01*
X009012Y004875D01*
X009137Y005000D01*
X009262Y005125D01*
X009387Y005000D01*
X009012Y004625D01*
X009012Y004375D01*
X009387Y004750D01*
X009387Y005000D01*
X009137Y005000D02*
X008887Y005000D01*
X008262Y004375D01*
X008012Y004125D01*
X008012Y003750D01*
X007637Y003375D01*
X007512Y003250D01*
X007387Y003125D02*
X007262Y003250D01*
X007262Y003375D01*
X007637Y003750D01*
X007512Y003750D01*
X007137Y003375D01*
X007137Y003125D01*
X006887Y002875D01*
X006887Y002750D01*
X006762Y002625D01*
X007012Y002625D01*
X007137Y002750D01*
X006762Y003125D01*
X007387Y003125D01*
X007887Y003250D01*
X007637Y003375D01*
X007887Y003250D02*
X008637Y004125D01*
X008637Y004250D01*
X008512Y004125D01*
X008012Y004125D01*
X007637Y003750D01*
X007512Y003750D02*
X007262Y003750D01*
X006637Y003125D01*
X006637Y002250D01*
X007012Y002250D01*
X007137Y002250D02*
X007137Y002625D01*
X007512Y003000D01*
X006887Y003000D01*
X006887Y002875D01*
X006887Y002750D02*
X006762Y003125D01*
X006887Y002750D02*
X006637Y002125D01*
X006762Y002000D01*
X007012Y002000D01*
X007262Y002125D02*
X007137Y002250D01*
X007262Y002125D02*
X007387Y002125D01*
X007387Y002750D01*
X007887Y003250D01*
X009012Y004375D01*
X008762Y004375D01*
X008762Y004625D01*
X009012Y004875D01*
X008637Y005000D02*
X008887Y005250D01*
X009012Y005250D01*
X008637Y005000D02*
X008637Y004625D01*
X008387Y004375D01*
X008262Y004375D01*
X008262Y004250D02*
X008387Y004375D01*
X008762Y004375D01*
X008262Y004250D02*
X008262Y004000D01*
X008012Y003750D01*
X009262Y002500D02*
X009637Y002125D01*
X008637Y002125D01*
X008637Y000750D01*
X012762Y000750D01*
X012762Y001750D01*
X012137Y001750D01*
X011887Y001500D01*
X011262Y001500D01*
X010387Y001500D01*
X010262Y001500D01*
X009887Y001500D01*
X009262Y002125D01*
X009137Y002125D01*
X008762Y001750D01*
X008762Y000875D01*
X009262Y000875D01*
X012012Y000875D01*
X012012Y001000D01*
X009762Y001000D01*
X009387Y001375D01*
X009012Y001375D01*
X008887Y001250D02*
X009012Y001125D01*
X011887Y001125D01*
X012012Y001000D01*
X012012Y001250D01*
X009762Y001250D01*
X009387Y001625D01*
X008887Y001625D01*
X008887Y001250D01*
X009637Y001875D02*
X009887Y001875D01*
X009637Y002125D01*
X009887Y001875D02*
X010262Y001500D01*
X011262Y001500D02*
X011262Y001125D01*
X012012Y001250D02*
X012012Y001375D01*
X014262Y001750D02*
X014262Y000750D01*
X014887Y000750D01*
X014887Y001125D01*
X014887Y001250D01*
X014637Y001250D01*
X015012Y001000D01*
X014887Y000750D01*
X015012Y000750D02*
X015012Y001000D01*
X015012Y001125D01*
X014512Y001625D01*
X014512Y001750D01*
X014637Y001750D01*
X014512Y001625D01*
X014512Y001500D01*
X014637Y001250D01*
X014512Y001500D02*
X014887Y001125D01*
X014762Y001000D01*
X015012Y001125D01*
X015137Y001125D02*
X014887Y001125D01*
X015012Y001000D01*
X015137Y000875D01*
X015262Y000875D01*
X015262Y001000D01*
X015137Y001125D01*
X015137Y000875D02*
X014512Y000875D01*
X014512Y001500D01*
X014637Y001750D01*
X014637Y001500D01*
X014512Y001750D02*
X014262Y001750D01*
X015637Y004500D02*
X015762Y004500D01*
X016012Y004500D01*
X016012Y004625D02*
X015637Y004625D01*
X015762Y004500D01*
X015887Y004750D02*
X016012Y004625D01*
X015887Y004750D02*
X015887Y004875D01*
X015762Y004875D01*
D13*
X012762Y001875D02*
X012012Y001875D01*
X011762Y001625D01*
X010262Y001625D01*
X009262Y002625D01*
X009262Y002500D01*
X009137Y002625D01*
X009262Y002625D01*
X009137Y002625D02*
X009012Y002625D01*
X008762Y002625D01*
X008512Y002375D01*
X008512Y000625D01*
X009012Y000625D01*
X009262Y000875D01*
X009012Y000625D02*
X012887Y000625D01*
X012887Y001750D01*
X012762Y001875D01*
X010387Y001500D02*
X010262Y001625D01*
X010262Y001500D02*
X009262Y002500D01*
X009137Y002500D01*
X009012Y002625D01*
D14*
X014137Y001875D02*
X014137Y000625D01*
X015387Y000625D01*
X014387Y001625D01*
X014387Y001750D01*
X014262Y001875D01*
X014887Y001875D01*
X014887Y001625D01*
X015887Y000625D01*
X015762Y000625D01*
X015012Y001375D01*
X015012Y001250D01*
X015512Y000750D01*
X015137Y000750D01*
X015012Y000875D01*
X015012Y001250D01*
X015387Y000625D02*
X015762Y000625D01*
X014262Y001875D02*
X014137Y001875D01*
X015512Y002625D02*
X015512Y004625D01*
X015512Y002625D02*
X015762Y002375D01*
X017137Y002375D01*
X017262Y002250D01*
X017262Y002375D01*
X017262Y002625D01*
X017137Y002500D02*
X015762Y002500D01*
D15*
X007718Y012875D03*
D16*
X006931Y012875D03*
D17*
X003573Y005625D03*
X003573Y002125D03*
D18*
X004951Y002125D03*
X009012Y004875D03*
X009012Y006253D03*
X004951Y005625D03*
D19*
X011148Y007567D03*
X013510Y008354D03*
X015872Y007567D03*
X015872Y002764D03*
X011148Y002764D03*
D20*
X012410Y001250D03*
X014615Y001250D03*
D21*
X017039Y006554D02*
X017039Y006816D01*
X017361Y006816D01*
X017361Y006554D01*
X017039Y006554D01*
X017039Y006665D02*
X017361Y006665D01*
X017361Y006776D02*
X017039Y006776D01*
X017039Y007184D02*
X017039Y007446D01*
X017361Y007446D01*
X017361Y007184D01*
X017039Y007184D01*
X017039Y007295D02*
X017361Y007295D01*
X017361Y007406D02*
X017039Y007406D01*
X018236Y007446D02*
X018236Y007184D01*
X017914Y007184D01*
X017914Y007446D01*
X018236Y007446D01*
X018236Y007295D02*
X017914Y007295D01*
X017914Y007406D02*
X018236Y007406D01*
X019111Y007446D02*
X019111Y007184D01*
X018789Y007184D01*
X018789Y007446D01*
X019111Y007446D01*
X019111Y007295D02*
X018789Y007295D01*
X018789Y007406D02*
X019111Y007406D01*
X019111Y006816D02*
X019111Y006554D01*
X018789Y006554D01*
X018789Y006816D01*
X019111Y006816D01*
X019111Y006665D02*
X018789Y006665D01*
X018789Y006776D02*
X019111Y006776D01*
X018236Y006816D02*
X018236Y006554D01*
X017914Y006554D01*
X017914Y006816D01*
X018236Y006816D01*
X018236Y006665D02*
X017914Y006665D01*
X017914Y006776D02*
X018236Y006776D01*
X017726Y009304D02*
X017726Y009566D01*
X018048Y009566D01*
X018048Y009304D01*
X017726Y009304D01*
X017726Y009415D02*
X018048Y009415D01*
X018048Y009526D02*
X017726Y009526D01*
X017726Y009934D02*
X017726Y010196D01*
X018048Y010196D01*
X018048Y009934D01*
X017726Y009934D01*
X017726Y010045D02*
X018048Y010045D01*
X018048Y010156D02*
X017726Y010156D01*
X018923Y010196D02*
X018923Y009934D01*
X018601Y009934D01*
X018601Y010196D01*
X018923Y010196D01*
X018923Y010045D02*
X018601Y010045D01*
X018601Y010156D02*
X018923Y010156D01*
X019476Y010196D02*
X019476Y009934D01*
X019476Y010196D02*
X019798Y010196D01*
X019798Y009934D01*
X019476Y009934D01*
X019476Y010045D02*
X019798Y010045D01*
X019798Y010156D02*
X019476Y010156D01*
X020673Y010196D02*
X020673Y009934D01*
X020351Y009934D01*
X020351Y010196D01*
X020673Y010196D01*
X020673Y010045D02*
X020351Y010045D01*
X020351Y010156D02*
X020673Y010156D01*
X020673Y009566D02*
X020673Y009304D01*
X020351Y009304D01*
X020351Y009566D01*
X020673Y009566D01*
X020673Y009415D02*
X020351Y009415D01*
X020351Y009526D02*
X020673Y009526D01*
X019476Y009566D02*
X019476Y009304D01*
X019476Y009566D02*
X019798Y009566D01*
X019798Y009304D01*
X019476Y009304D01*
X019476Y009415D02*
X019798Y009415D01*
X019798Y009526D02*
X019476Y009526D01*
X018923Y009566D02*
X018923Y009304D01*
X018601Y009304D01*
X018601Y009566D01*
X018923Y009566D01*
X018923Y009415D02*
X018601Y009415D01*
X018601Y009526D02*
X018923Y009526D01*
X018223Y011492D02*
X018223Y011754D01*
X018223Y011492D02*
X017901Y011492D01*
X017901Y011754D01*
X018223Y011754D01*
X018223Y011603D02*
X017901Y011603D01*
X017901Y011714D02*
X018223Y011714D01*
X018223Y012121D02*
X018223Y012383D01*
X018223Y012121D02*
X017901Y012121D01*
X017901Y012383D01*
X018223Y012383D01*
X018223Y012232D02*
X017901Y012232D01*
X017901Y012343D02*
X018223Y012343D01*
X020123Y012383D02*
X020123Y012121D01*
X019801Y012121D01*
X019801Y012383D01*
X020123Y012383D01*
X020123Y012232D02*
X019801Y012232D01*
X019801Y012343D02*
X020123Y012343D01*
X020123Y011754D02*
X020123Y011492D01*
X019801Y011492D01*
X019801Y011754D01*
X020123Y011754D01*
X020123Y011603D02*
X019801Y011603D01*
X019801Y011714D02*
X020123Y011714D01*
D22*
X019962Y012875D03*
X018062Y012875D03*
D23*
X018012Y002125D03*
X020012Y002125D03*
X009012Y002125D03*
X007012Y002125D03*
D24*
X015512Y001000D03*
X014961Y013250D03*
X013961Y013250D03*
X012961Y013250D03*
X011961Y013250D03*
X010961Y013250D03*
X009961Y013250D03*
X008961Y013250D03*
D25*
X007281Y004875D03*
X006494Y004875D03*
D26*
X005121Y012125D03*
X003153Y012125D03*
M02*
