G75*
%MOIN*%
%OFA0B0*%
%FSLAX24Y24*%
%IPPOS*%
%LPD*%
%AMOC8*
5,1,8,0,0,1.08239X$1,22.5*
%
%ADD10C,0.0050*%
%ADD11C,0.0060*%
%ADD12C,0.0039*%
D10*
X003878Y007275D02*
X004058Y007275D01*
X003878Y007455D01*
X004058Y007455D01*
X004173Y007410D02*
X004353Y007410D01*
X004353Y007275D02*
X004353Y007545D01*
X004468Y007500D02*
X004648Y007320D01*
X004603Y007275D01*
X004513Y007275D01*
X004468Y007320D01*
X004468Y007500D01*
X004513Y007545D01*
X004603Y007545D01*
X004648Y007500D01*
X004648Y007320D01*
X004762Y007320D02*
X004762Y007365D01*
X004807Y007410D01*
X004942Y007410D01*
X004942Y007320D01*
X004897Y007275D01*
X004807Y007275D01*
X004762Y007320D01*
X004852Y007500D02*
X004762Y007545D01*
X004852Y007500D02*
X004942Y007410D01*
X005057Y007545D02*
X005237Y007275D01*
X005352Y007320D02*
X005397Y007275D01*
X005487Y007275D01*
X005532Y007320D01*
X005352Y007500D01*
X005352Y007320D01*
X005532Y007320D02*
X005532Y007500D01*
X005487Y007545D01*
X005397Y007545D01*
X005352Y007500D01*
X005646Y007545D02*
X005826Y007545D01*
X005826Y007410D01*
X005736Y007455D01*
X005691Y007455D01*
X005646Y007410D01*
X005646Y007320D01*
X005691Y007275D01*
X005781Y007275D01*
X005826Y007320D01*
X006236Y007275D02*
X006236Y007455D01*
X006326Y007545D01*
X006416Y007455D01*
X006416Y007275D01*
X006530Y007320D02*
X006575Y007275D01*
X006665Y007275D01*
X006710Y007320D01*
X006530Y007500D01*
X006530Y007320D01*
X006416Y007410D02*
X006236Y007410D01*
X006530Y007500D02*
X006575Y007545D01*
X006665Y007545D01*
X006710Y007500D01*
X006710Y007320D01*
X006825Y007275D02*
X007005Y007275D01*
X006915Y007275D02*
X006915Y007545D01*
X007005Y007455D01*
X007414Y007365D02*
X007504Y007275D01*
X007594Y007365D01*
X007594Y007545D01*
X007709Y007545D02*
X007889Y007545D01*
X007889Y007410D01*
X007799Y007455D01*
X007754Y007455D01*
X007709Y007410D01*
X007709Y007320D01*
X007754Y007275D01*
X007844Y007275D01*
X007889Y007320D01*
X008003Y007320D02*
X008048Y007275D01*
X008139Y007275D01*
X008184Y007320D01*
X008184Y007410D01*
X008048Y007410D01*
X008003Y007365D01*
X008003Y007320D01*
X008094Y007500D02*
X008184Y007410D01*
X008298Y007455D02*
X008298Y007500D01*
X008343Y007545D01*
X008433Y007545D01*
X008478Y007500D01*
X008593Y007410D02*
X008773Y007410D01*
X008887Y007410D02*
X008932Y007455D01*
X008977Y007455D01*
X009068Y007410D01*
X009068Y007545D01*
X008887Y007545D01*
X008887Y007410D02*
X008887Y007320D01*
X008932Y007275D01*
X009023Y007275D01*
X009068Y007320D01*
X009182Y007320D02*
X009227Y007275D01*
X009317Y007275D01*
X009362Y007320D01*
X009362Y007365D01*
X009317Y007410D01*
X009227Y007410D01*
X009182Y007365D01*
X009182Y007320D01*
X009227Y007410D02*
X009182Y007455D01*
X009182Y007500D01*
X009227Y007545D01*
X009317Y007545D01*
X009362Y007500D01*
X009362Y007455D01*
X009317Y007410D01*
X008478Y007275D02*
X008298Y007455D01*
X008094Y007500D02*
X008003Y007545D01*
X008298Y007275D02*
X008478Y007275D01*
X007414Y007365D02*
X007414Y007545D01*
X007438Y008025D02*
X007348Y008115D01*
X007258Y008025D01*
X007258Y008295D01*
X007143Y008160D02*
X007098Y008205D01*
X007008Y008205D01*
X006963Y008160D01*
X006963Y008115D01*
X007143Y008115D01*
X007143Y008070D02*
X007143Y008160D01*
X007143Y008070D02*
X007098Y008025D01*
X007008Y008025D01*
X006849Y008025D02*
X006714Y008025D01*
X006669Y008070D01*
X006714Y008115D01*
X006804Y008115D01*
X006849Y008160D01*
X006804Y008205D01*
X006669Y008205D01*
X006554Y008205D02*
X006464Y008205D01*
X006509Y008250D02*
X006509Y008070D01*
X006464Y008025D01*
X006358Y008070D02*
X006358Y008160D01*
X006313Y008205D01*
X006223Y008205D01*
X006178Y008160D01*
X006178Y008070D01*
X006223Y008025D01*
X006313Y008025D01*
X006358Y008070D01*
X006063Y008025D02*
X006063Y008205D01*
X005928Y008205D01*
X005883Y008160D01*
X005883Y008025D01*
X005768Y007935D02*
X005678Y008025D01*
X005723Y008025D01*
X005723Y008070D01*
X005678Y008070D01*
X005678Y008025D01*
X005277Y008025D02*
X005097Y008205D01*
X005097Y008250D01*
X005142Y008295D01*
X005232Y008295D01*
X005277Y008250D01*
X005277Y008025D02*
X005097Y008025D01*
X004983Y008070D02*
X004802Y008250D01*
X004802Y008070D01*
X004848Y008025D01*
X004938Y008025D01*
X004983Y008070D01*
X004983Y008250D01*
X004938Y008295D01*
X004848Y008295D01*
X004802Y008250D01*
X004688Y008205D02*
X004598Y008295D01*
X004598Y008025D01*
X004688Y008025D02*
X004508Y008025D01*
X004393Y008070D02*
X004348Y008025D01*
X004258Y008025D01*
X004213Y008070D01*
X004213Y008115D01*
X004258Y008160D01*
X004393Y008160D01*
X004393Y008070D01*
X004393Y008160D02*
X004303Y008250D01*
X004213Y008295D01*
X004954Y008820D02*
X004999Y008775D01*
X005089Y008775D01*
X005134Y008820D01*
X004954Y009000D01*
X004954Y008820D01*
X005134Y008820D02*
X005134Y009000D01*
X005089Y009045D01*
X004999Y009045D01*
X004954Y009000D01*
X005237Y008820D02*
X005237Y008775D01*
X005282Y008775D01*
X005282Y008820D01*
X005237Y008820D01*
X005396Y008775D02*
X005576Y008775D01*
X005396Y008955D01*
X005396Y009000D01*
X005441Y009045D01*
X005531Y009045D01*
X005576Y009000D01*
X005986Y008955D02*
X005986Y008730D01*
X006031Y008685D01*
X006076Y008685D01*
X006121Y008775D02*
X005986Y008775D01*
X006121Y008775D02*
X006166Y008820D01*
X006166Y008910D01*
X006121Y008955D01*
X005986Y008955D01*
X006280Y008955D02*
X006280Y008775D01*
X006415Y008775D01*
X006460Y008820D01*
X006460Y008955D01*
X006612Y009045D02*
X006612Y008775D01*
X006657Y008775D02*
X006567Y008775D01*
X006771Y008910D02*
X006816Y008865D01*
X006951Y008865D01*
X006951Y008775D02*
X006951Y009045D01*
X006816Y009045D01*
X006771Y009000D01*
X006771Y008910D01*
X006657Y009045D02*
X006612Y009045D01*
X007058Y008955D02*
X007148Y008955D01*
X007103Y009000D02*
X007103Y008820D01*
X007058Y008775D01*
X007262Y008865D02*
X007443Y008865D01*
X007443Y008820D02*
X007443Y008910D01*
X007398Y008955D01*
X007307Y008955D01*
X007262Y008910D01*
X007262Y008865D01*
X007307Y008775D02*
X007398Y008775D01*
X007443Y008820D01*
X007557Y008775D02*
X007557Y009045D01*
X007737Y009045D02*
X007557Y008775D01*
X007737Y008775D02*
X007737Y009045D01*
X007438Y008295D02*
X007438Y008025D01*
X007847Y008115D02*
X007847Y008160D01*
X007892Y008205D01*
X007982Y008205D01*
X008027Y008160D01*
X008027Y008070D01*
X007982Y008025D01*
X007892Y008025D01*
X007847Y008115D02*
X008027Y008115D01*
X008138Y008025D02*
X008273Y008115D01*
X008138Y008205D01*
X008273Y008295D02*
X008273Y008025D01*
X008387Y008025D02*
X008387Y008205D01*
X008387Y008025D02*
X008523Y008025D01*
X008568Y008070D01*
X008568Y008205D01*
X008682Y008025D02*
X008862Y008025D01*
X008862Y008295D01*
X004173Y007545D02*
X004173Y007275D01*
D11*
X005148Y001030D02*
X005375Y001030D01*
X005375Y001370D01*
X005148Y001370D01*
X005262Y001200D02*
X005375Y001200D01*
X005516Y001030D02*
X005516Y001370D01*
X005743Y001370D02*
X005516Y001030D01*
X005743Y001030D02*
X005743Y001370D01*
X005875Y001370D02*
X005989Y001370D01*
X005932Y001370D02*
X005932Y001030D01*
X005989Y001030D02*
X005875Y001030D01*
X006130Y001030D02*
X006357Y001030D01*
X006357Y001370D01*
X006880Y001257D02*
X006880Y001030D01*
X006880Y001200D02*
X007107Y001200D01*
X007107Y001257D02*
X006994Y001370D01*
X006880Y001257D01*
X007107Y001257D02*
X007107Y001030D01*
X008880Y002905D02*
X008880Y003245D01*
X009107Y003245D02*
X008880Y002905D01*
X009107Y002905D02*
X009107Y003245D01*
X017880Y001257D02*
X017880Y001030D01*
X017880Y001200D02*
X018107Y001200D01*
X018107Y001257D02*
X017994Y001370D01*
X017880Y001257D01*
X018107Y001257D02*
X018107Y001030D01*
X019880Y001030D02*
X019880Y001370D01*
X020107Y001370D02*
X019880Y001030D01*
X020107Y001030D02*
X020107Y001370D01*
X020005Y003030D02*
X020232Y003030D01*
X020232Y003370D01*
X019864Y003314D02*
X019864Y003087D01*
X019807Y003030D01*
X019694Y003030D01*
X019637Y003087D01*
X019637Y003314D01*
X019694Y003370D01*
X019807Y003370D01*
X019864Y003314D01*
X019496Y003257D02*
X019496Y003030D01*
X019496Y003200D02*
X019269Y003200D01*
X019269Y003257D02*
X019269Y003030D01*
X019127Y003030D02*
X018957Y003030D01*
X018900Y003087D01*
X018900Y003314D01*
X018957Y003370D01*
X019127Y003370D01*
X019127Y003030D01*
X019269Y003257D02*
X019382Y003370D01*
X019496Y003257D01*
D12*
X019214Y006441D02*
X018686Y006441D01*
X018686Y007559D01*
X019214Y007559D01*
X019214Y006441D01*
X018339Y006441D02*
X017811Y006441D01*
X017811Y007559D01*
X018339Y007559D01*
X018339Y006441D01*
X017464Y006441D02*
X017464Y007559D01*
X016936Y007559D01*
X016936Y006441D01*
X017464Y006441D01*
X017623Y009191D02*
X018151Y009191D01*
X018151Y010309D01*
X017623Y010309D01*
X017623Y009191D01*
X018498Y009191D02*
X019026Y009191D01*
X019026Y010309D01*
X018498Y010309D01*
X018498Y009191D01*
X019373Y009191D02*
X019901Y009191D01*
X019901Y010309D01*
X019373Y010309D01*
X019373Y009191D01*
X020248Y009191D02*
X020776Y009191D01*
X020776Y010309D01*
X020248Y010309D01*
X020248Y009191D01*
X020226Y011378D02*
X019698Y011378D01*
X019698Y012497D01*
X020226Y012497D01*
X020226Y011378D01*
X018326Y011378D02*
X018326Y012497D01*
X017798Y012497D01*
X017798Y011378D01*
X018326Y011378D01*
M02*
