G75*
%MOIN*%
%OFA0B0*%
%FSLAX24Y24*%
%IPPOS*%
%LPD*%
%AMOC8*
5,1,8,0,0,1.08239X$1,22.5*
%
%ADD10C,0.1241*%
%ADD11C,0.2165*%
%ADD12C,0.1000*%
%ADD13C,0.0560*%
%ADD14C,0.0320*%
%ADD15OC8,0.0560*%
%ADD16C,0.0560*%
%ADD17OC8,0.0690*%
%ADD18C,0.0690*%
%ADD19C,0.0920*%
%ADD20R,0.0300X0.0930*%
%ADD21R,0.0532X0.0375*%
%ADD22R,0.0308X0.0387*%
%ADD23R,0.0414X0.0375*%
%ADD24R,0.0277X0.0532*%
%ADD25R,0.0197X0.0610*%
%ADD26C,0.0112*%
%ADD27C,0.0540*%
%ADD28R,0.0690X0.0769*%
%ADD29C,0.1143*%
%ADD30C,0.0760*%
%ADD31R,0.0560X0.0639*%
%ADD32R,0.0639X0.0560*%
D10*
X001331Y001556D03*
X001331Y012723D03*
X022591Y012723D03*
X022591Y001556D03*
D11*
X001331Y001556D03*
X001331Y012723D03*
X022591Y012723D03*
X022591Y001556D03*
D12*
X011137Y002750D02*
X010887Y003000D01*
X009262Y004625D02*
X009012Y004875D01*
D13*
X015512Y001250D02*
X015887Y000875D01*
X016387Y000875D01*
D14*
X016512Y000750D02*
X016512Y001500D01*
X016137Y001500D01*
X015762Y001500D01*
X016012Y001250D01*
X016262Y001250D01*
X016262Y001375D01*
X016137Y001250D02*
X016137Y001500D01*
X015762Y001500D02*
X015387Y001500D01*
X015137Y001250D01*
X015137Y000750D01*
X016512Y000750D01*
X017262Y000750D02*
X017262Y001000D01*
X017387Y000875D01*
X018887Y000875D01*
X018887Y001000D01*
X019262Y001375D01*
X019512Y001625D01*
X019637Y001625D01*
X019637Y001125D01*
X020137Y001125D01*
X020137Y002375D01*
X019887Y002375D01*
X019887Y001250D01*
X019512Y001250D01*
X019137Y000875D01*
X018887Y000875D01*
X019387Y000875D02*
X020262Y000875D01*
X020387Y001000D01*
X020387Y002375D01*
X020262Y002500D01*
X019637Y002500D01*
X019637Y001625D01*
X020012Y001375D02*
X019262Y001375D01*
X019512Y001000D02*
X019387Y000875D01*
X019512Y001000D02*
X019512Y002625D01*
X020512Y002625D01*
X020512Y000750D01*
X017262Y000750D01*
X019887Y001250D02*
X020137Y001250D01*
X011512Y002625D02*
X011512Y002875D01*
X010512Y003875D01*
X010512Y002875D01*
X011012Y002375D01*
X011262Y002375D01*
X011512Y002625D01*
X009762Y004625D02*
X009262Y004125D01*
X008637Y004750D01*
X008637Y005000D01*
X008762Y005125D01*
X008887Y005250D01*
X009137Y005250D01*
X009762Y004625D01*
X009012Y005125D02*
X008762Y005125D01*
D15*
X007718Y012875D03*
D16*
X006931Y012875D03*
D17*
X003573Y005625D03*
X003573Y002125D03*
D18*
X004951Y002125D03*
X006494Y004875D03*
X007281Y004875D03*
X009012Y004875D03*
X009012Y006253D03*
X004951Y005625D03*
D19*
X011148Y007567D03*
X013510Y008354D03*
X015872Y007567D03*
X015872Y002764D03*
X011148Y002764D03*
X005121Y012125D03*
X003153Y012125D03*
D20*
X003825Y009905D03*
X004325Y009905D03*
X004825Y009905D03*
X005325Y009905D03*
X005325Y007845D03*
X004325Y007845D03*
X003825Y007845D03*
D21*
X008200Y008521D03*
X008200Y009229D03*
D22*
X012934Y009875D03*
X013840Y009875D03*
D23*
X013244Y010766D03*
X014070Y011140D03*
X013244Y011514D03*
D24*
X011386Y011137D03*
X010638Y011137D03*
X010638Y010113D03*
X011012Y010113D03*
X011386Y010113D03*
D25*
X017349Y011189D03*
X017605Y011189D03*
X017861Y011189D03*
X018117Y011189D03*
X018372Y011189D03*
X018628Y011189D03*
X018884Y011189D03*
X019140Y011189D03*
X019396Y011189D03*
X019652Y011189D03*
X019908Y011189D03*
X020164Y011189D03*
X020420Y011189D03*
X020676Y011189D03*
X020676Y008311D03*
X020420Y008311D03*
X020164Y008311D03*
X019908Y008311D03*
X019652Y008311D03*
X019396Y008311D03*
X019140Y008311D03*
X018884Y008311D03*
X018628Y008311D03*
X018372Y008311D03*
X018117Y008311D03*
X017861Y008311D03*
X017605Y008311D03*
X017349Y008311D03*
D26*
X017361Y007446D02*
X017361Y007184D01*
X017039Y007184D01*
X017039Y007446D01*
X017361Y007446D01*
X017361Y007295D02*
X017039Y007295D01*
X017039Y007406D02*
X017361Y007406D01*
X017914Y007446D02*
X017914Y007184D01*
X017914Y007446D02*
X018236Y007446D01*
X018236Y007184D01*
X017914Y007184D01*
X017914Y007295D02*
X018236Y007295D01*
X018236Y007406D02*
X017914Y007406D01*
X017914Y006816D02*
X017914Y006554D01*
X017914Y006816D02*
X018236Y006816D01*
X018236Y006554D01*
X017914Y006554D01*
X017914Y006665D02*
X018236Y006665D01*
X018236Y006776D02*
X017914Y006776D01*
X017361Y006816D02*
X017361Y006554D01*
X017039Y006554D01*
X017039Y006816D01*
X017361Y006816D01*
X017361Y006665D02*
X017039Y006665D01*
X017039Y006776D02*
X017361Y006776D01*
X019111Y006816D02*
X019111Y006554D01*
X018789Y006554D01*
X018789Y006816D01*
X019111Y006816D01*
X019111Y006665D02*
X018789Y006665D01*
X018789Y006776D02*
X019111Y006776D01*
X019664Y006816D02*
X019664Y006554D01*
X019664Y006816D02*
X019986Y006816D01*
X019986Y006554D01*
X019664Y006554D01*
X019664Y006665D02*
X019986Y006665D01*
X019986Y006776D02*
X019664Y006776D01*
X019664Y007184D02*
X019664Y007446D01*
X019986Y007446D01*
X019986Y007184D01*
X019664Y007184D01*
X019664Y007295D02*
X019986Y007295D01*
X019986Y007406D02*
X019664Y007406D01*
X019111Y007446D02*
X019111Y007184D01*
X018789Y007184D01*
X018789Y007446D01*
X019111Y007446D01*
X019111Y007295D02*
X018789Y007295D01*
X018789Y007406D02*
X019111Y007406D01*
X020861Y007446D02*
X020861Y007184D01*
X020539Y007184D01*
X020539Y007446D01*
X020861Y007446D01*
X020861Y007295D02*
X020539Y007295D01*
X020539Y007406D02*
X020861Y007406D01*
X020861Y006816D02*
X020861Y006554D01*
X020539Y006554D01*
X020539Y006816D01*
X020861Y006816D01*
X020861Y006665D02*
X020539Y006665D01*
X020539Y006776D02*
X020861Y006776D01*
X012423Y010179D02*
X012423Y010441D01*
X012423Y010179D02*
X012101Y010179D01*
X012101Y010441D01*
X012423Y010441D01*
X012423Y010290D02*
X012101Y010290D01*
X012101Y010401D02*
X012423Y010401D01*
X012423Y010809D02*
X012423Y011071D01*
X012423Y010809D02*
X012101Y010809D01*
X012101Y011071D01*
X012423Y011071D01*
X012423Y010920D02*
X012101Y010920D01*
X012101Y011031D02*
X012423Y011031D01*
X012446Y011839D02*
X012708Y011839D01*
X012446Y011839D02*
X012446Y012161D01*
X012708Y012161D01*
X012708Y011839D01*
X012708Y011950D02*
X012446Y011950D01*
X012446Y012061D02*
X012708Y012061D01*
X012078Y011839D02*
X011816Y011839D01*
X011816Y012161D01*
X012078Y012161D01*
X012078Y011839D01*
X012078Y011950D02*
X011816Y011950D01*
X011816Y012061D02*
X012078Y012061D01*
X010771Y012161D02*
X010509Y012161D01*
X010771Y012161D02*
X010771Y011839D01*
X010509Y011839D01*
X010509Y012161D01*
X010509Y011950D02*
X010771Y011950D01*
X010771Y012061D02*
X010509Y012061D01*
X010141Y012161D02*
X009879Y012161D01*
X010141Y012161D02*
X010141Y011839D01*
X009879Y011839D01*
X009879Y012161D01*
X009879Y011950D02*
X010141Y011950D01*
X010141Y012061D02*
X009879Y012061D01*
X007164Y009321D02*
X007164Y009059D01*
X007164Y009321D02*
X007486Y009321D01*
X007486Y009059D01*
X007164Y009059D01*
X007164Y009170D02*
X007486Y009170D01*
X007486Y009281D02*
X007164Y009281D01*
X006226Y009321D02*
X006226Y009059D01*
X006226Y009321D02*
X006548Y009321D01*
X006548Y009059D01*
X006226Y009059D01*
X006226Y009170D02*
X006548Y009170D01*
X006548Y009281D02*
X006226Y009281D01*
X006226Y008691D02*
X006226Y008429D01*
X006226Y008691D02*
X006548Y008691D01*
X006548Y008429D01*
X006226Y008429D01*
X006226Y008540D02*
X006548Y008540D01*
X006548Y008651D02*
X006226Y008651D01*
X007164Y008691D02*
X007164Y008429D01*
X007164Y008691D02*
X007486Y008691D01*
X007486Y008429D01*
X007164Y008429D01*
X007164Y008540D02*
X007486Y008540D01*
X007486Y008651D02*
X007164Y008651D01*
X003236Y008691D02*
X003236Y008429D01*
X002914Y008429D01*
X002914Y008691D01*
X003236Y008691D01*
X003236Y008540D02*
X002914Y008540D01*
X002914Y008651D02*
X003236Y008651D01*
X003236Y009059D02*
X003236Y009321D01*
X003236Y009059D02*
X002914Y009059D01*
X002914Y009321D01*
X003236Y009321D01*
X003236Y009170D02*
X002914Y009170D01*
X002914Y009281D02*
X003236Y009281D01*
D27*
X018062Y012875D03*
X019962Y012875D03*
D28*
X019586Y004875D03*
X018501Y004875D03*
X017399Y004875D03*
X020688Y004875D03*
D29*
X020012Y002125D03*
X018012Y002125D03*
X009012Y002125D03*
X007012Y002125D03*
D30*
X015512Y001000D03*
X014961Y013250D03*
X013961Y013250D03*
X012961Y013250D03*
X011961Y013250D03*
X010961Y013250D03*
X009961Y013250D03*
X008961Y013250D03*
D31*
X008166Y010875D03*
X009859Y010875D03*
X008109Y006625D03*
X006416Y006625D03*
D32*
X006387Y010029D03*
X006387Y011721D03*
M02*
