G75*
%MOIN*%
%OFA0B0*%
%FSLAX24Y24*%
%IPPOS*%
%LPD*%
%AMOC8*
5,1,8,0,0,1.08239X$1,22.5*
%
%ADD10C,0.0000*%
%ADD11OC8,0.0500*%
%ADD12C,0.0500*%
%ADD13OC8,0.0630*%
%ADD14C,0.0630*%
%ADD15C,0.0860*%
%ADD16R,0.0240X0.0870*%
%ADD17R,0.0472X0.0315*%
%ADD18R,0.0248X0.0327*%
%ADD19R,0.0354X0.0315*%
%ADD20R,0.0217X0.0472*%
%ADD21R,0.0137X0.0550*%
%ADD22C,0.0094*%
%ADD23C,0.0480*%
%ADD24R,0.0630X0.0709*%
%ADD25C,0.1083*%
%ADD26C,0.0700*%
%ADD27R,0.0500X0.0579*%
%ADD28R,0.0579X0.0500*%
%ADD29C,0.0500*%
%ADD30C,0.0400*%
%ADD31C,0.0450*%
%ADD32C,0.0200*%
%ADD33C,0.0160*%
%ADD34C,0.0100*%
%ADD35C,0.0270*%
%ADD36C,0.0120*%
%ADD37C,0.0240*%
%ADD38C,0.0350*%
%ADD39C,0.0600*%
%ADD40C,0.0660*%
%ADD41C,0.1000*%
%ADD42C,0.0320*%
%ADD43C,0.0700*%
D10*
X001331Y000375D02*
X022591Y000375D01*
X023772Y001556D02*
X023770Y001622D01*
X023765Y001688D01*
X023755Y001754D01*
X023742Y001819D01*
X023726Y001883D01*
X023706Y001946D01*
X023682Y002008D01*
X023655Y002068D01*
X023625Y002127D01*
X023591Y002184D01*
X023554Y002239D01*
X023514Y002292D01*
X023472Y002343D01*
X023426Y002391D01*
X023378Y002437D01*
X023327Y002479D01*
X023274Y002519D01*
X023219Y002556D01*
X023162Y002590D01*
X023103Y002620D01*
X023043Y002647D01*
X022981Y002671D01*
X022918Y002691D01*
X022854Y002707D01*
X022789Y002720D01*
X022723Y002730D01*
X022657Y002735D01*
X022591Y002737D01*
X023772Y001556D02*
X023770Y001490D01*
X023765Y001424D01*
X023755Y001358D01*
X023742Y001293D01*
X023726Y001229D01*
X023706Y001166D01*
X023682Y001104D01*
X023655Y001044D01*
X023625Y000985D01*
X023591Y000928D01*
X023554Y000873D01*
X023514Y000820D01*
X023472Y000769D01*
X023426Y000721D01*
X023378Y000675D01*
X023327Y000633D01*
X023274Y000593D01*
X023219Y000556D01*
X023162Y000522D01*
X023103Y000492D01*
X023043Y000465D01*
X022981Y000441D01*
X022918Y000421D01*
X022854Y000405D01*
X022789Y000392D01*
X022723Y000382D01*
X022657Y000377D01*
X022591Y000375D01*
X022000Y001556D02*
X022002Y001604D01*
X022008Y001652D01*
X022018Y001699D01*
X022031Y001745D01*
X022049Y001790D01*
X022069Y001834D01*
X022094Y001876D01*
X022122Y001915D01*
X022152Y001952D01*
X022186Y001986D01*
X022223Y002018D01*
X022261Y002047D01*
X022302Y002072D01*
X022345Y002094D01*
X022390Y002112D01*
X022436Y002126D01*
X022483Y002137D01*
X022531Y002144D01*
X022579Y002147D01*
X022627Y002146D01*
X022675Y002141D01*
X022723Y002132D01*
X022769Y002120D01*
X022814Y002103D01*
X022858Y002083D01*
X022900Y002060D01*
X022940Y002033D01*
X022978Y002003D01*
X023013Y001970D01*
X023045Y001934D01*
X023075Y001896D01*
X023101Y001855D01*
X023123Y001812D01*
X023143Y001768D01*
X023158Y001723D01*
X023170Y001676D01*
X023178Y001628D01*
X023182Y001580D01*
X023182Y001532D01*
X023178Y001484D01*
X023170Y001436D01*
X023158Y001389D01*
X023143Y001344D01*
X023123Y001300D01*
X023101Y001257D01*
X023075Y001216D01*
X023045Y001178D01*
X023013Y001142D01*
X022978Y001109D01*
X022940Y001079D01*
X022900Y001052D01*
X022858Y001029D01*
X022814Y001009D01*
X022769Y000992D01*
X022723Y000980D01*
X022675Y000971D01*
X022627Y000966D01*
X022579Y000965D01*
X022531Y000968D01*
X022483Y000975D01*
X022436Y000986D01*
X022390Y001000D01*
X022345Y001018D01*
X022302Y001040D01*
X022261Y001065D01*
X022223Y001094D01*
X022186Y001126D01*
X022152Y001160D01*
X022122Y001197D01*
X022094Y001236D01*
X022069Y001278D01*
X022049Y001322D01*
X022031Y001367D01*
X022018Y001413D01*
X022008Y001460D01*
X022002Y001508D01*
X022000Y001556D01*
X021410Y003918D02*
X021410Y010361D01*
X021412Y010427D01*
X021417Y010493D01*
X021427Y010559D01*
X021440Y010624D01*
X021456Y010688D01*
X021476Y010751D01*
X021500Y010813D01*
X021527Y010873D01*
X021557Y010932D01*
X021591Y010989D01*
X021628Y011044D01*
X021668Y011097D01*
X021710Y011148D01*
X021756Y011196D01*
X021804Y011242D01*
X021855Y011284D01*
X021908Y011324D01*
X021963Y011361D01*
X022020Y011395D01*
X022079Y011425D01*
X022139Y011452D01*
X022201Y011476D01*
X022264Y011496D01*
X022328Y011512D01*
X022393Y011525D01*
X022459Y011535D01*
X022525Y011540D01*
X022591Y011542D01*
X022657Y011544D01*
X022723Y011549D01*
X022789Y011559D01*
X022854Y011572D01*
X022918Y011588D01*
X022981Y011608D01*
X023043Y011632D01*
X023103Y011659D01*
X023162Y011689D01*
X023219Y011723D01*
X023274Y011760D01*
X023327Y011800D01*
X023378Y011842D01*
X023426Y011888D01*
X023472Y011936D01*
X023514Y011987D01*
X023554Y012040D01*
X023591Y012095D01*
X023625Y012152D01*
X023655Y012211D01*
X023682Y012271D01*
X023706Y012333D01*
X023726Y012396D01*
X023742Y012460D01*
X023755Y012525D01*
X023765Y012591D01*
X023770Y012657D01*
X023772Y012723D01*
X023770Y012789D01*
X023765Y012855D01*
X023755Y012921D01*
X023742Y012986D01*
X023726Y013050D01*
X023706Y013113D01*
X023682Y013175D01*
X023655Y013235D01*
X023625Y013294D01*
X023591Y013351D01*
X023554Y013406D01*
X023514Y013459D01*
X023472Y013510D01*
X023426Y013558D01*
X023378Y013604D01*
X023327Y013646D01*
X023274Y013686D01*
X023219Y013723D01*
X023162Y013757D01*
X023103Y013787D01*
X023043Y013814D01*
X022981Y013838D01*
X022918Y013858D01*
X022854Y013874D01*
X022789Y013887D01*
X022723Y013897D01*
X022657Y013902D01*
X022591Y013904D01*
X022591Y013905D02*
X001331Y013905D01*
X000740Y012723D02*
X000742Y012771D01*
X000748Y012819D01*
X000758Y012866D01*
X000771Y012912D01*
X000789Y012957D01*
X000809Y013001D01*
X000834Y013043D01*
X000862Y013082D01*
X000892Y013119D01*
X000926Y013153D01*
X000963Y013185D01*
X001001Y013214D01*
X001042Y013239D01*
X001085Y013261D01*
X001130Y013279D01*
X001176Y013293D01*
X001223Y013304D01*
X001271Y013311D01*
X001319Y013314D01*
X001367Y013313D01*
X001415Y013308D01*
X001463Y013299D01*
X001509Y013287D01*
X001554Y013270D01*
X001598Y013250D01*
X001640Y013227D01*
X001680Y013200D01*
X001718Y013170D01*
X001753Y013137D01*
X001785Y013101D01*
X001815Y013063D01*
X001841Y013022D01*
X001863Y012979D01*
X001883Y012935D01*
X001898Y012890D01*
X001910Y012843D01*
X001918Y012795D01*
X001922Y012747D01*
X001922Y012699D01*
X001918Y012651D01*
X001910Y012603D01*
X001898Y012556D01*
X001883Y012511D01*
X001863Y012467D01*
X001841Y012424D01*
X001815Y012383D01*
X001785Y012345D01*
X001753Y012309D01*
X001718Y012276D01*
X001680Y012246D01*
X001640Y012219D01*
X001598Y012196D01*
X001554Y012176D01*
X001509Y012159D01*
X001463Y012147D01*
X001415Y012138D01*
X001367Y012133D01*
X001319Y012132D01*
X001271Y012135D01*
X001223Y012142D01*
X001176Y012153D01*
X001130Y012167D01*
X001085Y012185D01*
X001042Y012207D01*
X001001Y012232D01*
X000963Y012261D01*
X000926Y012293D01*
X000892Y012327D01*
X000862Y012364D01*
X000834Y012403D01*
X000809Y012445D01*
X000789Y012489D01*
X000771Y012534D01*
X000758Y012580D01*
X000748Y012627D01*
X000742Y012675D01*
X000740Y012723D01*
X000150Y012723D02*
X000152Y012789D01*
X000157Y012855D01*
X000167Y012921D01*
X000180Y012986D01*
X000196Y013050D01*
X000216Y013113D01*
X000240Y013175D01*
X000267Y013235D01*
X000297Y013294D01*
X000331Y013351D01*
X000368Y013406D01*
X000408Y013459D01*
X000450Y013510D01*
X000496Y013558D01*
X000544Y013604D01*
X000595Y013646D01*
X000648Y013686D01*
X000703Y013723D01*
X000760Y013757D01*
X000819Y013787D01*
X000879Y013814D01*
X000941Y013838D01*
X001004Y013858D01*
X001068Y013874D01*
X001133Y013887D01*
X001199Y013897D01*
X001265Y013902D01*
X001331Y013904D01*
X000150Y012723D02*
X000152Y012657D01*
X000157Y012591D01*
X000167Y012525D01*
X000180Y012460D01*
X000196Y012396D01*
X000216Y012333D01*
X000240Y012271D01*
X000267Y012211D01*
X000297Y012152D01*
X000331Y012095D01*
X000368Y012040D01*
X000408Y011987D01*
X000450Y011936D01*
X000496Y011888D01*
X000544Y011842D01*
X000595Y011800D01*
X000648Y011760D01*
X000703Y011723D01*
X000760Y011689D01*
X000819Y011659D01*
X000879Y011632D01*
X000941Y011608D01*
X001004Y011588D01*
X001068Y011572D01*
X001133Y011559D01*
X001199Y011549D01*
X001265Y011544D01*
X001331Y011542D01*
X001397Y011540D01*
X001463Y011535D01*
X001529Y011525D01*
X001594Y011512D01*
X001658Y011496D01*
X001721Y011476D01*
X001783Y011452D01*
X001843Y011425D01*
X001902Y011395D01*
X001959Y011361D01*
X002014Y011324D01*
X002067Y011284D01*
X002118Y011242D01*
X002166Y011196D01*
X002212Y011148D01*
X002254Y011097D01*
X002294Y011044D01*
X002331Y010989D01*
X002365Y010932D01*
X002395Y010873D01*
X002422Y010813D01*
X002446Y010751D01*
X002466Y010688D01*
X002482Y010624D01*
X002495Y010559D01*
X002505Y010493D01*
X002510Y010427D01*
X002512Y010361D01*
X002512Y003918D01*
X002510Y003852D01*
X002505Y003786D01*
X002495Y003720D01*
X002482Y003655D01*
X002466Y003591D01*
X002446Y003528D01*
X002422Y003466D01*
X002395Y003406D01*
X002365Y003347D01*
X002331Y003290D01*
X002294Y003235D01*
X002254Y003182D01*
X002212Y003131D01*
X002166Y003083D01*
X002118Y003037D01*
X002067Y002995D01*
X002014Y002955D01*
X001959Y002918D01*
X001902Y002884D01*
X001843Y002854D01*
X001783Y002827D01*
X001721Y002803D01*
X001658Y002783D01*
X001594Y002767D01*
X001529Y002754D01*
X001463Y002744D01*
X001397Y002739D01*
X001331Y002737D01*
X001265Y002735D01*
X001199Y002730D01*
X001133Y002720D01*
X001068Y002707D01*
X001004Y002691D01*
X000941Y002671D01*
X000879Y002647D01*
X000819Y002620D01*
X000760Y002590D01*
X000703Y002556D01*
X000648Y002519D01*
X000595Y002479D01*
X000544Y002437D01*
X000496Y002391D01*
X000450Y002343D01*
X000408Y002292D01*
X000368Y002239D01*
X000331Y002184D01*
X000297Y002127D01*
X000267Y002068D01*
X000240Y002008D01*
X000216Y001946D01*
X000196Y001883D01*
X000180Y001819D01*
X000167Y001754D01*
X000157Y001688D01*
X000152Y001622D01*
X000150Y001556D01*
X000152Y001490D01*
X000157Y001424D01*
X000167Y001358D01*
X000180Y001293D01*
X000196Y001229D01*
X000216Y001166D01*
X000240Y001104D01*
X000267Y001044D01*
X000297Y000985D01*
X000331Y000928D01*
X000368Y000873D01*
X000408Y000820D01*
X000450Y000769D01*
X000496Y000721D01*
X000544Y000675D01*
X000595Y000633D01*
X000648Y000593D01*
X000703Y000556D01*
X000760Y000522D01*
X000819Y000492D01*
X000879Y000465D01*
X000941Y000441D01*
X001004Y000421D01*
X001068Y000405D01*
X001133Y000392D01*
X001199Y000382D01*
X001265Y000377D01*
X001331Y000375D01*
X000740Y001556D02*
X000742Y001604D01*
X000748Y001652D01*
X000758Y001699D01*
X000771Y001745D01*
X000789Y001790D01*
X000809Y001834D01*
X000834Y001876D01*
X000862Y001915D01*
X000892Y001952D01*
X000926Y001986D01*
X000963Y002018D01*
X001001Y002047D01*
X001042Y002072D01*
X001085Y002094D01*
X001130Y002112D01*
X001176Y002126D01*
X001223Y002137D01*
X001271Y002144D01*
X001319Y002147D01*
X001367Y002146D01*
X001415Y002141D01*
X001463Y002132D01*
X001509Y002120D01*
X001554Y002103D01*
X001598Y002083D01*
X001640Y002060D01*
X001680Y002033D01*
X001718Y002003D01*
X001753Y001970D01*
X001785Y001934D01*
X001815Y001896D01*
X001841Y001855D01*
X001863Y001812D01*
X001883Y001768D01*
X001898Y001723D01*
X001910Y001676D01*
X001918Y001628D01*
X001922Y001580D01*
X001922Y001532D01*
X001918Y001484D01*
X001910Y001436D01*
X001898Y001389D01*
X001883Y001344D01*
X001863Y001300D01*
X001841Y001257D01*
X001815Y001216D01*
X001785Y001178D01*
X001753Y001142D01*
X001718Y001109D01*
X001680Y001079D01*
X001640Y001052D01*
X001598Y001029D01*
X001554Y001009D01*
X001509Y000992D01*
X001463Y000980D01*
X001415Y000971D01*
X001367Y000966D01*
X001319Y000965D01*
X001271Y000968D01*
X001223Y000975D01*
X001176Y000986D01*
X001130Y001000D01*
X001085Y001018D01*
X001042Y001040D01*
X001001Y001065D01*
X000963Y001094D01*
X000926Y001126D01*
X000892Y001160D01*
X000862Y001197D01*
X000834Y001236D01*
X000809Y001278D01*
X000789Y001322D01*
X000771Y001367D01*
X000758Y001413D01*
X000748Y001460D01*
X000742Y001508D01*
X000740Y001556D01*
X021410Y003918D02*
X021412Y003852D01*
X021417Y003786D01*
X021427Y003720D01*
X021440Y003655D01*
X021456Y003591D01*
X021476Y003528D01*
X021500Y003466D01*
X021527Y003406D01*
X021557Y003347D01*
X021591Y003290D01*
X021628Y003235D01*
X021668Y003182D01*
X021710Y003131D01*
X021756Y003083D01*
X021804Y003037D01*
X021855Y002995D01*
X021908Y002955D01*
X021963Y002918D01*
X022020Y002884D01*
X022079Y002854D01*
X022139Y002827D01*
X022201Y002803D01*
X022264Y002783D01*
X022328Y002767D01*
X022393Y002754D01*
X022459Y002744D01*
X022525Y002739D01*
X022591Y002737D01*
X022000Y012723D02*
X022002Y012771D01*
X022008Y012819D01*
X022018Y012866D01*
X022031Y012912D01*
X022049Y012957D01*
X022069Y013001D01*
X022094Y013043D01*
X022122Y013082D01*
X022152Y013119D01*
X022186Y013153D01*
X022223Y013185D01*
X022261Y013214D01*
X022302Y013239D01*
X022345Y013261D01*
X022390Y013279D01*
X022436Y013293D01*
X022483Y013304D01*
X022531Y013311D01*
X022579Y013314D01*
X022627Y013313D01*
X022675Y013308D01*
X022723Y013299D01*
X022769Y013287D01*
X022814Y013270D01*
X022858Y013250D01*
X022900Y013227D01*
X022940Y013200D01*
X022978Y013170D01*
X023013Y013137D01*
X023045Y013101D01*
X023075Y013063D01*
X023101Y013022D01*
X023123Y012979D01*
X023143Y012935D01*
X023158Y012890D01*
X023170Y012843D01*
X023178Y012795D01*
X023182Y012747D01*
X023182Y012699D01*
X023178Y012651D01*
X023170Y012603D01*
X023158Y012556D01*
X023143Y012511D01*
X023123Y012467D01*
X023101Y012424D01*
X023075Y012383D01*
X023045Y012345D01*
X023013Y012309D01*
X022978Y012276D01*
X022940Y012246D01*
X022900Y012219D01*
X022858Y012196D01*
X022814Y012176D01*
X022769Y012159D01*
X022723Y012147D01*
X022675Y012138D01*
X022627Y012133D01*
X022579Y012132D01*
X022531Y012135D01*
X022483Y012142D01*
X022436Y012153D01*
X022390Y012167D01*
X022345Y012185D01*
X022302Y012207D01*
X022261Y012232D01*
X022223Y012261D01*
X022186Y012293D01*
X022152Y012327D01*
X022122Y012364D01*
X022094Y012403D01*
X022069Y012445D01*
X022049Y012489D01*
X022031Y012534D01*
X022018Y012580D01*
X022008Y012627D01*
X022002Y012675D01*
X022000Y012723D01*
D11*
X007718Y012875D03*
D12*
X006931Y012875D03*
D13*
X003573Y005625D03*
X003573Y002125D03*
D14*
X004951Y002125D03*
X006494Y004875D03*
X007281Y004875D03*
X009012Y004875D03*
X009012Y006253D03*
X004951Y005625D03*
D15*
X011148Y007567D03*
X013510Y008354D03*
X015872Y007567D03*
X015872Y002764D03*
X011148Y002764D03*
X005121Y012125D03*
X003153Y012125D03*
D16*
X003825Y009905D03*
X004325Y009905D03*
X004825Y009905D03*
X005325Y009905D03*
X005325Y007845D03*
X004325Y007845D03*
X003825Y007845D03*
D17*
X008200Y008521D03*
X008200Y009229D03*
D18*
X012934Y009875D03*
X013840Y009875D03*
D19*
X013244Y010766D03*
X014070Y011140D03*
X013244Y011514D03*
D20*
X011386Y011137D03*
X010638Y011137D03*
X010638Y010113D03*
X011012Y010113D03*
X011386Y010113D03*
D21*
X017349Y011189D03*
X017605Y011189D03*
X017861Y011189D03*
X018117Y011189D03*
X018372Y011189D03*
X018628Y011189D03*
X018884Y011189D03*
X019140Y011189D03*
X019396Y011189D03*
X019652Y011189D03*
X019908Y011189D03*
X020164Y011189D03*
X020420Y011189D03*
X020676Y011189D03*
X020676Y008311D03*
X020420Y008311D03*
X020164Y008311D03*
X019908Y008311D03*
X019652Y008311D03*
X019396Y008311D03*
X019140Y008311D03*
X018884Y008311D03*
X018628Y008311D03*
X018372Y008311D03*
X018117Y008311D03*
X017861Y008311D03*
X017605Y008311D03*
X017349Y008311D03*
D22*
X017340Y007425D02*
X017340Y007205D01*
X017060Y007205D01*
X017060Y007425D01*
X017340Y007425D01*
X017340Y007298D02*
X017060Y007298D01*
X017060Y007391D02*
X017340Y007391D01*
X017935Y007425D02*
X017935Y007205D01*
X017935Y007425D02*
X018215Y007425D01*
X018215Y007205D01*
X017935Y007205D01*
X017935Y007298D02*
X018215Y007298D01*
X018215Y007391D02*
X017935Y007391D01*
X019090Y007425D02*
X019090Y007205D01*
X018810Y007205D01*
X018810Y007425D01*
X019090Y007425D01*
X019090Y007298D02*
X018810Y007298D01*
X018810Y007391D02*
X019090Y007391D01*
X019685Y007425D02*
X019685Y007205D01*
X019685Y007425D02*
X019965Y007425D01*
X019965Y007205D01*
X019685Y007205D01*
X019685Y007298D02*
X019965Y007298D01*
X019965Y007391D02*
X019685Y007391D01*
X020840Y007425D02*
X020840Y007205D01*
X020560Y007205D01*
X020560Y007425D01*
X020840Y007425D01*
X020840Y007298D02*
X020560Y007298D01*
X020560Y007391D02*
X020840Y007391D01*
X020840Y006795D02*
X020840Y006575D01*
X020560Y006575D01*
X020560Y006795D01*
X020840Y006795D01*
X020840Y006668D02*
X020560Y006668D01*
X020560Y006761D02*
X020840Y006761D01*
X019685Y006795D02*
X019685Y006575D01*
X019685Y006795D02*
X019965Y006795D01*
X019965Y006575D01*
X019685Y006575D01*
X019685Y006668D02*
X019965Y006668D01*
X019965Y006761D02*
X019685Y006761D01*
X019090Y006795D02*
X019090Y006575D01*
X018810Y006575D01*
X018810Y006795D01*
X019090Y006795D01*
X019090Y006668D02*
X018810Y006668D01*
X018810Y006761D02*
X019090Y006761D01*
X017935Y006795D02*
X017935Y006575D01*
X017935Y006795D02*
X018215Y006795D01*
X018215Y006575D01*
X017935Y006575D01*
X017935Y006668D02*
X018215Y006668D01*
X018215Y006761D02*
X017935Y006761D01*
X017340Y006795D02*
X017340Y006575D01*
X017060Y006575D01*
X017060Y006795D01*
X017340Y006795D01*
X017340Y006668D02*
X017060Y006668D01*
X017060Y006761D02*
X017340Y006761D01*
X012402Y010200D02*
X012402Y010420D01*
X012402Y010200D02*
X012122Y010200D01*
X012122Y010420D01*
X012402Y010420D01*
X012402Y010293D02*
X012122Y010293D01*
X012122Y010386D02*
X012402Y010386D01*
X012402Y010830D02*
X012402Y011050D01*
X012402Y010830D02*
X012122Y010830D01*
X012122Y011050D01*
X012402Y011050D01*
X012402Y010923D02*
X012122Y010923D01*
X012122Y011016D02*
X012402Y011016D01*
X012467Y011860D02*
X012687Y011860D01*
X012467Y011860D02*
X012467Y012140D01*
X012687Y012140D01*
X012687Y011860D01*
X012687Y011953D02*
X012467Y011953D01*
X012467Y012046D02*
X012687Y012046D01*
X012687Y012139D02*
X012467Y012139D01*
X012057Y011860D02*
X011837Y011860D01*
X011837Y012140D01*
X012057Y012140D01*
X012057Y011860D01*
X012057Y011953D02*
X011837Y011953D01*
X011837Y012046D02*
X012057Y012046D01*
X012057Y012139D02*
X011837Y012139D01*
X010750Y012140D02*
X010530Y012140D01*
X010750Y012140D02*
X010750Y011860D01*
X010530Y011860D01*
X010530Y012140D01*
X010530Y011953D02*
X010750Y011953D01*
X010750Y012046D02*
X010530Y012046D01*
X010530Y012139D02*
X010750Y012139D01*
X010120Y012140D02*
X009900Y012140D01*
X010120Y012140D02*
X010120Y011860D01*
X009900Y011860D01*
X009900Y012140D01*
X009900Y011953D02*
X010120Y011953D01*
X010120Y012046D02*
X009900Y012046D01*
X009900Y012139D02*
X010120Y012139D01*
X007185Y009300D02*
X007185Y009080D01*
X007185Y009300D02*
X007465Y009300D01*
X007465Y009080D01*
X007185Y009080D01*
X007185Y009173D02*
X007465Y009173D01*
X007465Y009266D02*
X007185Y009266D01*
X006247Y009300D02*
X006247Y009080D01*
X006247Y009300D02*
X006527Y009300D01*
X006527Y009080D01*
X006247Y009080D01*
X006247Y009173D02*
X006527Y009173D01*
X006527Y009266D02*
X006247Y009266D01*
X006247Y008670D02*
X006247Y008450D01*
X006247Y008670D02*
X006527Y008670D01*
X006527Y008450D01*
X006247Y008450D01*
X006247Y008543D02*
X006527Y008543D01*
X006527Y008636D02*
X006247Y008636D01*
X007185Y008670D02*
X007185Y008450D01*
X007185Y008670D02*
X007465Y008670D01*
X007465Y008450D01*
X007185Y008450D01*
X007185Y008543D02*
X007465Y008543D01*
X007465Y008636D02*
X007185Y008636D01*
X003215Y008670D02*
X003215Y008450D01*
X002935Y008450D01*
X002935Y008670D01*
X003215Y008670D01*
X003215Y008543D02*
X002935Y008543D01*
X002935Y008636D02*
X003215Y008636D01*
X003215Y009080D02*
X003215Y009300D01*
X003215Y009080D02*
X002935Y009080D01*
X002935Y009300D01*
X003215Y009300D01*
X003215Y009173D02*
X002935Y009173D01*
X002935Y009266D02*
X003215Y009266D01*
D23*
X018062Y012875D03*
X019962Y012875D03*
D24*
X019586Y004875D03*
X018501Y004875D03*
X017399Y004875D03*
X020688Y004875D03*
D25*
X020012Y002125D03*
X018012Y002125D03*
X009012Y002125D03*
X007012Y002125D03*
D26*
X015512Y001000D03*
X014961Y013250D03*
X013961Y013250D03*
X012961Y013250D03*
X011961Y013250D03*
X010961Y013250D03*
X009961Y013250D03*
X008961Y013250D03*
D27*
X008166Y010875D03*
X009859Y010875D03*
X008109Y006625D03*
X006416Y006625D03*
D28*
X006387Y010029D03*
X006387Y011721D03*
D29*
X008109Y006625D02*
X008640Y006625D01*
X009012Y006253D01*
X009012Y004875D02*
X009037Y004875D01*
X009012Y000875D02*
X004137Y000875D01*
D30*
X004951Y002125D02*
X007281Y004455D01*
X007281Y004875D01*
D31*
X007281Y005294D01*
X006416Y006159D01*
X006416Y006625D01*
D32*
X005325Y006813D02*
X004951Y006439D01*
X004951Y005625D01*
X005325Y006813D02*
X005325Y007845D01*
D33*
X004325Y007845D02*
X004325Y008500D01*
X003825Y007845D02*
X003292Y007845D01*
X003075Y008063D01*
X003075Y008560D01*
X006387Y008560D02*
X006387Y008188D01*
X006387Y008560D02*
X007325Y008560D01*
X008200Y008521D02*
X008200Y008125D01*
X007325Y009190D02*
X007325Y010029D01*
X006387Y010029D01*
X010638Y010113D02*
X010638Y009749D01*
X011012Y009375D01*
X011386Y009749D01*
X011386Y010113D01*
X011625Y010113D01*
X011822Y010310D01*
X012262Y010310D01*
X012697Y009875D01*
X012934Y009875D01*
X013840Y009875D02*
X013840Y010328D01*
X014070Y010558D01*
X014070Y011140D01*
X013244Y011514D02*
X012748Y011514D01*
X012577Y011685D01*
X012577Y012000D01*
X012577Y012634D01*
X011961Y013250D01*
X010961Y013250D02*
X010961Y012551D01*
X011086Y012426D01*
X011086Y012000D01*
X010640Y012000D01*
X010638Y011939D01*
X010638Y011137D01*
X011012Y009375D02*
X011012Y008500D01*
X011148Y008364D01*
X011148Y007567D01*
X012137Y006250D02*
X017200Y006250D01*
X017512Y005875D02*
X018075Y006438D01*
X018075Y006685D01*
X018950Y006685D02*
X019825Y006685D01*
X020700Y006685D01*
X020700Y007315D02*
X019825Y007315D01*
X018950Y007315D02*
X018075Y007315D01*
X017200Y007315D02*
X017200Y007750D01*
X015872Y007567D02*
X015872Y009515D01*
X015512Y009875D01*
X013840Y009875D01*
X011762Y005875D02*
X017512Y005875D01*
X017399Y004875D02*
X017387Y004875D01*
X020751Y004938D02*
X020751Y005500D01*
D34*
X021210Y006375D02*
X017456Y006375D01*
X017441Y006411D01*
X017361Y006492D01*
X017256Y006535D01*
X017143Y006535D01*
X017038Y006492D01*
X017027Y006480D01*
X015887Y006480D01*
X015887Y006987D01*
X015988Y006987D01*
X016201Y007075D01*
X016364Y007238D01*
X016452Y007452D01*
X016452Y007682D01*
X016364Y007895D01*
X016201Y008059D01*
X016102Y008099D01*
X016102Y009610D01*
X015742Y009970D01*
X015607Y010105D01*
X014109Y010105D01*
X014070Y010145D01*
X014070Y010232D01*
X014300Y010463D01*
X014300Y010833D01*
X014310Y010833D01*
X014397Y010921D01*
X014397Y011360D01*
X014310Y011448D01*
X013831Y011448D01*
X013743Y011360D01*
X013743Y010921D01*
X013831Y010833D01*
X013840Y010833D01*
X013840Y010653D01*
X013745Y010558D01*
X013610Y010423D01*
X013610Y010145D01*
X013566Y010101D01*
X013566Y009649D01*
X013590Y009625D01*
X013184Y009625D01*
X013208Y009649D01*
X013208Y010101D01*
X013121Y010188D01*
X012748Y010188D01*
X012729Y010169D01*
X012599Y010298D01*
X012599Y010502D01*
X012484Y010618D01*
X012041Y010618D01*
X011963Y010540D01*
X011727Y010540D01*
X011621Y010435D01*
X011557Y010499D01*
X011216Y010499D01*
X011128Y010412D01*
X011128Y009816D01*
X011012Y009700D01*
X010896Y009816D01*
X010896Y010412D01*
X010809Y010499D01*
X010468Y010499D01*
X010380Y010412D01*
X010380Y009815D01*
X010408Y009787D01*
X010408Y009654D01*
X010437Y009625D01*
X009387Y009625D01*
X009387Y012972D01*
X009461Y013151D01*
X009461Y013349D01*
X009387Y013528D01*
X009387Y013705D01*
X010752Y013705D01*
X010678Y013674D01*
X010537Y013533D01*
X010461Y013349D01*
X010461Y013151D01*
X010537Y012967D01*
X010678Y012826D01*
X010731Y012804D01*
X010731Y012456D01*
X010856Y012331D01*
X010856Y012313D01*
X010832Y012337D01*
X010448Y012337D01*
X010332Y012221D01*
X010332Y011779D01*
X010408Y011703D01*
X010408Y011463D01*
X010380Y011435D01*
X010380Y010838D01*
X010468Y010751D01*
X010809Y010751D01*
X010896Y010838D01*
X010896Y011435D01*
X010868Y011463D01*
X010868Y011700D01*
X010926Y011758D01*
X011029Y011715D01*
X011143Y011715D01*
X011247Y011758D01*
X011328Y011839D01*
X011371Y011943D01*
X011371Y012057D01*
X011328Y012161D01*
X011316Y012173D01*
X011316Y012521D01*
X011191Y012646D01*
X011191Y012804D01*
X011244Y012826D01*
X011385Y012967D01*
X011461Y013151D01*
X011537Y012967D01*
X011678Y012826D01*
X011862Y012750D01*
X012060Y012750D01*
X012114Y012772D01*
X012347Y012539D01*
X012347Y012299D01*
X012270Y012221D01*
X012270Y011779D01*
X012347Y011701D01*
X012347Y011590D01*
X012653Y011284D01*
X012927Y011284D01*
X013004Y011207D01*
X013483Y011207D01*
X013571Y011295D01*
X013571Y011734D01*
X013483Y011822D01*
X013004Y011822D01*
X012927Y011744D01*
X012850Y011744D01*
X012885Y011779D01*
X012885Y012221D01*
X012807Y012299D01*
X012807Y012729D01*
X012733Y012803D01*
X012862Y012750D01*
X013060Y012750D01*
X013134Y012780D01*
X013874Y012040D01*
X016800Y012040D01*
X017226Y011614D01*
X017218Y011614D01*
X017130Y011527D01*
X017130Y010852D01*
X017139Y010844D01*
X017139Y010731D01*
X017107Y010700D01*
X017064Y010595D01*
X017064Y010482D01*
X017107Y010377D01*
X017187Y010297D01*
X017292Y010253D01*
X017337Y010253D01*
X017651Y009940D01*
X017651Y008656D01*
X017642Y008648D01*
X017642Y007973D01*
X017730Y007886D01*
X017822Y007886D01*
X017790Y007807D01*
X017790Y007693D01*
X017829Y007598D01*
X017738Y007507D01*
X017738Y007123D01*
X017853Y007007D01*
X018296Y007007D01*
X018374Y007085D01*
X018651Y007085D01*
X018728Y007007D01*
X019171Y007007D01*
X019287Y007123D01*
X019287Y007507D01*
X019191Y007603D01*
X019583Y007603D01*
X019488Y007507D01*
X019488Y007123D01*
X019603Y007007D01*
X020046Y007007D01*
X020124Y007085D01*
X020401Y007085D01*
X020478Y007007D01*
X020921Y007007D01*
X021037Y007123D01*
X021037Y007507D01*
X020921Y007622D01*
X020910Y007622D01*
X020910Y007712D01*
X020787Y007835D01*
X020638Y007984D01*
X020638Y008613D01*
X020694Y008590D01*
X020808Y008590D01*
X020912Y008633D01*
X020992Y008714D01*
X021036Y008818D01*
X021036Y008932D01*
X020992Y009036D01*
X020912Y009117D01*
X020808Y009160D01*
X020763Y009160D01*
X020222Y009701D01*
X020222Y010351D01*
X020235Y010363D01*
X020271Y010276D01*
X020351Y010196D01*
X020456Y010153D01*
X020569Y010153D01*
X020674Y010196D01*
X020754Y010276D01*
X020797Y010381D01*
X020797Y010426D01*
X020886Y010514D01*
X020886Y010844D01*
X020894Y010852D01*
X020894Y011527D01*
X020806Y011614D01*
X019094Y011614D01*
X019094Y011710D01*
X019874Y012490D01*
X019885Y012485D01*
X020040Y012485D01*
X020183Y012544D01*
X020293Y012654D01*
X020352Y012797D01*
X020352Y012953D01*
X020293Y013096D01*
X020183Y013206D01*
X020040Y013265D01*
X019885Y013265D01*
X019741Y013206D01*
X019632Y013096D01*
X019572Y012953D01*
X019572Y012797D01*
X019577Y012787D01*
X018838Y012048D01*
X018838Y012396D01*
X018715Y012519D01*
X018448Y012787D01*
X018452Y012797D01*
X018452Y012953D01*
X018393Y013096D01*
X018283Y013206D01*
X018140Y013265D01*
X017985Y013265D01*
X017841Y013206D01*
X017732Y013096D01*
X017672Y012953D01*
X017672Y012797D01*
X017697Y012737D01*
X017297Y013137D01*
X017297Y013182D01*
X017254Y013286D01*
X017174Y013367D01*
X017069Y013410D01*
X016956Y013410D01*
X016851Y013367D01*
X016771Y013286D01*
X016727Y013182D01*
X016727Y013068D01*
X016771Y012964D01*
X016774Y012960D01*
X015548Y012960D01*
X015431Y013077D01*
X015461Y013151D01*
X015461Y013349D01*
X015385Y013533D01*
X015244Y013674D01*
X015170Y013705D01*
X021829Y013705D01*
X021605Y013480D01*
X021442Y013199D01*
X021358Y012886D01*
X021358Y012561D01*
X021442Y012248D01*
X021605Y011967D01*
X021834Y011737D01*
X022022Y011629D01*
X021956Y011607D01*
X021602Y011350D01*
X021345Y010996D01*
X021210Y010580D01*
X021210Y006375D01*
X021210Y006384D02*
X017453Y006384D01*
X017371Y006482D02*
X021210Y006482D01*
X021210Y006581D02*
X015887Y006581D01*
X015887Y006679D02*
X021210Y006679D01*
X021210Y006778D02*
X015887Y006778D01*
X015887Y006876D02*
X021210Y006876D01*
X021210Y006975D02*
X015887Y006975D01*
X016196Y007073D02*
X016913Y007073D01*
X016863Y007123D02*
X016978Y007007D01*
X017421Y007007D01*
X017537Y007123D01*
X017537Y007507D01*
X017445Y007598D01*
X017485Y007693D01*
X017485Y007807D01*
X017441Y007911D01*
X017361Y007992D01*
X017256Y008035D01*
X017143Y008035D01*
X017038Y007992D01*
X016958Y007911D01*
X016915Y007807D01*
X016915Y007693D01*
X016954Y007598D01*
X016863Y007507D01*
X016863Y007123D01*
X016863Y007172D02*
X016297Y007172D01*
X016377Y007270D02*
X016863Y007270D01*
X016863Y007369D02*
X016418Y007369D01*
X016452Y007467D02*
X016863Y007467D01*
X016921Y007566D02*
X016452Y007566D01*
X016452Y007664D02*
X016927Y007664D01*
X016915Y007763D02*
X016419Y007763D01*
X016378Y007861D02*
X016937Y007861D01*
X017006Y007960D02*
X016300Y007960D01*
X016202Y008058D02*
X017642Y008058D01*
X017642Y008157D02*
X016102Y008157D01*
X016102Y008255D02*
X017642Y008255D01*
X017642Y008354D02*
X016102Y008354D01*
X016102Y008452D02*
X017642Y008452D01*
X017642Y008551D02*
X016102Y008551D01*
X016102Y008649D02*
X017643Y008649D01*
X017651Y008748D02*
X016102Y008748D01*
X016102Y008846D02*
X017651Y008846D01*
X017651Y008945D02*
X016102Y008945D01*
X016102Y009043D02*
X017651Y009043D01*
X017651Y009142D02*
X016102Y009142D01*
X016102Y009240D02*
X017651Y009240D01*
X017651Y009339D02*
X016102Y009339D01*
X016102Y009437D02*
X017651Y009437D01*
X017651Y009536D02*
X016102Y009536D01*
X016078Y009634D02*
X017651Y009634D01*
X017651Y009733D02*
X015980Y009733D01*
X015881Y009831D02*
X017651Y009831D01*
X017651Y009930D02*
X015783Y009930D01*
X015684Y010028D02*
X017562Y010028D01*
X017464Y010127D02*
X014088Y010127D01*
X014070Y010225D02*
X017365Y010225D01*
X017161Y010324D02*
X014161Y010324D01*
X014259Y010422D02*
X017089Y010422D01*
X017064Y010521D02*
X014300Y010521D01*
X014300Y010619D02*
X017074Y010619D01*
X017125Y010718D02*
X014300Y010718D01*
X014300Y010816D02*
X017139Y010816D01*
X017130Y010915D02*
X014391Y010915D01*
X014397Y011013D02*
X017130Y011013D01*
X017130Y011112D02*
X014397Y011112D01*
X014397Y011210D02*
X017130Y011210D01*
X017130Y011309D02*
X014397Y011309D01*
X014350Y011407D02*
X017130Y011407D01*
X017130Y011506D02*
X013571Y011506D01*
X013571Y011604D02*
X017208Y011604D01*
X017138Y011703D02*
X013571Y011703D01*
X013504Y011801D02*
X017039Y011801D01*
X016941Y011900D02*
X012885Y011900D01*
X012885Y011998D02*
X016842Y011998D01*
X017648Y012786D02*
X017677Y012786D01*
X017672Y012885D02*
X017550Y012885D01*
X017451Y012983D02*
X017685Y012983D01*
X017726Y013082D02*
X017353Y013082D01*
X017297Y013180D02*
X017816Y013180D01*
X018309Y013180D02*
X019716Y013180D01*
X019626Y013082D02*
X018399Y013082D01*
X018440Y012983D02*
X019585Y012983D01*
X019572Y012885D02*
X018452Y012885D01*
X018448Y012786D02*
X019576Y012786D01*
X019478Y012688D02*
X018547Y012688D01*
X018645Y012589D02*
X019379Y012589D01*
X019281Y012491D02*
X018744Y012491D01*
X018715Y012519D02*
X018715Y012519D01*
X018838Y012392D02*
X019182Y012392D01*
X019084Y012294D02*
X018838Y012294D01*
X018838Y012195D02*
X018985Y012195D01*
X018887Y012097D02*
X018838Y012097D01*
X019284Y011900D02*
X021672Y011900D01*
X021586Y011998D02*
X019382Y011998D01*
X019481Y012097D02*
X021530Y012097D01*
X021473Y012195D02*
X019579Y012195D01*
X019678Y012294D02*
X021430Y012294D01*
X021404Y012392D02*
X019776Y012392D01*
X020053Y012491D02*
X021377Y012491D01*
X021358Y012589D02*
X020228Y012589D01*
X020307Y012688D02*
X021358Y012688D01*
X021358Y012786D02*
X020347Y012786D01*
X020352Y012885D02*
X021358Y012885D01*
X021384Y012983D02*
X020340Y012983D01*
X020299Y013082D02*
X021411Y013082D01*
X021437Y013180D02*
X020209Y013180D01*
X021488Y013279D02*
X017257Y013279D01*
X017148Y013377D02*
X021545Y013377D01*
X021602Y013476D02*
X015409Y013476D01*
X015450Y013377D02*
X016876Y013377D01*
X016767Y013279D02*
X015461Y013279D01*
X015461Y013180D02*
X016727Y013180D01*
X016727Y013082D02*
X015432Y013082D01*
X015525Y012983D02*
X016763Y012983D01*
X015344Y013574D02*
X021698Y013574D01*
X021797Y013673D02*
X015246Y013673D01*
X013325Y012589D02*
X012807Y012589D01*
X012807Y012491D02*
X013424Y012491D01*
X013522Y012392D02*
X012807Y012392D01*
X012813Y012294D02*
X013621Y012294D01*
X013719Y012195D02*
X012885Y012195D01*
X012885Y012097D02*
X013818Y012097D01*
X012983Y011801D02*
X012885Y011801D01*
X012530Y011407D02*
X011644Y011407D01*
X011644Y011435D02*
X011557Y011523D01*
X011216Y011523D01*
X011128Y011435D01*
X011128Y010838D01*
X011216Y010751D01*
X011557Y010751D01*
X011644Y010838D01*
X011644Y011435D01*
X011574Y011506D02*
X012431Y011506D01*
X012347Y011604D02*
X010868Y011604D01*
X010868Y011506D02*
X011198Y011506D01*
X011128Y011407D02*
X010896Y011407D01*
X010896Y011309D02*
X011128Y011309D01*
X011128Y011210D02*
X010896Y011210D01*
X010896Y011112D02*
X011128Y011112D01*
X011128Y011013D02*
X010896Y011013D01*
X010896Y010915D02*
X011128Y010915D01*
X011150Y010816D02*
X010874Y010816D01*
X010886Y010422D02*
X011138Y010422D01*
X011128Y010324D02*
X010896Y010324D01*
X010896Y010225D02*
X011128Y010225D01*
X011128Y010127D02*
X010896Y010127D01*
X010896Y010028D02*
X011128Y010028D01*
X011128Y009930D02*
X010896Y009930D01*
X010896Y009831D02*
X011128Y009831D01*
X011044Y009733D02*
X010980Y009733D01*
X010428Y009634D02*
X009387Y009634D01*
X009387Y009733D02*
X010408Y009733D01*
X010380Y009831D02*
X009387Y009831D01*
X009387Y009930D02*
X010380Y009930D01*
X010380Y010028D02*
X009387Y010028D01*
X009387Y010127D02*
X010380Y010127D01*
X010380Y010225D02*
X009387Y010225D01*
X009387Y010324D02*
X010380Y010324D01*
X010390Y010422D02*
X009387Y010422D01*
X009387Y010521D02*
X011707Y010521D01*
X011622Y010816D02*
X013840Y010816D01*
X013840Y010718D02*
X009387Y010718D01*
X009387Y010816D02*
X010402Y010816D01*
X010380Y010915D02*
X009387Y010915D01*
X009387Y011013D02*
X010380Y011013D01*
X010380Y011112D02*
X009387Y011112D01*
X009387Y011210D02*
X010380Y011210D01*
X010380Y011309D02*
X009387Y011309D01*
X009387Y011407D02*
X010380Y011407D01*
X010408Y011506D02*
X009387Y011506D01*
X009387Y011604D02*
X010408Y011604D01*
X010408Y011703D02*
X009387Y011703D01*
X009387Y011801D02*
X010332Y011801D01*
X010332Y011900D02*
X009387Y011900D01*
X009387Y011998D02*
X010332Y011998D01*
X010332Y012097D02*
X009387Y012097D01*
X009387Y012195D02*
X010332Y012195D01*
X010404Y012294D02*
X009387Y012294D01*
X009387Y012392D02*
X010795Y012392D01*
X010731Y012491D02*
X009387Y012491D01*
X009387Y012589D02*
X010731Y012589D01*
X010731Y012688D02*
X009387Y012688D01*
X009387Y012786D02*
X010731Y012786D01*
X010619Y012885D02*
X009387Y012885D01*
X009392Y012983D02*
X010530Y012983D01*
X010490Y013082D02*
X009432Y013082D01*
X009461Y013180D02*
X010461Y013180D01*
X010461Y013279D02*
X009461Y013279D01*
X009450Y013377D02*
X010472Y013377D01*
X010513Y013476D02*
X009409Y013476D01*
X009387Y013574D02*
X010578Y013574D01*
X010676Y013673D02*
X009387Y013673D01*
X008637Y013673D02*
X002125Y013673D01*
X002093Y013705D02*
X008637Y013705D01*
X008637Y013633D01*
X008537Y013533D01*
X008461Y013349D01*
X008461Y013151D01*
X008537Y012967D01*
X008637Y012867D01*
X008637Y012593D01*
X007973Y013256D01*
X007808Y013325D01*
X007629Y013325D01*
X007464Y013256D01*
X007337Y013130D01*
X007298Y013035D01*
X007270Y013102D01*
X007158Y013214D01*
X007011Y013275D01*
X006851Y013275D01*
X006704Y013214D01*
X006592Y013102D01*
X006531Y012955D01*
X006531Y012935D01*
X006112Y012515D01*
X006062Y012396D01*
X006062Y012121D01*
X006036Y012121D01*
X005961Y012046D01*
X005701Y012046D01*
X005701Y012240D01*
X005613Y012454D01*
X005450Y012617D01*
X005237Y012705D01*
X005006Y012705D01*
X004793Y012617D01*
X004630Y012454D01*
X004541Y012240D01*
X004541Y012010D01*
X004630Y011796D01*
X004793Y011633D01*
X005006Y011545D01*
X005237Y011545D01*
X005240Y011546D01*
X005341Y011446D01*
X005460Y011396D01*
X005961Y011396D01*
X006036Y011321D01*
X006739Y011321D01*
X006827Y011409D01*
X006827Y012034D01*
X006739Y012121D01*
X006712Y012121D01*
X006712Y012197D01*
X006991Y012475D01*
X007011Y012475D01*
X007158Y012536D01*
X007270Y012648D01*
X007298Y012715D01*
X007337Y012620D01*
X008339Y011619D01*
X008504Y011550D01*
X008637Y011550D01*
X008637Y008875D01*
X002712Y008875D01*
X002712Y010580D01*
X002577Y010996D01*
X002577Y010996D01*
X002320Y011350D01*
X002320Y011350D01*
X002320Y011350D01*
X001966Y011607D01*
X001900Y011629D01*
X002088Y011737D01*
X002317Y011967D01*
X002480Y012248D01*
X002564Y012561D01*
X002564Y012886D01*
X002480Y013199D01*
X002317Y013480D01*
X002093Y013705D01*
X002224Y013574D02*
X008578Y013574D01*
X008513Y013476D02*
X002320Y013476D01*
X002377Y013377D02*
X008472Y013377D01*
X008461Y013279D02*
X007920Y013279D01*
X008050Y013180D02*
X008461Y013180D01*
X008490Y013082D02*
X008148Y013082D01*
X008247Y012983D02*
X008530Y012983D01*
X008619Y012885D02*
X008345Y012885D01*
X008444Y012786D02*
X008637Y012786D01*
X008637Y012688D02*
X008542Y012688D01*
X007663Y012294D02*
X006809Y012294D01*
X006712Y012195D02*
X007762Y012195D01*
X007860Y012097D02*
X006764Y012097D01*
X006827Y011998D02*
X007959Y011998D01*
X008057Y011900D02*
X006827Y011900D01*
X006827Y011801D02*
X008156Y011801D01*
X008254Y011703D02*
X006827Y011703D01*
X006827Y011604D02*
X008373Y011604D01*
X008637Y011506D02*
X006827Y011506D01*
X006824Y011407D02*
X008637Y011407D01*
X008637Y011309D02*
X002350Y011309D01*
X002422Y011210D02*
X008637Y011210D01*
X008637Y011112D02*
X002493Y011112D01*
X002565Y011013D02*
X008637Y011013D01*
X008637Y010915D02*
X002603Y010915D01*
X002636Y010816D02*
X008637Y010816D01*
X008637Y010718D02*
X002668Y010718D01*
X002700Y010619D02*
X008637Y010619D01*
X008637Y010521D02*
X002712Y010521D01*
X002712Y010422D02*
X006029Y010422D01*
X006036Y010429D02*
X005948Y010341D01*
X005948Y009716D01*
X006036Y009629D01*
X006739Y009629D01*
X006827Y009716D01*
X006827Y009799D01*
X007095Y009799D01*
X007095Y009489D01*
X006988Y009382D01*
X006988Y008998D01*
X007103Y008882D01*
X007546Y008882D01*
X007662Y008998D01*
X007662Y009382D01*
X007555Y009489D01*
X007555Y009855D01*
X007566Y009867D01*
X007610Y009972D01*
X007610Y010085D01*
X007566Y010190D01*
X007486Y010270D01*
X007381Y010314D01*
X007268Y010314D01*
X007163Y010270D01*
X007152Y010259D01*
X006827Y010259D01*
X006827Y010341D01*
X006739Y010429D01*
X006036Y010429D01*
X005948Y010324D02*
X002712Y010324D01*
X002712Y010225D02*
X005948Y010225D01*
X005948Y010127D02*
X002712Y010127D01*
X002712Y010028D02*
X005948Y010028D01*
X005948Y009930D02*
X002712Y009930D01*
X002712Y009831D02*
X005948Y009831D01*
X005948Y009733D02*
X002712Y009733D01*
X002712Y009634D02*
X006030Y009634D01*
X006744Y009634D02*
X007095Y009634D01*
X007095Y009536D02*
X002712Y009536D01*
X002712Y009437D02*
X007043Y009437D01*
X006988Y009339D02*
X002712Y009339D01*
X002712Y009240D02*
X006988Y009240D01*
X006988Y009142D02*
X002712Y009142D01*
X002712Y009043D02*
X006988Y009043D01*
X007041Y008945D02*
X002712Y008945D01*
X006827Y009733D02*
X007095Y009733D01*
X007555Y009733D02*
X008637Y009733D01*
X008637Y009831D02*
X007555Y009831D01*
X007592Y009930D02*
X008637Y009930D01*
X008637Y010028D02*
X007610Y010028D01*
X007593Y010127D02*
X008637Y010127D01*
X008637Y010225D02*
X007531Y010225D01*
X006827Y010324D02*
X008637Y010324D01*
X008637Y010422D02*
X006745Y010422D01*
X007555Y009634D02*
X008637Y009634D01*
X008637Y009536D02*
X007555Y009536D01*
X007607Y009437D02*
X008637Y009437D01*
X008637Y009339D02*
X007662Y009339D01*
X007662Y009240D02*
X008637Y009240D01*
X008637Y009142D02*
X007662Y009142D01*
X007662Y009043D02*
X008637Y009043D01*
X008637Y008945D02*
X007608Y008945D01*
X009387Y010619D02*
X013806Y010619D01*
X013707Y010521D02*
X012581Y010521D01*
X012599Y010422D02*
X013610Y010422D01*
X013610Y010324D02*
X012599Y010324D01*
X012672Y010225D02*
X013610Y010225D01*
X013592Y010127D02*
X013182Y010127D01*
X013208Y010028D02*
X013566Y010028D01*
X013566Y009930D02*
X013208Y009930D01*
X013208Y009831D02*
X013566Y009831D01*
X013566Y009733D02*
X013208Y009733D01*
X013193Y009634D02*
X013581Y009634D01*
X013749Y010915D02*
X011644Y010915D01*
X011644Y011013D02*
X013743Y011013D01*
X013743Y011112D02*
X011644Y011112D01*
X011644Y011210D02*
X013001Y011210D01*
X012628Y011309D02*
X011644Y011309D01*
X011290Y011801D02*
X012270Y011801D01*
X012270Y011900D02*
X011353Y011900D01*
X011371Y011998D02*
X012270Y011998D01*
X012270Y012097D02*
X011355Y012097D01*
X011316Y012195D02*
X012270Y012195D01*
X012342Y012294D02*
X011316Y012294D01*
X011316Y012392D02*
X012347Y012392D01*
X012347Y012491D02*
X011316Y012491D01*
X011248Y012589D02*
X012297Y012589D01*
X012198Y012688D02*
X011191Y012688D01*
X011191Y012786D02*
X011775Y012786D01*
X011619Y012885D02*
X011303Y012885D01*
X011392Y012983D02*
X011530Y012983D01*
X011490Y013082D02*
X011432Y013082D01*
X011461Y013151D02*
X011461Y013349D01*
X011537Y013533D01*
X011678Y013674D01*
X011752Y013705D01*
X011170Y013705D01*
X011244Y013674D01*
X011385Y013533D01*
X011461Y013349D01*
X011461Y013151D01*
X011461Y013180D02*
X011461Y013180D01*
X011461Y013279D02*
X011461Y013279D01*
X011450Y013377D02*
X011472Y013377D01*
X011513Y013476D02*
X011409Y013476D01*
X011344Y013574D02*
X011578Y013574D01*
X011676Y013673D02*
X011246Y013673D01*
X012750Y012786D02*
X012775Y012786D01*
X012807Y012688D02*
X013227Y012688D01*
X012346Y011703D02*
X010871Y011703D01*
X013486Y011210D02*
X013743Y011210D01*
X013743Y011309D02*
X013571Y011309D01*
X013571Y011407D02*
X013790Y011407D01*
X017559Y010764D02*
X020042Y010764D01*
X019925Y010647D01*
X018955Y010647D01*
X018924Y010679D01*
X018819Y010722D01*
X018706Y010722D01*
X018601Y010679D01*
X018521Y010599D01*
X018477Y010494D01*
X018477Y010381D01*
X018521Y010276D01*
X018601Y010196D01*
X018706Y010153D01*
X018819Y010153D01*
X018924Y010196D01*
X018955Y010228D01*
X019802Y010228D01*
X019802Y009527D01*
X020466Y008863D01*
X020466Y008818D01*
X020500Y008736D01*
X020289Y008736D01*
X020201Y008648D01*
X020201Y007973D01*
X020210Y007965D01*
X020210Y007818D01*
X020442Y007586D01*
X020401Y007545D01*
X020124Y007545D01*
X020046Y007622D01*
X019869Y007622D01*
X020118Y007871D01*
X020118Y007965D01*
X020126Y007973D01*
X020126Y008648D01*
X020039Y008736D01*
X019903Y008736D01*
X019937Y008818D01*
X019937Y008932D01*
X019894Y009036D01*
X019813Y009117D01*
X019709Y009160D01*
X019595Y009160D01*
X019491Y009117D01*
X019410Y009036D01*
X019367Y008932D01*
X019367Y008818D01*
X019410Y008714D01*
X019442Y008682D01*
X019442Y008656D01*
X019433Y008648D01*
X019433Y008022D01*
X019359Y008022D01*
X019359Y008648D01*
X019271Y008736D01*
X018754Y008736D01*
X018666Y008648D01*
X018666Y007973D01*
X018754Y007886D01*
X018851Y007886D01*
X018740Y007774D01*
X018740Y007622D01*
X018728Y007622D01*
X018651Y007545D01*
X018374Y007545D01*
X018320Y007598D01*
X018360Y007693D01*
X018360Y007807D01*
X018327Y007886D01*
X018503Y007886D01*
X018591Y007973D01*
X018591Y008648D01*
X018503Y008736D01*
X018071Y008736D01*
X018071Y010114D01*
X017634Y010550D01*
X017634Y010595D01*
X017590Y010700D01*
X017559Y010731D01*
X017559Y010764D01*
X017573Y010718D02*
X018694Y010718D01*
X018831Y010718D02*
X019995Y010718D01*
X020222Y010324D02*
X020251Y010324D01*
X020222Y010225D02*
X020322Y010225D01*
X020222Y010127D02*
X021210Y010127D01*
X021210Y010225D02*
X020703Y010225D01*
X020773Y010324D02*
X021210Y010324D01*
X021210Y010422D02*
X020797Y010422D01*
X020886Y010521D02*
X021210Y010521D01*
X021223Y010619D02*
X020886Y010619D01*
X020886Y010718D02*
X021255Y010718D01*
X021287Y010816D02*
X020886Y010816D01*
X020894Y010915D02*
X021319Y010915D01*
X021345Y010996D02*
X021345Y010996D01*
X021357Y011013D02*
X020894Y011013D01*
X020894Y011112D02*
X021429Y011112D01*
X021501Y011210D02*
X020894Y011210D01*
X020894Y011309D02*
X021572Y011309D01*
X021602Y011350D02*
X021602Y011350D01*
X021602Y011350D01*
X021681Y011407D02*
X020894Y011407D01*
X020894Y011506D02*
X021816Y011506D01*
X021952Y011604D02*
X020817Y011604D01*
X021770Y011801D02*
X019185Y011801D01*
X019094Y011703D02*
X021894Y011703D01*
X021956Y011607D02*
X021956Y011607D01*
X019802Y010225D02*
X018953Y010225D01*
X018572Y010225D02*
X017959Y010225D01*
X017861Y010324D02*
X018501Y010324D01*
X018477Y010422D02*
X017762Y010422D01*
X017664Y010521D02*
X018488Y010521D01*
X018541Y010619D02*
X017624Y010619D01*
X018058Y010127D02*
X019802Y010127D01*
X019802Y010028D02*
X018071Y010028D01*
X018071Y009930D02*
X019802Y009930D01*
X019802Y009831D02*
X018071Y009831D01*
X018071Y009733D02*
X019802Y009733D01*
X019802Y009634D02*
X018071Y009634D01*
X018071Y009536D02*
X019802Y009536D01*
X019892Y009437D02*
X018071Y009437D01*
X018071Y009339D02*
X019990Y009339D01*
X020089Y009240D02*
X018071Y009240D01*
X018071Y009142D02*
X019551Y009142D01*
X019417Y009043D02*
X018071Y009043D01*
X018071Y008945D02*
X019372Y008945D01*
X019367Y008846D02*
X018071Y008846D01*
X018071Y008748D02*
X019396Y008748D01*
X019357Y008649D02*
X019435Y008649D01*
X019433Y008551D02*
X019359Y008551D01*
X019359Y008452D02*
X019433Y008452D01*
X019433Y008354D02*
X019359Y008354D01*
X019359Y008255D02*
X019433Y008255D01*
X019433Y008157D02*
X019359Y008157D01*
X019359Y008058D02*
X019433Y008058D01*
X020009Y007763D02*
X020265Y007763D01*
X020210Y007861D02*
X020108Y007861D01*
X020118Y007960D02*
X020210Y007960D01*
X020201Y008058D02*
X020126Y008058D01*
X020126Y008157D02*
X020201Y008157D01*
X020201Y008255D02*
X020126Y008255D01*
X020126Y008354D02*
X020201Y008354D01*
X020201Y008452D02*
X020126Y008452D01*
X020126Y008551D02*
X020201Y008551D01*
X020202Y008649D02*
X020125Y008649D01*
X019908Y008748D02*
X020495Y008748D01*
X020466Y008846D02*
X019937Y008846D01*
X019932Y008945D02*
X020384Y008945D01*
X020286Y009043D02*
X019887Y009043D01*
X019753Y009142D02*
X020187Y009142D01*
X020486Y009437D02*
X021210Y009437D01*
X021210Y009339D02*
X020584Y009339D01*
X020683Y009240D02*
X021210Y009240D01*
X021210Y009142D02*
X020852Y009142D01*
X020986Y009043D02*
X021210Y009043D01*
X021210Y008945D02*
X021031Y008945D01*
X021036Y008846D02*
X021210Y008846D01*
X021210Y008748D02*
X021007Y008748D01*
X020928Y008649D02*
X021210Y008649D01*
X021210Y008551D02*
X020638Y008551D01*
X020638Y008452D02*
X021210Y008452D01*
X021210Y008354D02*
X020638Y008354D01*
X020638Y008255D02*
X021210Y008255D01*
X021210Y008157D02*
X020638Y008157D01*
X020638Y008058D02*
X021210Y008058D01*
X021210Y007960D02*
X020662Y007960D01*
X020761Y007861D02*
X021210Y007861D01*
X021210Y007763D02*
X020859Y007763D01*
X020910Y007664D02*
X021210Y007664D01*
X021210Y007566D02*
X020978Y007566D01*
X021037Y007467D02*
X021210Y007467D01*
X021210Y007369D02*
X021037Y007369D01*
X021037Y007270D02*
X021210Y007270D01*
X021210Y007172D02*
X021037Y007172D01*
X020987Y007073D02*
X021210Y007073D01*
X020413Y007073D02*
X020112Y007073D01*
X020103Y007566D02*
X020421Y007566D01*
X020364Y007664D02*
X019911Y007664D01*
X019546Y007566D02*
X019228Y007566D01*
X019287Y007467D02*
X019488Y007467D01*
X019488Y007369D02*
X019287Y007369D01*
X019287Y007270D02*
X019488Y007270D01*
X019488Y007172D02*
X019287Y007172D01*
X019237Y007073D02*
X019538Y007073D01*
X018663Y007073D02*
X018362Y007073D01*
X017788Y007073D02*
X017487Y007073D01*
X017537Y007172D02*
X017738Y007172D01*
X017738Y007270D02*
X017537Y007270D01*
X017537Y007369D02*
X017738Y007369D01*
X017738Y007467D02*
X017537Y007467D01*
X017478Y007566D02*
X017796Y007566D01*
X017802Y007664D02*
X017473Y007664D01*
X017485Y007763D02*
X017790Y007763D01*
X017812Y007861D02*
X017462Y007861D01*
X017393Y007960D02*
X017656Y007960D01*
X018337Y007861D02*
X018826Y007861D01*
X018740Y007763D02*
X018360Y007763D01*
X018348Y007664D02*
X018740Y007664D01*
X018671Y007566D02*
X018353Y007566D01*
X018577Y007960D02*
X018680Y007960D01*
X018666Y008058D02*
X018591Y008058D01*
X018591Y008157D02*
X018666Y008157D01*
X018666Y008255D02*
X018591Y008255D01*
X018591Y008354D02*
X018666Y008354D01*
X018666Y008452D02*
X018591Y008452D01*
X018591Y008551D02*
X018666Y008551D01*
X018667Y008649D02*
X018590Y008649D01*
X020289Y009634D02*
X021210Y009634D01*
X021210Y009536D02*
X020387Y009536D01*
X020222Y009733D02*
X021210Y009733D01*
X021210Y009831D02*
X020222Y009831D01*
X020222Y009930D02*
X021210Y009930D01*
X021210Y010028D02*
X020222Y010028D01*
X017029Y006482D02*
X015887Y006482D01*
X009387Y004500D02*
X009012Y004875D01*
X008825Y004688D01*
X008825Y004563D01*
X008825Y004438D01*
X008762Y004625D02*
X008887Y004750D01*
X008637Y005000D01*
X008887Y005000D01*
X009012Y004875D01*
X009012Y004750D02*
X008887Y004750D01*
X015512Y001000D02*
X015887Y001000D01*
X005435Y011407D02*
X002241Y011407D01*
X002106Y011506D02*
X005281Y011506D01*
X004864Y011604D02*
X001970Y011604D01*
X001966Y011607D02*
X001966Y011607D01*
X002028Y011703D02*
X004724Y011703D01*
X004628Y011801D02*
X002152Y011801D01*
X002250Y011900D02*
X004587Y011900D01*
X004546Y011998D02*
X002336Y011998D01*
X002393Y012097D02*
X004541Y012097D01*
X004541Y012195D02*
X002449Y012195D01*
X002492Y012294D02*
X004563Y012294D01*
X004604Y012392D02*
X002518Y012392D01*
X002545Y012491D02*
X004667Y012491D01*
X004765Y012589D02*
X002564Y012589D01*
X002564Y012688D02*
X004964Y012688D01*
X005279Y012688D02*
X006284Y012688D01*
X006382Y012786D02*
X002564Y012786D01*
X002564Y012885D02*
X006481Y012885D01*
X006543Y012983D02*
X002538Y012983D01*
X002511Y013082D02*
X006584Y013082D01*
X006670Y013180D02*
X002485Y013180D01*
X002434Y013279D02*
X007517Y013279D01*
X007387Y013180D02*
X007192Y013180D01*
X007278Y013082D02*
X007317Y013082D01*
X007309Y012688D02*
X007286Y012688D01*
X007211Y012589D02*
X007368Y012589D01*
X007466Y012491D02*
X007048Y012491D01*
X006908Y012392D02*
X007565Y012392D01*
X006185Y012589D02*
X005478Y012589D01*
X005576Y012491D02*
X006101Y012491D01*
X006062Y012392D02*
X005639Y012392D01*
X005679Y012294D02*
X006062Y012294D01*
X006062Y012195D02*
X005701Y012195D01*
X005701Y012097D02*
X006011Y012097D01*
D35*
X007325Y010029D03*
X004325Y008500D03*
X006387Y008188D03*
X008200Y008125D03*
X011762Y005875D03*
X012137Y006250D03*
X017200Y006250D03*
X017200Y007750D03*
X018075Y007750D03*
X019652Y008875D03*
X020168Y008875D03*
X020751Y008875D03*
X020512Y010438D03*
X018762Y010438D03*
X017349Y010538D03*
X017012Y013125D03*
X011086Y012000D03*
X020751Y005500D03*
D36*
X020751Y004938D02*
X020688Y004875D01*
X020700Y007315D02*
X020700Y007625D01*
X020420Y007905D01*
X020420Y008311D01*
X019908Y008311D02*
X019908Y007958D01*
X019762Y007813D01*
X019075Y007813D01*
X018950Y007688D01*
X018950Y007315D01*
X018075Y007750D02*
X018075Y007938D01*
X018117Y007979D01*
X018117Y008311D01*
X018372Y008311D01*
X018117Y008311D02*
X017861Y008311D01*
X017861Y010027D01*
X017349Y010538D01*
X017349Y011189D01*
X017605Y011189D02*
X017605Y011532D01*
X016887Y012250D01*
X013961Y012250D01*
X012961Y013250D01*
X013961Y013250D02*
X014711Y012500D01*
X016950Y012500D01*
X017861Y011589D01*
X017861Y011189D01*
X018117Y011189D02*
X018117Y011646D01*
X017012Y012750D01*
X015461Y012750D01*
X014961Y013250D01*
X017012Y013125D02*
X018372Y011765D01*
X018372Y011189D01*
X018628Y011189D02*
X018628Y012309D01*
X018062Y012875D01*
X018884Y011797D02*
X019962Y012875D01*
X018884Y011797D02*
X018884Y011189D01*
X018762Y010438D02*
X020012Y010438D01*
X020012Y009614D01*
X020751Y008875D01*
X019652Y008875D02*
X019652Y008311D01*
X020012Y010438D02*
X020420Y010845D01*
X020420Y011189D01*
X020676Y011189D02*
X020676Y010601D01*
X020512Y010438D01*
D37*
X019586Y004875D02*
X018501Y004875D01*
D38*
X006387Y011721D02*
X005525Y011721D01*
X005121Y012125D01*
X006387Y012331D02*
X006387Y011721D01*
X006387Y012331D02*
X006931Y012875D01*
D39*
X007718Y012875D02*
X008593Y012000D01*
X009387Y012000D01*
X003573Y005625D02*
X003573Y002125D01*
D40*
X003573Y001439D01*
X004137Y000875D01*
X009012Y000875D02*
X009012Y002125D01*
D41*
X011148Y002764D02*
X009037Y004875D01*
D42*
X008762Y004625D02*
X008637Y004750D01*
X008637Y005000D01*
X008887Y005250D01*
X009137Y005250D01*
X010012Y004375D01*
X011512Y002875D01*
X011512Y002625D01*
X011262Y002375D01*
X011012Y002375D01*
X008825Y004563D01*
X008762Y004625D01*
X010012Y004375D02*
X010012Y004125D01*
X011148Y002764D02*
X012634Y004250D01*
X016762Y004250D01*
X017387Y004875D01*
X019512Y002625D02*
X019512Y001625D01*
X019262Y001375D01*
X018762Y000875D01*
X019137Y000875D01*
X019512Y000875D01*
X019762Y001125D01*
X019637Y001125D01*
X019637Y002625D01*
X019512Y002625D01*
X019637Y002625D02*
X020137Y002625D01*
X020387Y002625D01*
X020387Y002500D01*
X020137Y002250D01*
X020387Y002250D01*
X020387Y001625D01*
X020262Y001500D01*
X019887Y001500D01*
X019887Y001875D01*
X019762Y002000D01*
X020012Y002250D01*
X020012Y002125D01*
X019887Y002000D01*
X019887Y001875D01*
X020137Y001625D01*
X020137Y001375D01*
X020012Y001375D01*
X019887Y001500D01*
X019762Y001375D01*
X019262Y001375D01*
X019512Y001250D02*
X019512Y001625D01*
X019637Y001375D02*
X019512Y001250D01*
X019137Y000875D01*
X019512Y000875D02*
X019512Y000750D01*
X020012Y001250D01*
X020137Y001375D01*
X020262Y001500D01*
X020137Y001625D02*
X020137Y001875D01*
X020137Y002000D02*
X019887Y002000D01*
X019762Y002000D01*
X019762Y002250D01*
X019887Y002375D01*
X020012Y002375D01*
X020012Y002250D01*
X020137Y002500D02*
X020137Y002625D01*
X020512Y002250D01*
X020512Y001375D01*
X020262Y001125D01*
X020262Y001000D01*
X020387Y000875D01*
X020262Y000875D01*
X020137Y000750D01*
X019762Y000750D02*
X020512Y000750D01*
X020512Y002625D01*
X020387Y002625D01*
X019762Y002000D02*
X019637Y002125D01*
X019637Y001375D01*
X019762Y001375D02*
X019762Y002000D01*
X019887Y001250D02*
X019762Y001125D01*
X019887Y001250D02*
X020012Y001250D01*
X020262Y001125D02*
X019762Y000750D01*
X015887Y000750D01*
X016012Y001125D01*
X016137Y001250D01*
X016012Y001125D02*
X015887Y001000D01*
X015637Y000750D01*
X015512Y000750D01*
X015137Y000750D01*
X015762Y001250D01*
X016012Y001125D01*
X016387Y001250D02*
X015512Y001000D01*
X015262Y001125D01*
X015137Y001125D01*
X015137Y001000D01*
X015137Y000750D01*
X015137Y001000D02*
X015512Y000750D01*
X015637Y000750D02*
X015887Y000750D01*
X015512Y001000D02*
X015762Y001500D01*
X015387Y001125D01*
X015262Y001125D01*
X015137Y001125D02*
X015137Y001250D01*
X015387Y001500D01*
X015762Y001500D01*
X016387Y001500D01*
X016512Y001500D01*
X016512Y001375D01*
X016887Y001375D01*
X016762Y001500D01*
X016512Y001250D01*
X016512Y001125D01*
X016762Y001500D01*
X016512Y001500D01*
X016387Y001500D02*
X016387Y001375D01*
X016387Y001250D02*
X017012Y001250D01*
X017137Y001125D01*
X017387Y000875D01*
X018762Y000875D01*
X017137Y001125D02*
X017012Y001125D01*
X016887Y001250D01*
X016887Y001000D01*
X016887Y001250D02*
X016887Y001375D01*
X017012Y001250D01*
X016512Y001125D02*
X016512Y001000D01*
X016387Y001250D02*
X016512Y001375D01*
D43*
X016887Y001000D02*
X016012Y001125D01*
X016012Y001000D01*
X015887Y001000D01*
M02*
