G75*
%MOIN*%
%OFA0B0*%
%FSLAX24Y24*%
%IPPOS*%
%LPD*%
%AMOC8*
5,1,8,0,0,1.08239X$1,22.5*
%
%ADD10C,0.2060*%
%ADD11C,0.2029*%
%ADD12R,0.0315X0.0472*%
%ADD13OC8,0.0560*%
%ADD14C,0.0560*%
%ADD15OC8,0.0690*%
%ADD16C,0.0690*%
%ADD17C,0.0300*%
%ADD18R,0.0375X0.0532*%
%ADD19R,0.0670X0.0296*%
%ADD20R,0.0639X0.0560*%
%ADD21C,0.0112*%
%ADD22C,0.0760*%
%ADD23C,0.1143*%
%ADD24R,0.0277X0.0532*%
%ADD25C,0.0436*%
%ADD26C,0.0476*%
D10*
X001626Y001975D03*
D11*
X027020Y001975D03*
D12*
X019024Y019172D03*
X018650Y019172D03*
X018276Y019172D03*
X018276Y020038D03*
X018650Y020038D03*
X019024Y020038D03*
X010399Y020038D03*
X010025Y020038D03*
X009651Y020038D03*
X009651Y019172D03*
X010025Y019172D03*
X010399Y019172D03*
D13*
X016900Y011961D03*
X024531Y001725D03*
X004531Y001725D03*
D14*
X003769Y002325D03*
X004531Y002825D03*
X003769Y001125D03*
X016900Y012748D03*
X024531Y002825D03*
X023769Y002325D03*
X023769Y001125D03*
D15*
X018150Y001666D03*
X010150Y001666D03*
D16*
X010150Y003044D03*
X012838Y005852D03*
X012838Y007230D03*
X018150Y003044D03*
D17*
X014900Y008510D02*
X014900Y009140D01*
X013900Y009140D02*
X013900Y008510D01*
X013400Y008510D02*
X013400Y009140D01*
X013400Y010570D02*
X013400Y011200D01*
X013900Y011200D02*
X013900Y010570D01*
X014400Y010570D02*
X014400Y011200D01*
X014900Y011200D02*
X014900Y010570D01*
D18*
X012544Y011480D03*
X011835Y011480D03*
D19*
X007963Y003105D03*
X007963Y002605D03*
X007963Y002105D03*
X007963Y001605D03*
X005837Y001605D03*
X005837Y002105D03*
X005837Y002605D03*
X005837Y003105D03*
X020337Y003105D03*
X020337Y002605D03*
X020337Y002105D03*
X020337Y001605D03*
X022463Y001605D03*
X022463Y002105D03*
X022463Y002605D03*
X022463Y003105D03*
D20*
X016150Y009008D03*
X016150Y010701D03*
X016900Y013883D03*
X016900Y015576D03*
X011123Y006588D03*
X011123Y004895D03*
D21*
X009061Y004921D02*
X009061Y004659D01*
X008739Y004659D01*
X008739Y004921D01*
X009061Y004921D01*
X009061Y004770D02*
X008739Y004770D01*
X008739Y004881D02*
X009061Y004881D01*
X009061Y005289D02*
X009061Y005551D01*
X009061Y005289D02*
X008739Y005289D01*
X008739Y005551D01*
X009061Y005551D01*
X009061Y005400D02*
X008739Y005400D01*
X008739Y005511D02*
X009061Y005511D01*
X007346Y004141D02*
X007084Y004141D01*
X007346Y004141D02*
X007346Y003819D01*
X007084Y003819D01*
X007084Y004141D01*
X007084Y003930D02*
X007346Y003930D01*
X007346Y004041D02*
X007084Y004041D01*
X006716Y004141D02*
X006454Y004141D01*
X006716Y004141D02*
X006716Y003819D01*
X006454Y003819D01*
X006454Y004141D01*
X006454Y003930D02*
X006716Y003930D01*
X006716Y004041D02*
X006454Y004041D01*
X006454Y000569D02*
X006716Y000569D01*
X006454Y000569D02*
X006454Y000891D01*
X006716Y000891D01*
X006716Y000569D01*
X006716Y000680D02*
X006454Y000680D01*
X006454Y000791D02*
X006716Y000791D01*
X007084Y000569D02*
X007346Y000569D01*
X007084Y000569D02*
X007084Y000891D01*
X007346Y000891D01*
X007346Y000569D01*
X007346Y000680D02*
X007084Y000680D01*
X007084Y000791D02*
X007346Y000791D01*
X007954Y000891D02*
X008216Y000891D01*
X008216Y000569D01*
X007954Y000569D01*
X007954Y000891D01*
X007954Y000680D02*
X008216Y000680D01*
X008216Y000791D02*
X007954Y000791D01*
X008584Y000891D02*
X008846Y000891D01*
X008846Y000569D01*
X008584Y000569D01*
X008584Y000891D01*
X008584Y000680D02*
X008846Y000680D01*
X008846Y000791D02*
X008584Y000791D01*
X011704Y008664D02*
X011966Y008664D01*
X011704Y008664D02*
X011704Y008986D01*
X011966Y008986D01*
X011966Y008664D01*
X011966Y008775D02*
X011704Y008775D01*
X011704Y008886D02*
X011966Y008886D01*
X012334Y008664D02*
X012596Y008664D01*
X012334Y008664D02*
X012334Y008986D01*
X012596Y008986D01*
X012596Y008664D01*
X012596Y008775D02*
X012334Y008775D01*
X012334Y008886D02*
X012596Y008886D01*
X012596Y009891D02*
X012334Y009891D01*
X012596Y009891D02*
X012596Y009569D01*
X012334Y009569D01*
X012334Y009891D01*
X012334Y009680D02*
X012596Y009680D01*
X012596Y009791D02*
X012334Y009791D01*
X011966Y009891D02*
X011704Y009891D01*
X011966Y009891D02*
X011966Y009569D01*
X011704Y009569D01*
X011704Y009891D01*
X011704Y009680D02*
X011966Y009680D01*
X011966Y009791D02*
X011704Y009791D01*
X011704Y010766D02*
X011966Y010766D01*
X011966Y010444D01*
X011704Y010444D01*
X011704Y010766D01*
X011704Y010555D02*
X011966Y010555D01*
X011966Y010666D02*
X011704Y010666D01*
X012334Y010766D02*
X012596Y010766D01*
X012596Y010444D01*
X012334Y010444D01*
X012334Y010766D01*
X012334Y010555D02*
X012596Y010555D01*
X012596Y010666D02*
X012334Y010666D01*
X012864Y015221D02*
X012864Y015483D01*
X013186Y015483D01*
X013186Y015221D01*
X012864Y015221D01*
X012864Y015332D02*
X013186Y015332D01*
X013186Y015443D02*
X012864Y015443D01*
X012864Y015851D02*
X012864Y016113D01*
X013186Y016113D01*
X013186Y015851D01*
X012864Y015851D01*
X012864Y015962D02*
X013186Y015962D01*
X013186Y016073D02*
X012864Y016073D01*
X015436Y016113D02*
X015436Y015851D01*
X015114Y015851D01*
X015114Y016113D01*
X015436Y016113D01*
X015436Y015962D02*
X015114Y015962D01*
X015114Y016073D02*
X015436Y016073D01*
X015436Y015483D02*
X015436Y015221D01*
X015114Y015221D01*
X015114Y015483D01*
X015436Y015483D01*
X015436Y015332D02*
X015114Y015332D01*
X015114Y015443D02*
X015436Y015443D01*
X017364Y019159D02*
X017364Y019421D01*
X017686Y019421D01*
X017686Y019159D01*
X017364Y019159D01*
X017364Y019270D02*
X017686Y019270D01*
X017686Y019381D02*
X017364Y019381D01*
X017364Y019789D02*
X017364Y020051D01*
X017686Y020051D01*
X017686Y019789D01*
X017364Y019789D01*
X017364Y019900D02*
X017686Y019900D01*
X017686Y020011D02*
X017364Y020011D01*
X019614Y020051D02*
X019614Y019789D01*
X019614Y020051D02*
X019936Y020051D01*
X019936Y019789D01*
X019614Y019789D01*
X019614Y019900D02*
X019936Y019900D01*
X019936Y020011D02*
X019614Y020011D01*
X019614Y019421D02*
X019614Y019159D01*
X019614Y019421D02*
X019936Y019421D01*
X019936Y019159D01*
X019614Y019159D01*
X019614Y019270D02*
X019936Y019270D01*
X019936Y019381D02*
X019614Y019381D01*
X020811Y019421D02*
X020811Y019159D01*
X020489Y019159D01*
X020489Y019421D01*
X020811Y019421D01*
X020811Y019270D02*
X020489Y019270D01*
X020489Y019381D02*
X020811Y019381D01*
X020811Y019789D02*
X020811Y020051D01*
X020811Y019789D02*
X020489Y019789D01*
X020489Y020051D01*
X020811Y020051D01*
X020811Y019900D02*
X020489Y019900D01*
X020489Y020011D02*
X020811Y020011D01*
X011311Y020051D02*
X011311Y019789D01*
X010989Y019789D01*
X010989Y020051D01*
X011311Y020051D01*
X011311Y019900D02*
X010989Y019900D01*
X010989Y020011D02*
X011311Y020011D01*
X011311Y019421D02*
X011311Y019159D01*
X010989Y019159D01*
X010989Y019421D01*
X011311Y019421D01*
X011311Y019270D02*
X010989Y019270D01*
X010989Y019381D02*
X011311Y019381D01*
X009061Y019421D02*
X009061Y019159D01*
X008739Y019159D01*
X008739Y019421D01*
X009061Y019421D01*
X009061Y019270D02*
X008739Y019270D01*
X008739Y019381D02*
X009061Y019381D01*
X009061Y019789D02*
X009061Y020051D01*
X009061Y019789D02*
X008739Y019789D01*
X008739Y020051D01*
X009061Y020051D01*
X009061Y019900D02*
X008739Y019900D01*
X008739Y020011D02*
X009061Y020011D01*
X007864Y020051D02*
X007864Y019789D01*
X007864Y020051D02*
X008186Y020051D01*
X008186Y019789D01*
X007864Y019789D01*
X007864Y019900D02*
X008186Y019900D01*
X008186Y020011D02*
X007864Y020011D01*
X007864Y019421D02*
X007864Y019159D01*
X007864Y019421D02*
X008186Y019421D01*
X008186Y019159D01*
X007864Y019159D01*
X007864Y019270D02*
X008186Y019270D01*
X008186Y019381D02*
X007864Y019381D01*
X020954Y004141D02*
X021216Y004141D01*
X021216Y003819D01*
X020954Y003819D01*
X020954Y004141D01*
X020954Y003930D02*
X021216Y003930D01*
X021216Y004041D02*
X020954Y004041D01*
X021584Y004141D02*
X021846Y004141D01*
X021846Y003819D01*
X021584Y003819D01*
X021584Y004141D01*
X021584Y003930D02*
X021846Y003930D01*
X021846Y004041D02*
X021584Y004041D01*
X021584Y000569D02*
X021846Y000569D01*
X021584Y000569D02*
X021584Y000891D01*
X021846Y000891D01*
X021846Y000569D01*
X021846Y000680D02*
X021584Y000680D01*
X021584Y000791D02*
X021846Y000791D01*
X021216Y000569D02*
X020954Y000569D01*
X020954Y000891D01*
X021216Y000891D01*
X021216Y000569D01*
X021216Y000680D02*
X020954Y000680D01*
X020954Y000791D02*
X021216Y000791D01*
D22*
X016323Y020577D03*
X015323Y020577D03*
X014323Y020577D03*
X013323Y020577D03*
X012323Y020577D03*
D23*
X013150Y002355D03*
X015150Y002355D03*
D24*
X014524Y015155D03*
X014150Y015155D03*
X013776Y015155D03*
X013776Y016179D03*
X014524Y016179D03*
D25*
X014756Y005667D03*
X015544Y005667D03*
D26*
X015134Y013105D03*
X013166Y013105D03*
M02*
