G75*
%MOIN*%
%OFA0B0*%
%FSLAX24Y24*%
%IPPOS*%
%LPD*%
%AMOC8*
5,1,8,0,0,1.08239X$1,22.5*
%
%ADD10C,0.0000*%
D10*
X001975Y001286D02*
X027172Y001286D01*
X027245Y001295D01*
X027318Y001306D01*
X027390Y001322D01*
X027461Y001341D01*
X027531Y001364D01*
X027600Y001390D01*
X027668Y001420D01*
X027734Y001453D01*
X027798Y001490D01*
X027860Y001529D01*
X027920Y001572D01*
X027978Y001618D01*
X028033Y001666D01*
X028086Y001717D01*
X028136Y001771D01*
X028184Y001828D01*
X028228Y001887D01*
X028270Y001948D01*
X028308Y002010D01*
X028343Y002075D01*
X028375Y002142D01*
X028404Y002210D01*
X028428Y002279D01*
X028450Y002350D01*
X028468Y002421D01*
X028482Y002494D01*
X028492Y002567D01*
X028499Y002640D01*
X028502Y002714D01*
X028501Y002787D01*
X028497Y002861D01*
X028496Y002861D02*
X028496Y020971D01*
X028497Y020971D02*
X028495Y021048D01*
X028489Y021125D01*
X028480Y021202D01*
X028467Y021278D01*
X028450Y021354D01*
X028429Y021428D01*
X028405Y021502D01*
X028377Y021574D01*
X028346Y021644D01*
X028311Y021713D01*
X028273Y021781D01*
X028232Y021846D01*
X028187Y021909D01*
X028139Y021970D01*
X028089Y022029D01*
X028036Y022085D01*
X027980Y022138D01*
X027921Y022188D01*
X027860Y022236D01*
X027797Y022281D01*
X027732Y022322D01*
X027664Y022360D01*
X027595Y022395D01*
X027525Y022426D01*
X027453Y022454D01*
X027379Y022478D01*
X027305Y022499D01*
X027229Y022516D01*
X027153Y022529D01*
X027076Y022538D01*
X026999Y022544D01*
X026922Y022546D01*
X001725Y022546D01*
X001648Y022544D01*
X001571Y022538D01*
X001494Y022529D01*
X001418Y022516D01*
X001342Y022499D01*
X001268Y022478D01*
X001194Y022454D01*
X001122Y022426D01*
X001052Y022395D01*
X000983Y022360D01*
X000915Y022322D01*
X000850Y022281D01*
X000787Y022236D01*
X000726Y022188D01*
X000667Y022138D01*
X000611Y022085D01*
X000558Y022029D01*
X000508Y021970D01*
X000460Y021909D01*
X000415Y021846D01*
X000374Y021781D01*
X000336Y021713D01*
X000301Y021644D01*
X000270Y021574D01*
X000242Y021502D01*
X000218Y021428D01*
X000197Y021354D01*
X000180Y021278D01*
X000167Y021202D01*
X000158Y021125D01*
X000152Y021048D01*
X000150Y020971D01*
X000150Y002861D01*
X000626Y003156D02*
X000628Y003219D01*
X000634Y003281D01*
X000644Y003343D01*
X000657Y003405D01*
X000675Y003465D01*
X000696Y003524D01*
X000721Y003582D01*
X000750Y003638D01*
X000782Y003692D01*
X000817Y003744D01*
X000855Y003793D01*
X000897Y003841D01*
X000941Y003885D01*
X000989Y003927D01*
X001038Y003965D01*
X001090Y004000D01*
X001144Y004032D01*
X001200Y004061D01*
X001258Y004086D01*
X001317Y004107D01*
X001377Y004125D01*
X001439Y004138D01*
X001501Y004148D01*
X001563Y004154D01*
X001626Y004156D01*
X001689Y004154D01*
X001751Y004148D01*
X001813Y004138D01*
X001875Y004125D01*
X001935Y004107D01*
X001994Y004086D01*
X002052Y004061D01*
X002108Y004032D01*
X002162Y004000D01*
X002214Y003965D01*
X002263Y003927D01*
X002311Y003885D01*
X002355Y003841D01*
X002397Y003793D01*
X002435Y003744D01*
X002470Y003692D01*
X002502Y003638D01*
X002531Y003582D01*
X002556Y003524D01*
X002577Y003465D01*
X002595Y003405D01*
X002608Y003343D01*
X002618Y003281D01*
X002624Y003219D01*
X002626Y003156D01*
X002624Y003093D01*
X002618Y003031D01*
X002608Y002969D01*
X002595Y002907D01*
X002577Y002847D01*
X002556Y002788D01*
X002531Y002730D01*
X002502Y002674D01*
X002470Y002620D01*
X002435Y002568D01*
X002397Y002519D01*
X002355Y002471D01*
X002311Y002427D01*
X002263Y002385D01*
X002214Y002347D01*
X002162Y002312D01*
X002108Y002280D01*
X002052Y002251D01*
X001994Y002226D01*
X001935Y002205D01*
X001875Y002187D01*
X001813Y002174D01*
X001751Y002164D01*
X001689Y002158D01*
X001626Y002156D01*
X001563Y002158D01*
X001501Y002164D01*
X001439Y002174D01*
X001377Y002187D01*
X001317Y002205D01*
X001258Y002226D01*
X001200Y002251D01*
X001144Y002280D01*
X001090Y002312D01*
X001038Y002347D01*
X000989Y002385D01*
X000941Y002427D01*
X000897Y002471D01*
X000855Y002519D01*
X000817Y002568D01*
X000782Y002620D01*
X000750Y002674D01*
X000721Y002730D01*
X000696Y002788D01*
X000675Y002847D01*
X000657Y002907D01*
X000644Y002969D01*
X000634Y003031D01*
X000628Y003093D01*
X000626Y003156D01*
X000151Y002861D02*
X000158Y002780D01*
X000170Y002700D01*
X000186Y002620D01*
X000205Y002542D01*
X000228Y002464D01*
X000255Y002387D01*
X000285Y002312D01*
X000319Y002238D01*
X000356Y002166D01*
X000397Y002096D01*
X000441Y002028D01*
X000488Y001962D01*
X000538Y001898D01*
X000591Y001837D01*
X000648Y001779D01*
X000706Y001723D01*
X000768Y001670D01*
X000832Y001620D01*
X000898Y001573D01*
X000966Y001529D01*
X001036Y001489D01*
X001109Y001452D01*
X001182Y001418D01*
X001258Y001388D01*
X001334Y001362D01*
X001412Y001339D01*
X001491Y001320D01*
X001571Y001305D01*
X001651Y001294D01*
X001732Y001286D01*
X001813Y001282D01*
X001894Y001283D01*
X001975Y001287D01*
X026036Y003156D02*
X026038Y003218D01*
X026044Y003281D01*
X026054Y003342D01*
X026068Y003403D01*
X026085Y003463D01*
X026106Y003522D01*
X026132Y003579D01*
X026160Y003634D01*
X026192Y003688D01*
X026228Y003739D01*
X026266Y003789D01*
X026308Y003835D01*
X026352Y003879D01*
X026400Y003920D01*
X026449Y003958D01*
X026501Y003992D01*
X026555Y004023D01*
X026611Y004051D01*
X026669Y004075D01*
X026728Y004096D01*
X026788Y004112D01*
X026849Y004125D01*
X026911Y004134D01*
X026973Y004139D01*
X027036Y004140D01*
X027098Y004137D01*
X027160Y004130D01*
X027222Y004119D01*
X027282Y004104D01*
X027342Y004086D01*
X027400Y004064D01*
X027457Y004038D01*
X027512Y004008D01*
X027565Y003975D01*
X027616Y003939D01*
X027664Y003900D01*
X027710Y003857D01*
X027753Y003812D01*
X027793Y003764D01*
X027830Y003714D01*
X027864Y003661D01*
X027895Y003607D01*
X027921Y003551D01*
X027945Y003493D01*
X027964Y003433D01*
X027980Y003373D01*
X027992Y003311D01*
X028000Y003250D01*
X028004Y003187D01*
X028004Y003125D01*
X028000Y003062D01*
X027992Y003001D01*
X027980Y002939D01*
X027964Y002879D01*
X027945Y002819D01*
X027921Y002761D01*
X027895Y002705D01*
X027864Y002651D01*
X027830Y002598D01*
X027793Y002548D01*
X027753Y002500D01*
X027710Y002455D01*
X027664Y002412D01*
X027616Y002373D01*
X027565Y002337D01*
X027512Y002304D01*
X027457Y002274D01*
X027400Y002248D01*
X027342Y002226D01*
X027282Y002208D01*
X027222Y002193D01*
X027160Y002182D01*
X027098Y002175D01*
X027036Y002172D01*
X026973Y002173D01*
X026911Y002178D01*
X026849Y002187D01*
X026788Y002200D01*
X026728Y002216D01*
X026669Y002237D01*
X026611Y002261D01*
X026555Y002289D01*
X026501Y002320D01*
X026449Y002354D01*
X026400Y002392D01*
X026352Y002433D01*
X026308Y002477D01*
X026266Y002523D01*
X026228Y002573D01*
X026192Y002624D01*
X026160Y002678D01*
X026132Y002733D01*
X026106Y002790D01*
X026085Y002849D01*
X026068Y002909D01*
X026054Y002970D01*
X026044Y003031D01*
X026038Y003094D01*
X026036Y003156D01*
M02*
