G75*
%MOIN*%
%OFA0B0*%
%FSLAX24Y24*%
%IPPOS*%
%LPD*%
%AMOC8*
5,1,8,0,0,1.08239X$1,22.5*
%
%ADD10C,0.0000*%
%ADD11R,0.0256X0.0417*%
%ADD12OC8,0.0500*%
%ADD13C,0.0500*%
%ADD14OC8,0.0630*%
%ADD15C,0.0630*%
%ADD16C,0.0240*%
%ADD17R,0.0315X0.0472*%
%ADD18R,0.0610X0.0236*%
%ADD19R,0.0579X0.0500*%
%ADD20C,0.0094*%
%ADD21C,0.0700*%
%ADD22C,0.1083*%
%ADD23R,0.0217X0.0472*%
%ADD24C,0.0376*%
%ADD25C,0.0416*%
%ADD26C,0.0160*%
%ADD27C,0.0270*%
%ADD28C,0.0500*%
%ADD29C,0.0100*%
%ADD30C,0.0400*%
%ADD31C,0.0550*%
%ADD32C,0.0350*%
%ADD33C,0.0230*%
%ADD34C,0.0200*%
%ADD35C,0.0320*%
D10*
X001975Y000105D02*
X027172Y000105D01*
X027172Y000104D02*
X027245Y000113D01*
X027318Y000124D01*
X027390Y000140D01*
X027461Y000159D01*
X027531Y000182D01*
X027600Y000208D01*
X027668Y000238D01*
X027734Y000271D01*
X027798Y000308D01*
X027860Y000347D01*
X027920Y000390D01*
X027978Y000436D01*
X028033Y000484D01*
X028086Y000535D01*
X028136Y000589D01*
X028184Y000646D01*
X028228Y000705D01*
X028270Y000766D01*
X028308Y000828D01*
X028343Y000893D01*
X028375Y000960D01*
X028404Y001028D01*
X028428Y001097D01*
X028450Y001168D01*
X028468Y001239D01*
X028482Y001312D01*
X028492Y001385D01*
X028499Y001458D01*
X028502Y001532D01*
X028501Y001605D01*
X028497Y001679D01*
X028496Y001679D02*
X028496Y019790D01*
X028497Y019790D02*
X028495Y019867D01*
X028489Y019944D01*
X028480Y020021D01*
X028467Y020097D01*
X028450Y020173D01*
X028429Y020247D01*
X028405Y020321D01*
X028377Y020393D01*
X028346Y020463D01*
X028311Y020532D01*
X028273Y020600D01*
X028232Y020665D01*
X028187Y020728D01*
X028139Y020789D01*
X028089Y020848D01*
X028036Y020904D01*
X027980Y020957D01*
X027921Y021007D01*
X027860Y021055D01*
X027797Y021100D01*
X027732Y021141D01*
X027664Y021179D01*
X027595Y021214D01*
X027525Y021245D01*
X027453Y021273D01*
X027379Y021297D01*
X027305Y021318D01*
X027229Y021335D01*
X027153Y021348D01*
X027076Y021357D01*
X026999Y021363D01*
X026922Y021365D01*
X026922Y021364D02*
X001725Y021364D01*
X001725Y021365D02*
X001648Y021363D01*
X001571Y021357D01*
X001494Y021348D01*
X001418Y021335D01*
X001342Y021318D01*
X001268Y021297D01*
X001194Y021273D01*
X001122Y021245D01*
X001052Y021214D01*
X000983Y021179D01*
X000915Y021141D01*
X000850Y021100D01*
X000787Y021055D01*
X000726Y021007D01*
X000667Y020957D01*
X000611Y020904D01*
X000558Y020848D01*
X000508Y020789D01*
X000460Y020728D01*
X000415Y020665D01*
X000374Y020600D01*
X000336Y020532D01*
X000301Y020463D01*
X000270Y020393D01*
X000242Y020321D01*
X000218Y020247D01*
X000197Y020173D01*
X000180Y020097D01*
X000167Y020021D01*
X000158Y019944D01*
X000152Y019867D01*
X000150Y019790D01*
X000150Y001679D01*
X000626Y001975D02*
X000628Y002038D01*
X000634Y002100D01*
X000644Y002162D01*
X000657Y002224D01*
X000675Y002284D01*
X000696Y002343D01*
X000721Y002401D01*
X000750Y002457D01*
X000782Y002511D01*
X000817Y002563D01*
X000855Y002612D01*
X000897Y002660D01*
X000941Y002704D01*
X000989Y002746D01*
X001038Y002784D01*
X001090Y002819D01*
X001144Y002851D01*
X001200Y002880D01*
X001258Y002905D01*
X001317Y002926D01*
X001377Y002944D01*
X001439Y002957D01*
X001501Y002967D01*
X001563Y002973D01*
X001626Y002975D01*
X001689Y002973D01*
X001751Y002967D01*
X001813Y002957D01*
X001875Y002944D01*
X001935Y002926D01*
X001994Y002905D01*
X002052Y002880D01*
X002108Y002851D01*
X002162Y002819D01*
X002214Y002784D01*
X002263Y002746D01*
X002311Y002704D01*
X002355Y002660D01*
X002397Y002612D01*
X002435Y002563D01*
X002470Y002511D01*
X002502Y002457D01*
X002531Y002401D01*
X002556Y002343D01*
X002577Y002284D01*
X002595Y002224D01*
X002608Y002162D01*
X002618Y002100D01*
X002624Y002038D01*
X002626Y001975D01*
X002624Y001912D01*
X002618Y001850D01*
X002608Y001788D01*
X002595Y001726D01*
X002577Y001666D01*
X002556Y001607D01*
X002531Y001549D01*
X002502Y001493D01*
X002470Y001439D01*
X002435Y001387D01*
X002397Y001338D01*
X002355Y001290D01*
X002311Y001246D01*
X002263Y001204D01*
X002214Y001166D01*
X002162Y001131D01*
X002108Y001099D01*
X002052Y001070D01*
X001994Y001045D01*
X001935Y001024D01*
X001875Y001006D01*
X001813Y000993D01*
X001751Y000983D01*
X001689Y000977D01*
X001626Y000975D01*
X001563Y000977D01*
X001501Y000983D01*
X001439Y000993D01*
X001377Y001006D01*
X001317Y001024D01*
X001258Y001045D01*
X001200Y001070D01*
X001144Y001099D01*
X001090Y001131D01*
X001038Y001166D01*
X000989Y001204D01*
X000941Y001246D01*
X000897Y001290D01*
X000855Y001338D01*
X000817Y001387D01*
X000782Y001439D01*
X000750Y001493D01*
X000721Y001549D01*
X000696Y001607D01*
X000675Y001666D01*
X000657Y001726D01*
X000644Y001788D01*
X000634Y001850D01*
X000628Y001912D01*
X000626Y001975D01*
X000151Y001679D02*
X000158Y001598D01*
X000170Y001518D01*
X000186Y001438D01*
X000205Y001360D01*
X000228Y001282D01*
X000255Y001205D01*
X000285Y001130D01*
X000319Y001056D01*
X000356Y000984D01*
X000397Y000914D01*
X000441Y000846D01*
X000488Y000780D01*
X000538Y000716D01*
X000591Y000655D01*
X000648Y000597D01*
X000706Y000541D01*
X000768Y000488D01*
X000832Y000438D01*
X000898Y000391D01*
X000966Y000347D01*
X001036Y000307D01*
X001109Y000270D01*
X001182Y000236D01*
X001258Y000206D01*
X001334Y000180D01*
X001412Y000157D01*
X001491Y000138D01*
X001571Y000123D01*
X001651Y000112D01*
X001732Y000104D01*
X001813Y000100D01*
X001894Y000101D01*
X001975Y000105D01*
X026036Y001975D02*
X026038Y002037D01*
X026044Y002100D01*
X026054Y002161D01*
X026068Y002222D01*
X026085Y002282D01*
X026106Y002341D01*
X026132Y002398D01*
X026160Y002453D01*
X026192Y002507D01*
X026228Y002558D01*
X026266Y002608D01*
X026308Y002654D01*
X026352Y002698D01*
X026400Y002739D01*
X026449Y002777D01*
X026501Y002811D01*
X026555Y002842D01*
X026611Y002870D01*
X026669Y002894D01*
X026728Y002915D01*
X026788Y002931D01*
X026849Y002944D01*
X026911Y002953D01*
X026973Y002958D01*
X027036Y002959D01*
X027098Y002956D01*
X027160Y002949D01*
X027222Y002938D01*
X027282Y002923D01*
X027342Y002905D01*
X027400Y002883D01*
X027457Y002857D01*
X027512Y002827D01*
X027565Y002794D01*
X027616Y002758D01*
X027664Y002719D01*
X027710Y002676D01*
X027753Y002631D01*
X027793Y002583D01*
X027830Y002533D01*
X027864Y002480D01*
X027895Y002426D01*
X027921Y002370D01*
X027945Y002312D01*
X027964Y002252D01*
X027980Y002192D01*
X027992Y002130D01*
X028000Y002069D01*
X028004Y002006D01*
X028004Y001944D01*
X028000Y001881D01*
X027992Y001820D01*
X027980Y001758D01*
X027964Y001698D01*
X027945Y001638D01*
X027921Y001580D01*
X027895Y001524D01*
X027864Y001470D01*
X027830Y001417D01*
X027793Y001367D01*
X027753Y001319D01*
X027710Y001274D01*
X027664Y001231D01*
X027616Y001192D01*
X027565Y001156D01*
X027512Y001123D01*
X027457Y001093D01*
X027400Y001067D01*
X027342Y001045D01*
X027282Y001027D01*
X027222Y001012D01*
X027160Y001001D01*
X027098Y000994D01*
X027036Y000991D01*
X026973Y000992D01*
X026911Y000997D01*
X026849Y001006D01*
X026788Y001019D01*
X026728Y001035D01*
X026669Y001056D01*
X026611Y001080D01*
X026555Y001108D01*
X026501Y001139D01*
X026449Y001173D01*
X026400Y001211D01*
X026352Y001252D01*
X026308Y001296D01*
X026266Y001342D01*
X026228Y001392D01*
X026192Y001443D01*
X026160Y001497D01*
X026132Y001552D01*
X026106Y001609D01*
X026085Y001668D01*
X026068Y001728D01*
X026054Y001789D01*
X026044Y001850D01*
X026038Y001913D01*
X026036Y001975D01*
D11*
X019024Y019172D03*
X018650Y019172D03*
X018276Y019172D03*
X018276Y020038D03*
X018650Y020038D03*
X019024Y020038D03*
X010399Y020038D03*
X010025Y020038D03*
X009651Y020038D03*
X009651Y019172D03*
X010025Y019172D03*
X010399Y019172D03*
D12*
X016900Y011961D03*
X024531Y001725D03*
X004531Y001725D03*
D13*
X003769Y002325D03*
X004531Y002825D03*
X003769Y001125D03*
X016900Y012748D03*
X024531Y002825D03*
X023769Y002325D03*
X023769Y001125D03*
D14*
X018150Y001666D03*
X010150Y001666D03*
D15*
X010150Y003044D03*
X012838Y005852D03*
X012838Y007230D03*
X018150Y003044D03*
D16*
X014900Y008510D02*
X014900Y009140D01*
X013900Y009140D02*
X013900Y008510D01*
X013400Y008510D02*
X013400Y009140D01*
X013400Y010570D02*
X013400Y011200D01*
X013900Y011200D02*
X013900Y010570D01*
X014400Y010570D02*
X014400Y011200D01*
X014900Y011200D02*
X014900Y010570D01*
D17*
X012544Y011480D03*
X011835Y011480D03*
D18*
X007963Y003105D03*
X007963Y002605D03*
X007963Y002105D03*
X007963Y001605D03*
X005837Y001605D03*
X005837Y002105D03*
X005837Y002605D03*
X005837Y003105D03*
X020337Y003105D03*
X020337Y002605D03*
X020337Y002105D03*
X020337Y001605D03*
X022463Y001605D03*
X022463Y002105D03*
X022463Y002605D03*
X022463Y003105D03*
D19*
X016150Y009008D03*
X016150Y010701D03*
X016900Y013883D03*
X016900Y015576D03*
X011123Y006588D03*
X011123Y004895D03*
D20*
X009040Y004900D02*
X009040Y004680D01*
X008760Y004680D01*
X008760Y004900D01*
X009040Y004900D01*
X009040Y004773D02*
X008760Y004773D01*
X008760Y004866D02*
X009040Y004866D01*
X009040Y005310D02*
X009040Y005530D01*
X009040Y005310D02*
X008760Y005310D01*
X008760Y005530D01*
X009040Y005530D01*
X009040Y005403D02*
X008760Y005403D01*
X008760Y005496D02*
X009040Y005496D01*
X007325Y004120D02*
X007105Y004120D01*
X007325Y004120D02*
X007325Y003840D01*
X007105Y003840D01*
X007105Y004120D01*
X007105Y003933D02*
X007325Y003933D01*
X007325Y004026D02*
X007105Y004026D01*
X007105Y004119D02*
X007325Y004119D01*
X006695Y004120D02*
X006475Y004120D01*
X006695Y004120D02*
X006695Y003840D01*
X006475Y003840D01*
X006475Y004120D01*
X006475Y003933D02*
X006695Y003933D01*
X006695Y004026D02*
X006475Y004026D01*
X006475Y004119D02*
X006695Y004119D01*
X006695Y000590D02*
X006475Y000590D01*
X006475Y000870D01*
X006695Y000870D01*
X006695Y000590D01*
X006695Y000683D02*
X006475Y000683D01*
X006475Y000776D02*
X006695Y000776D01*
X006695Y000869D02*
X006475Y000869D01*
X007105Y000590D02*
X007325Y000590D01*
X007105Y000590D02*
X007105Y000870D01*
X007325Y000870D01*
X007325Y000590D01*
X007325Y000683D02*
X007105Y000683D01*
X007105Y000776D02*
X007325Y000776D01*
X007325Y000869D02*
X007105Y000869D01*
X007975Y000870D02*
X008195Y000870D01*
X008195Y000590D01*
X007975Y000590D01*
X007975Y000870D01*
X007975Y000683D02*
X008195Y000683D01*
X008195Y000776D02*
X007975Y000776D01*
X007975Y000869D02*
X008195Y000869D01*
X008605Y000870D02*
X008825Y000870D01*
X008825Y000590D01*
X008605Y000590D01*
X008605Y000870D01*
X008605Y000683D02*
X008825Y000683D01*
X008825Y000776D02*
X008605Y000776D01*
X008605Y000869D02*
X008825Y000869D01*
X011725Y008685D02*
X011945Y008685D01*
X011725Y008685D02*
X011725Y008965D01*
X011945Y008965D01*
X011945Y008685D01*
X011945Y008778D02*
X011725Y008778D01*
X011725Y008871D02*
X011945Y008871D01*
X011945Y008964D02*
X011725Y008964D01*
X012355Y008685D02*
X012575Y008685D01*
X012355Y008685D02*
X012355Y008965D01*
X012575Y008965D01*
X012575Y008685D01*
X012575Y008778D02*
X012355Y008778D01*
X012355Y008871D02*
X012575Y008871D01*
X012575Y008964D02*
X012355Y008964D01*
X012355Y009870D02*
X012575Y009870D01*
X012575Y009590D01*
X012355Y009590D01*
X012355Y009870D01*
X012355Y009683D02*
X012575Y009683D01*
X012575Y009776D02*
X012355Y009776D01*
X012355Y009869D02*
X012575Y009869D01*
X011945Y009870D02*
X011725Y009870D01*
X011945Y009870D02*
X011945Y009590D01*
X011725Y009590D01*
X011725Y009870D01*
X011725Y009683D02*
X011945Y009683D01*
X011945Y009776D02*
X011725Y009776D01*
X011725Y009869D02*
X011945Y009869D01*
X011945Y010745D02*
X011725Y010745D01*
X011945Y010745D02*
X011945Y010465D01*
X011725Y010465D01*
X011725Y010745D01*
X011725Y010558D02*
X011945Y010558D01*
X011945Y010651D02*
X011725Y010651D01*
X011725Y010744D02*
X011945Y010744D01*
X012355Y010745D02*
X012575Y010745D01*
X012575Y010465D01*
X012355Y010465D01*
X012355Y010745D01*
X012355Y010558D02*
X012575Y010558D01*
X012575Y010651D02*
X012355Y010651D01*
X012355Y010744D02*
X012575Y010744D01*
X012885Y015242D02*
X012885Y015462D01*
X013165Y015462D01*
X013165Y015242D01*
X012885Y015242D01*
X012885Y015335D02*
X013165Y015335D01*
X013165Y015428D02*
X012885Y015428D01*
X012885Y015872D02*
X012885Y016092D01*
X013165Y016092D01*
X013165Y015872D01*
X012885Y015872D01*
X012885Y015965D02*
X013165Y015965D01*
X013165Y016058D02*
X012885Y016058D01*
X015415Y016092D02*
X015415Y015872D01*
X015135Y015872D01*
X015135Y016092D01*
X015415Y016092D01*
X015415Y015965D02*
X015135Y015965D01*
X015135Y016058D02*
X015415Y016058D01*
X015415Y015462D02*
X015415Y015242D01*
X015135Y015242D01*
X015135Y015462D01*
X015415Y015462D01*
X015415Y015335D02*
X015135Y015335D01*
X015135Y015428D02*
X015415Y015428D01*
X017385Y019180D02*
X017385Y019400D01*
X017665Y019400D01*
X017665Y019180D01*
X017385Y019180D01*
X017385Y019273D02*
X017665Y019273D01*
X017665Y019366D02*
X017385Y019366D01*
X017385Y019810D02*
X017385Y020030D01*
X017665Y020030D01*
X017665Y019810D01*
X017385Y019810D01*
X017385Y019903D02*
X017665Y019903D01*
X017665Y019996D02*
X017385Y019996D01*
X019635Y020030D02*
X019635Y019810D01*
X019635Y020030D02*
X019915Y020030D01*
X019915Y019810D01*
X019635Y019810D01*
X019635Y019903D02*
X019915Y019903D01*
X019915Y019996D02*
X019635Y019996D01*
X019635Y019400D02*
X019635Y019180D01*
X019635Y019400D02*
X019915Y019400D01*
X019915Y019180D01*
X019635Y019180D01*
X019635Y019273D02*
X019915Y019273D01*
X019915Y019366D02*
X019635Y019366D01*
X020790Y019400D02*
X020790Y019180D01*
X020510Y019180D01*
X020510Y019400D01*
X020790Y019400D01*
X020790Y019273D02*
X020510Y019273D01*
X020510Y019366D02*
X020790Y019366D01*
X020790Y019810D02*
X020790Y020030D01*
X020790Y019810D02*
X020510Y019810D01*
X020510Y020030D01*
X020790Y020030D01*
X020790Y019903D02*
X020510Y019903D01*
X020510Y019996D02*
X020790Y019996D01*
X011290Y020030D02*
X011290Y019810D01*
X011010Y019810D01*
X011010Y020030D01*
X011290Y020030D01*
X011290Y019903D02*
X011010Y019903D01*
X011010Y019996D02*
X011290Y019996D01*
X011290Y019400D02*
X011290Y019180D01*
X011010Y019180D01*
X011010Y019400D01*
X011290Y019400D01*
X011290Y019273D02*
X011010Y019273D01*
X011010Y019366D02*
X011290Y019366D01*
X009040Y019400D02*
X009040Y019180D01*
X008760Y019180D01*
X008760Y019400D01*
X009040Y019400D01*
X009040Y019273D02*
X008760Y019273D01*
X008760Y019366D02*
X009040Y019366D01*
X009040Y019810D02*
X009040Y020030D01*
X009040Y019810D02*
X008760Y019810D01*
X008760Y020030D01*
X009040Y020030D01*
X009040Y019903D02*
X008760Y019903D01*
X008760Y019996D02*
X009040Y019996D01*
X007885Y020030D02*
X007885Y019810D01*
X007885Y020030D02*
X008165Y020030D01*
X008165Y019810D01*
X007885Y019810D01*
X007885Y019903D02*
X008165Y019903D01*
X008165Y019996D02*
X007885Y019996D01*
X007885Y019400D02*
X007885Y019180D01*
X007885Y019400D02*
X008165Y019400D01*
X008165Y019180D01*
X007885Y019180D01*
X007885Y019273D02*
X008165Y019273D01*
X008165Y019366D02*
X007885Y019366D01*
X020975Y004120D02*
X021195Y004120D01*
X021195Y003840D01*
X020975Y003840D01*
X020975Y004120D01*
X020975Y003933D02*
X021195Y003933D01*
X021195Y004026D02*
X020975Y004026D01*
X020975Y004119D02*
X021195Y004119D01*
X021605Y004120D02*
X021825Y004120D01*
X021825Y003840D01*
X021605Y003840D01*
X021605Y004120D01*
X021605Y003933D02*
X021825Y003933D01*
X021825Y004026D02*
X021605Y004026D01*
X021605Y004119D02*
X021825Y004119D01*
X021825Y000590D02*
X021605Y000590D01*
X021605Y000870D01*
X021825Y000870D01*
X021825Y000590D01*
X021825Y000683D02*
X021605Y000683D01*
X021605Y000776D02*
X021825Y000776D01*
X021825Y000869D02*
X021605Y000869D01*
X021195Y000590D02*
X020975Y000590D01*
X020975Y000870D01*
X021195Y000870D01*
X021195Y000590D01*
X021195Y000683D02*
X020975Y000683D01*
X020975Y000776D02*
X021195Y000776D01*
X021195Y000869D02*
X020975Y000869D01*
D21*
X016323Y020577D03*
X015323Y020577D03*
X014323Y020577D03*
X013323Y020577D03*
X012323Y020577D03*
D22*
X013150Y002355D03*
X015150Y002355D03*
D23*
X014524Y015155D03*
X014150Y015155D03*
X013776Y015155D03*
X013776Y016179D03*
X014524Y016179D03*
D24*
X014756Y005667D03*
X015544Y005667D03*
D25*
X015134Y013105D03*
X013166Y013105D03*
D26*
X012650Y013855D02*
X010900Y012105D01*
X010900Y008042D01*
X009400Y006542D01*
X009400Y004105D01*
X008900Y004790D02*
X008900Y002355D01*
X008650Y002105D01*
X007963Y002105D01*
X007963Y001605D02*
X007963Y001292D01*
X008085Y001170D01*
X008085Y000730D01*
X008715Y000730D02*
X009150Y000730D01*
X009400Y000480D01*
X019400Y000480D01*
X019650Y000730D01*
X019650Y002355D01*
X019900Y002605D01*
X020337Y002605D01*
X021085Y001790D02*
X020900Y001605D01*
X020337Y001605D01*
X020337Y001043D01*
X020650Y000730D01*
X021085Y000730D01*
X021715Y000730D02*
X022150Y000730D01*
X021715Y000730D02*
X021715Y002920D01*
X021900Y003105D01*
X022463Y003105D01*
X022463Y002605D02*
X022900Y002605D01*
X023120Y002825D01*
X024531Y002825D01*
X025150Y003105D02*
X025150Y002343D01*
X024531Y001725D01*
X023769Y002325D02*
X023245Y002325D01*
X023025Y002105D01*
X022463Y002105D01*
X022463Y001605D02*
X023289Y001605D01*
X023769Y001125D01*
X025150Y003105D02*
X024275Y003980D01*
X021715Y003980D01*
X021715Y004352D01*
X021463Y004605D01*
X019650Y004605D01*
X018150Y006105D01*
X018150Y011498D01*
X016900Y012748D01*
X015134Y013105D02*
X014384Y013855D01*
X014524Y013994D01*
X014524Y015155D01*
X014763Y015155D01*
X014960Y015352D01*
X015275Y015352D01*
X015525Y016480D02*
X017525Y018480D01*
X017525Y019290D01*
X016948Y019653D02*
X017215Y019920D01*
X017525Y019920D01*
X017840Y019920D01*
X017958Y020038D01*
X018276Y020038D01*
X018650Y020038D01*
X019024Y020038D02*
X019342Y020038D01*
X019460Y019920D01*
X019775Y019920D01*
X019775Y019290D02*
X019460Y019290D01*
X019342Y019172D01*
X019024Y019172D01*
X018650Y019172D02*
X018650Y018605D01*
X018400Y018355D01*
X018088Y018355D01*
X017963Y018480D01*
X017525Y018480D01*
X018276Y018731D02*
X018276Y019172D01*
X016948Y019653D02*
X014247Y019653D01*
X013323Y020577D01*
X013323Y018855D01*
X013775Y018403D01*
X013775Y016117D01*
X013776Y016179D02*
X013537Y016179D01*
X013340Y015982D01*
X013025Y015982D01*
X012900Y016355D02*
X012323Y016931D01*
X012323Y020577D01*
X011372Y020577D01*
X011150Y020355D01*
X011150Y019920D01*
X011150Y020355D02*
X010650Y020855D01*
X010275Y020855D01*
X010025Y020605D01*
X010025Y020038D01*
X009651Y020038D02*
X009333Y020038D01*
X009215Y019920D01*
X008900Y019920D01*
X008025Y019920D01*
X008025Y019290D02*
X008025Y018855D01*
X008900Y019290D02*
X009215Y019290D01*
X009333Y019172D01*
X009651Y019172D01*
X010025Y019172D02*
X010399Y019172D01*
X010717Y019172D01*
X010835Y019290D01*
X011150Y019290D01*
X011150Y018855D01*
X011775Y019605D02*
X011775Y013667D01*
X010400Y012292D01*
X010400Y008230D01*
X008900Y006730D01*
X008900Y005420D01*
X007215Y003980D02*
X007215Y003290D01*
X007400Y003105D01*
X007215Y002920D01*
X007215Y000730D01*
X006585Y000730D02*
X005526Y000730D01*
X004531Y001725D01*
X003769Y002325D02*
X003769Y003036D01*
X004088Y003355D01*
X004650Y003355D01*
X005400Y002605D01*
X005837Y002605D01*
X005837Y003105D02*
X005400Y003105D01*
X004775Y003730D01*
X003775Y003730D01*
X003275Y003230D01*
X003275Y001618D01*
X003769Y001125D01*
X005251Y002105D02*
X004531Y002825D01*
X005251Y002105D02*
X005837Y002105D01*
X005837Y001605D02*
X006400Y001605D01*
X006461Y001666D01*
X006775Y001666D01*
X006775Y002730D01*
X006585Y002920D01*
X006585Y003980D01*
X007400Y003105D02*
X007963Y003105D01*
X021085Y003980D02*
X021085Y001790D01*
X014384Y013855D02*
X013776Y013855D01*
X012650Y013855D01*
X013776Y013855D02*
X013776Y015155D01*
X019775Y019290D02*
X020650Y019290D01*
X020650Y019920D02*
X020650Y020355D01*
X010399Y020479D02*
X010399Y020038D01*
D27*
X010399Y020479D03*
X011775Y019605D03*
X011150Y018855D03*
X013323Y018855D03*
X016400Y015576D03*
X014150Y014605D03*
X011835Y011915D03*
X008025Y018855D03*
X018276Y018731D03*
X020650Y020355D03*
X009400Y004105D03*
X006775Y001666D03*
X022150Y000730D03*
D28*
X012838Y007230D02*
X011765Y007230D01*
X011123Y006588D01*
X011123Y004895D02*
X011123Y004017D01*
X010150Y003044D01*
X016150Y009008D02*
X016616Y009008D01*
X016900Y009292D01*
X016900Y011961D01*
D29*
X016440Y011925D02*
X012180Y011925D01*
X012180Y011983D02*
X012128Y012110D01*
X012030Y012207D01*
X011904Y012260D01*
X011766Y012260D01*
X011640Y012207D01*
X011543Y012110D01*
X011490Y011983D01*
X011490Y011846D01*
X011496Y011831D01*
X011468Y011803D01*
X011468Y011156D01*
X011525Y011099D01*
X011525Y010908D01*
X011507Y010890D01*
X011468Y010796D01*
X011468Y010414D01*
X011507Y010319D01*
X011579Y010247D01*
X011674Y010208D01*
X011996Y010208D01*
X012091Y010247D01*
X012150Y010306D01*
X012155Y010301D01*
X012155Y010033D01*
X012137Y010015D01*
X012097Y009921D01*
X012097Y009539D01*
X012137Y009444D01*
X012209Y009372D01*
X012304Y009333D01*
X012626Y009333D01*
X012721Y009372D01*
X012769Y009420D01*
X012900Y009420D01*
X012900Y009135D01*
X012769Y009135D01*
X012721Y009182D01*
X012626Y009222D01*
X012304Y009222D01*
X012209Y009182D01*
X012137Y009110D01*
X012097Y009016D01*
X012097Y008634D01*
X012110Y008605D01*
X011400Y008605D01*
X011400Y012194D01*
X012770Y013565D01*
X014264Y013565D01*
X014716Y013112D01*
X014716Y013021D01*
X014780Y012868D01*
X014898Y012750D01*
X015051Y012687D01*
X015217Y012687D01*
X015236Y012695D01*
X015730Y012695D01*
X016024Y012401D01*
X016175Y012338D01*
X016627Y012338D01*
X016440Y012151D01*
X016440Y010355D01*
X012900Y010355D01*
X012900Y010040D01*
X012775Y010040D01*
X012775Y010301D01*
X012793Y010319D01*
X012832Y010414D01*
X012832Y010796D01*
X012793Y010890D01*
X012721Y010962D01*
X012626Y011002D01*
X012304Y011002D01*
X012209Y010962D01*
X012150Y010903D01*
X012145Y010908D01*
X012145Y011099D01*
X012203Y011156D01*
X012203Y011803D01*
X012174Y011831D01*
X012180Y011846D01*
X012180Y011983D01*
X012164Y012023D02*
X016440Y012023D01*
X016440Y012122D02*
X012116Y012122D01*
X011999Y012220D02*
X016509Y012220D01*
X016607Y012319D02*
X011524Y012319D01*
X011623Y012417D02*
X016008Y012417D01*
X015909Y012516D02*
X011721Y012516D01*
X011820Y012614D02*
X015811Y012614D01*
X014989Y012713D02*
X011918Y012713D01*
X012017Y012811D02*
X014837Y012811D01*
X014763Y012910D02*
X012115Y012910D01*
X012214Y013008D02*
X014722Y013008D01*
X014716Y013107D02*
X012312Y013107D01*
X012411Y013205D02*
X014624Y013205D01*
X014525Y013304D02*
X012509Y013304D01*
X012608Y013402D02*
X014427Y013402D01*
X014328Y013501D02*
X012706Y013501D01*
X012650Y014480D02*
X012650Y016605D01*
X013545Y016605D01*
X013545Y016505D01*
X013518Y016477D01*
X013518Y016409D01*
X013442Y016409D01*
X013307Y016274D01*
X013284Y016252D01*
X013246Y016290D01*
X012804Y016290D01*
X012688Y016174D01*
X012688Y015790D01*
X012804Y015675D01*
X013246Y015675D01*
X013324Y015752D01*
X013435Y015752D01*
X013541Y015858D01*
X013606Y015793D01*
X013946Y015793D01*
X014034Y015881D01*
X014034Y016477D01*
X014005Y016507D01*
X014005Y016605D01*
X015650Y016605D01*
X015650Y014480D01*
X014754Y014480D01*
X014754Y014829D01*
X014782Y014857D01*
X014782Y014925D01*
X014858Y014925D01*
X014993Y015060D01*
X015016Y015083D01*
X015054Y015045D01*
X015496Y015045D01*
X015612Y015160D01*
X015612Y015544D01*
X015496Y015660D01*
X015054Y015660D01*
X014976Y015582D01*
X014865Y015582D01*
X014759Y015477D01*
X014694Y015541D01*
X014354Y015541D01*
X014266Y015454D01*
X014266Y014857D01*
X014294Y014829D01*
X014294Y014480D01*
X014006Y014480D01*
X014006Y014829D01*
X014034Y014857D01*
X014034Y015454D01*
X013946Y015541D01*
X013606Y015541D01*
X013518Y015454D01*
X013518Y014857D01*
X013546Y014829D01*
X013546Y014480D01*
X012650Y014480D01*
X012650Y014486D02*
X013546Y014486D01*
X013546Y014584D02*
X012650Y014584D01*
X012650Y014683D02*
X013546Y014683D01*
X013546Y014781D02*
X012650Y014781D01*
X012650Y014880D02*
X013518Y014880D01*
X013518Y014978D02*
X012650Y014978D01*
X012650Y015077D02*
X013518Y015077D01*
X013518Y015175D02*
X012650Y015175D01*
X012650Y015274D02*
X013518Y015274D01*
X013518Y015372D02*
X012650Y015372D01*
X012650Y015471D02*
X013535Y015471D01*
X014017Y015471D02*
X014283Y015471D01*
X014266Y015372D02*
X014034Y015372D01*
X014034Y015274D02*
X014266Y015274D01*
X014266Y015175D02*
X014034Y015175D01*
X014034Y015077D02*
X014266Y015077D01*
X014266Y014978D02*
X014034Y014978D01*
X014034Y014880D02*
X014266Y014880D01*
X014294Y014781D02*
X014006Y014781D01*
X014006Y014683D02*
X014294Y014683D01*
X014294Y014584D02*
X014006Y014584D01*
X014006Y014486D02*
X014294Y014486D01*
X014150Y014605D02*
X014150Y015155D01*
X014782Y014880D02*
X015650Y014880D01*
X015650Y014978D02*
X014911Y014978D01*
X015010Y015077D02*
X015022Y015077D01*
X014754Y014781D02*
X015650Y014781D01*
X015650Y014683D02*
X014754Y014683D01*
X014754Y014584D02*
X015650Y014584D01*
X015650Y014486D02*
X014754Y014486D01*
X015528Y015077D02*
X015650Y015077D01*
X015650Y015175D02*
X015612Y015175D01*
X015612Y015274D02*
X015650Y015274D01*
X015650Y015372D02*
X015612Y015372D01*
X015612Y015471D02*
X015650Y015471D01*
X015650Y015569D02*
X015587Y015569D01*
X015650Y015668D02*
X012650Y015668D01*
X012650Y015766D02*
X012712Y015766D01*
X012688Y015865D02*
X012650Y015865D01*
X012650Y015963D02*
X012688Y015963D01*
X012688Y016062D02*
X012650Y016062D01*
X012650Y016160D02*
X012688Y016160D01*
X012650Y016259D02*
X012773Y016259D01*
X012650Y016357D02*
X013390Y016357D01*
X013291Y016259D02*
X013277Y016259D01*
X013518Y016456D02*
X012650Y016456D01*
X012650Y016554D02*
X013545Y016554D01*
X013776Y016179D02*
X013775Y016117D01*
X014034Y016160D02*
X014266Y016160D01*
X014266Y016062D02*
X014034Y016062D01*
X014034Y015963D02*
X014266Y015963D01*
X014266Y015881D02*
X014354Y015793D01*
X014694Y015793D01*
X014782Y015881D01*
X014782Y016477D01*
X014694Y016565D01*
X014354Y016565D01*
X014266Y016477D01*
X014266Y015881D01*
X014282Y015865D02*
X014018Y015865D01*
X014034Y016259D02*
X014266Y016259D01*
X014266Y016357D02*
X014034Y016357D01*
X014034Y016456D02*
X014266Y016456D01*
X014343Y016554D02*
X014005Y016554D01*
X014705Y016554D02*
X015650Y016554D01*
X015650Y016456D02*
X014782Y016456D01*
X014782Y016357D02*
X015650Y016357D01*
X015650Y016259D02*
X014782Y016259D01*
X014782Y016160D02*
X015650Y016160D01*
X015650Y016062D02*
X014782Y016062D01*
X014782Y015963D02*
X015650Y015963D01*
X015650Y015865D02*
X014766Y015865D01*
X014852Y015569D02*
X012650Y015569D01*
X013449Y015766D02*
X015650Y015766D01*
X011671Y012220D02*
X011426Y012220D01*
X011400Y012122D02*
X011554Y012122D01*
X011507Y012023D02*
X011400Y012023D01*
X011400Y011925D02*
X011490Y011925D01*
X011491Y011826D02*
X011400Y011826D01*
X011400Y011728D02*
X011468Y011728D01*
X011468Y011629D02*
X011400Y011629D01*
X011400Y011531D02*
X011468Y011531D01*
X011468Y011432D02*
X011400Y011432D01*
X011400Y011334D02*
X011468Y011334D01*
X011468Y011235D02*
X011400Y011235D01*
X011400Y011137D02*
X011487Y011137D01*
X011525Y011038D02*
X011400Y011038D01*
X011400Y010940D02*
X011525Y010940D01*
X011486Y010841D02*
X011400Y010841D01*
X011400Y010743D02*
X011468Y010743D01*
X011468Y010644D02*
X011400Y010644D01*
X011400Y010546D02*
X011468Y010546D01*
X011468Y010447D02*
X011400Y010447D01*
X011400Y010349D02*
X011494Y010349D01*
X011576Y010250D02*
X011400Y010250D01*
X011400Y010152D02*
X012155Y010152D01*
X012155Y010250D02*
X012094Y010250D01*
X012155Y010053D02*
X011400Y010053D01*
X011400Y009955D02*
X012112Y009955D01*
X012097Y009856D02*
X011400Y009856D01*
X011400Y009758D02*
X012097Y009758D01*
X012097Y009659D02*
X011400Y009659D01*
X011400Y009561D02*
X012097Y009561D01*
X012129Y009462D02*
X011400Y009462D01*
X011400Y009364D02*
X012229Y009364D01*
X012193Y009167D02*
X011400Y009167D01*
X011400Y009265D02*
X012900Y009265D01*
X012900Y009167D02*
X012737Y009167D01*
X012701Y009364D02*
X012900Y009364D01*
X012900Y010053D02*
X012775Y010053D01*
X012775Y010152D02*
X012900Y010152D01*
X012900Y010250D02*
X012775Y010250D01*
X012805Y010349D02*
X012900Y010349D01*
X012832Y010447D02*
X016440Y010447D01*
X016440Y010546D02*
X012832Y010546D01*
X012832Y010644D02*
X016440Y010644D01*
X016440Y010743D02*
X012832Y010743D01*
X012814Y010841D02*
X016440Y010841D01*
X016440Y010940D02*
X012744Y010940D01*
X012186Y010940D02*
X012145Y010940D01*
X012145Y011038D02*
X016440Y011038D01*
X016440Y011137D02*
X012183Y011137D01*
X012203Y011235D02*
X016440Y011235D01*
X016440Y011334D02*
X012203Y011334D01*
X012203Y011432D02*
X016440Y011432D01*
X016440Y011531D02*
X012203Y011531D01*
X012203Y011629D02*
X016440Y011629D01*
X016440Y011728D02*
X012203Y011728D01*
X012179Y011826D02*
X016440Y011826D01*
X012119Y009068D02*
X011400Y009068D01*
X011400Y008970D02*
X012097Y008970D01*
X012097Y008871D02*
X011400Y008871D01*
X011400Y008773D02*
X012097Y008773D01*
X012097Y008674D02*
X011400Y008674D01*
D30*
X015900Y013105D02*
X016256Y012748D01*
X016900Y012748D01*
X016900Y013883D01*
X015900Y013105D02*
X015134Y013105D01*
D31*
X012838Y005852D02*
X012838Y004605D01*
X013150Y004292D01*
X013150Y002355D01*
X015544Y005667D02*
X018150Y003061D01*
X018150Y003044D01*
D32*
X015544Y005667D02*
X015544Y007461D01*
X014900Y008105D01*
D33*
X014900Y008825D01*
D34*
X013900Y008825D02*
X013900Y009480D01*
X013650Y009730D01*
X012465Y009730D01*
X012465Y010605D01*
X011835Y010605D02*
X011835Y011480D01*
X011835Y011915D01*
X012465Y008825D02*
X013400Y008825D01*
D35*
X016400Y015576D02*
X016900Y015576D01*
M02*
