%
M48
M72
T01C0.0130
T02C0.0236
T03C0.0276
T04C0.0315
T05C0.0354
T06C0.0472
T07C0.1969
T08C0.2000
%
T01
X6775Y1666
X9400Y4105
X11835Y11915
X14150Y14605
X16400Y15576
X18276Y18731
X20650Y20355
X13323Y18855
X11775Y19605
X11150Y18855
X10399Y20479
X8025Y18855
X22150Y730
T02
X15544Y5667
X14756Y5667
T03
X15134Y13105
X13166Y13105
T04
X16900Y12748
X16900Y11961
X18150Y3044
X18150Y1666
X23769Y1125
X24531Y1725
X23769Y2325
X24531Y2825
X10150Y3044
X10150Y1666
X4531Y1725
X3769Y2325
X4531Y2825
X3769Y1125
T05
X12838Y5852
X12838Y7230
X13323Y20577
X12323Y20577
X14323Y20577
X15323Y20577
X16323Y20577
T06
X15150Y2355
X13150Y2355
T07
X27020Y1975
T08
X1626Y1975
M30
