G75*
%MOIN*%
%OFA0B0*%
%FSLAX24Y24*%
%IPPOS*%
%LPD*%
%AMOC8*
5,1,8,0,0,1.08239X$1,22.5*
%
%ADD10R,0.0197X0.0354*%
%ADD11R,0.0240X0.0870*%
%ADD12R,0.0315X0.0472*%
%ADD13R,0.0610X0.0236*%
%ADD14R,0.0579X0.0500*%
%ADD15C,0.0094*%
%ADD16R,0.0217X0.0472*%
D10*
X009651Y020353D03*
X010025Y020353D03*
X010399Y020353D03*
X010399Y021219D03*
X010025Y021219D03*
X009651Y021219D03*
X018276Y021219D03*
X018650Y021219D03*
X019024Y021219D03*
X019024Y020353D03*
X018650Y020353D03*
X018276Y020353D03*
D11*
X014900Y012066D03*
X014400Y012066D03*
X013900Y012066D03*
X013400Y012066D03*
X013400Y010006D03*
X013900Y010006D03*
X014900Y010006D03*
D12*
X012544Y012661D03*
X011835Y012661D03*
D13*
X005837Y002786D03*
X005837Y003286D03*
X005837Y003786D03*
X005837Y004286D03*
X007963Y004286D03*
X007963Y003786D03*
X007963Y003286D03*
X007963Y002786D03*
X020337Y002786D03*
X020337Y003286D03*
X020337Y003786D03*
X020337Y004286D03*
X022463Y004286D03*
X022463Y003786D03*
X022463Y003286D03*
X022463Y002786D03*
D14*
X016150Y010190D03*
X016150Y011882D03*
X016900Y015065D03*
X016900Y016757D03*
X011123Y007769D03*
X011123Y006076D03*
D15*
X009040Y006081D02*
X009040Y005861D01*
X008760Y005861D01*
X008760Y006081D01*
X009040Y006081D01*
X009040Y005954D02*
X008760Y005954D01*
X008760Y006047D02*
X009040Y006047D01*
X009040Y006491D02*
X009040Y006711D01*
X009040Y006491D02*
X008760Y006491D01*
X008760Y006711D01*
X009040Y006711D01*
X009040Y006584D02*
X008760Y006584D01*
X008760Y006677D02*
X009040Y006677D01*
X007325Y005301D02*
X007105Y005301D01*
X007325Y005301D02*
X007325Y005021D01*
X007105Y005021D01*
X007105Y005301D01*
X007105Y005114D02*
X007325Y005114D01*
X007325Y005207D02*
X007105Y005207D01*
X007105Y005300D02*
X007325Y005300D01*
X006695Y005301D02*
X006475Y005301D01*
X006695Y005301D02*
X006695Y005021D01*
X006475Y005021D01*
X006475Y005301D01*
X006475Y005114D02*
X006695Y005114D01*
X006695Y005207D02*
X006475Y005207D01*
X006475Y005300D02*
X006695Y005300D01*
X006695Y001771D02*
X006475Y001771D01*
X006475Y002051D01*
X006695Y002051D01*
X006695Y001771D01*
X006695Y001864D02*
X006475Y001864D01*
X006475Y001957D02*
X006695Y001957D01*
X006695Y002050D02*
X006475Y002050D01*
X007105Y001771D02*
X007325Y001771D01*
X007105Y001771D02*
X007105Y002051D01*
X007325Y002051D01*
X007325Y001771D01*
X007325Y001864D02*
X007105Y001864D01*
X007105Y001957D02*
X007325Y001957D01*
X007325Y002050D02*
X007105Y002050D01*
X007975Y002051D02*
X008195Y002051D01*
X008195Y001771D01*
X007975Y001771D01*
X007975Y002051D01*
X007975Y001864D02*
X008195Y001864D01*
X008195Y001957D02*
X007975Y001957D01*
X007975Y002050D02*
X008195Y002050D01*
X008605Y002051D02*
X008825Y002051D01*
X008825Y001771D01*
X008605Y001771D01*
X008605Y002051D01*
X008605Y001864D02*
X008825Y001864D01*
X008825Y001957D02*
X008605Y001957D01*
X008605Y002050D02*
X008825Y002050D01*
X011725Y009866D02*
X011945Y009866D01*
X011725Y009866D02*
X011725Y010146D01*
X011945Y010146D01*
X011945Y009866D01*
X011945Y009959D02*
X011725Y009959D01*
X011725Y010052D02*
X011945Y010052D01*
X011945Y010145D02*
X011725Y010145D01*
X012355Y009866D02*
X012575Y009866D01*
X012355Y009866D02*
X012355Y010146D01*
X012575Y010146D01*
X012575Y009866D01*
X012575Y009959D02*
X012355Y009959D01*
X012355Y010052D02*
X012575Y010052D01*
X012575Y010145D02*
X012355Y010145D01*
X012355Y011051D02*
X012575Y011051D01*
X012575Y010771D01*
X012355Y010771D01*
X012355Y011051D01*
X012355Y010864D02*
X012575Y010864D01*
X012575Y010957D02*
X012355Y010957D01*
X012355Y011050D02*
X012575Y011050D01*
X011945Y011051D02*
X011725Y011051D01*
X011945Y011051D02*
X011945Y010771D01*
X011725Y010771D01*
X011725Y011051D01*
X011725Y010864D02*
X011945Y010864D01*
X011945Y010957D02*
X011725Y010957D01*
X011725Y011050D02*
X011945Y011050D01*
X011945Y011926D02*
X011725Y011926D01*
X011945Y011926D02*
X011945Y011646D01*
X011725Y011646D01*
X011725Y011926D01*
X011725Y011739D02*
X011945Y011739D01*
X011945Y011832D02*
X011725Y011832D01*
X011725Y011925D02*
X011945Y011925D01*
X012355Y011926D02*
X012575Y011926D01*
X012575Y011646D01*
X012355Y011646D01*
X012355Y011926D01*
X012355Y011739D02*
X012575Y011739D01*
X012575Y011832D02*
X012355Y011832D01*
X012355Y011925D02*
X012575Y011925D01*
X012885Y016361D02*
X012885Y016581D01*
X013165Y016581D01*
X013165Y016361D01*
X012885Y016361D01*
X012885Y016454D02*
X013165Y016454D01*
X013165Y016547D02*
X012885Y016547D01*
X012885Y016991D02*
X012885Y017211D01*
X013165Y017211D01*
X013165Y016991D01*
X012885Y016991D01*
X012885Y017084D02*
X013165Y017084D01*
X013165Y017177D02*
X012885Y017177D01*
X015415Y017211D02*
X015415Y016991D01*
X015135Y016991D01*
X015135Y017211D01*
X015415Y017211D01*
X015415Y017084D02*
X015135Y017084D01*
X015135Y017177D02*
X015415Y017177D01*
X015415Y016581D02*
X015415Y016361D01*
X015135Y016361D01*
X015135Y016581D01*
X015415Y016581D01*
X015415Y016454D02*
X015135Y016454D01*
X015135Y016547D02*
X015415Y016547D01*
X017385Y020361D02*
X017385Y020581D01*
X017665Y020581D01*
X017665Y020361D01*
X017385Y020361D01*
X017385Y020454D02*
X017665Y020454D01*
X017665Y020547D02*
X017385Y020547D01*
X017385Y020991D02*
X017385Y021211D01*
X017665Y021211D01*
X017665Y020991D01*
X017385Y020991D01*
X017385Y021084D02*
X017665Y021084D01*
X017665Y021177D02*
X017385Y021177D01*
X019635Y021211D02*
X019635Y020991D01*
X019635Y021211D02*
X019915Y021211D01*
X019915Y020991D01*
X019635Y020991D01*
X019635Y021084D02*
X019915Y021084D01*
X019915Y021177D02*
X019635Y021177D01*
X019635Y020581D02*
X019635Y020361D01*
X019635Y020581D02*
X019915Y020581D01*
X019915Y020361D01*
X019635Y020361D01*
X019635Y020454D02*
X019915Y020454D01*
X019915Y020547D02*
X019635Y020547D01*
X020790Y020581D02*
X020790Y020361D01*
X020510Y020361D01*
X020510Y020581D01*
X020790Y020581D01*
X020790Y020454D02*
X020510Y020454D01*
X020510Y020547D02*
X020790Y020547D01*
X020790Y020991D02*
X020790Y021211D01*
X020790Y020991D02*
X020510Y020991D01*
X020510Y021211D01*
X020790Y021211D01*
X020790Y021084D02*
X020510Y021084D01*
X020510Y021177D02*
X020790Y021177D01*
X011290Y021211D02*
X011290Y020991D01*
X011010Y020991D01*
X011010Y021211D01*
X011290Y021211D01*
X011290Y021084D02*
X011010Y021084D01*
X011010Y021177D02*
X011290Y021177D01*
X011290Y020581D02*
X011290Y020361D01*
X011010Y020361D01*
X011010Y020581D01*
X011290Y020581D01*
X011290Y020454D02*
X011010Y020454D01*
X011010Y020547D02*
X011290Y020547D01*
X009040Y020581D02*
X009040Y020361D01*
X008760Y020361D01*
X008760Y020581D01*
X009040Y020581D01*
X009040Y020454D02*
X008760Y020454D01*
X008760Y020547D02*
X009040Y020547D01*
X009040Y020991D02*
X009040Y021211D01*
X009040Y020991D02*
X008760Y020991D01*
X008760Y021211D01*
X009040Y021211D01*
X009040Y021084D02*
X008760Y021084D01*
X008760Y021177D02*
X009040Y021177D01*
X007885Y021211D02*
X007885Y020991D01*
X007885Y021211D02*
X008165Y021211D01*
X008165Y020991D01*
X007885Y020991D01*
X007885Y021084D02*
X008165Y021084D01*
X008165Y021177D02*
X007885Y021177D01*
X007885Y020581D02*
X007885Y020361D01*
X007885Y020581D02*
X008165Y020581D01*
X008165Y020361D01*
X007885Y020361D01*
X007885Y020454D02*
X008165Y020454D01*
X008165Y020547D02*
X007885Y020547D01*
X020975Y005301D02*
X021195Y005301D01*
X021195Y005021D01*
X020975Y005021D01*
X020975Y005301D01*
X020975Y005114D02*
X021195Y005114D01*
X021195Y005207D02*
X020975Y005207D01*
X020975Y005300D02*
X021195Y005300D01*
X021605Y005301D02*
X021825Y005301D01*
X021825Y005021D01*
X021605Y005021D01*
X021605Y005301D01*
X021605Y005114D02*
X021825Y005114D01*
X021825Y005207D02*
X021605Y005207D01*
X021605Y005300D02*
X021825Y005300D01*
X021825Y001771D02*
X021605Y001771D01*
X021605Y002051D01*
X021825Y002051D01*
X021825Y001771D01*
X021825Y001864D02*
X021605Y001864D01*
X021605Y001957D02*
X021825Y001957D01*
X021825Y002050D02*
X021605Y002050D01*
X021195Y001771D02*
X020975Y001771D01*
X020975Y002051D01*
X021195Y002051D01*
X021195Y001771D01*
X021195Y001864D02*
X020975Y001864D01*
X020975Y001957D02*
X021195Y001957D01*
X021195Y002050D02*
X020975Y002050D01*
D16*
X014524Y016274D03*
X014150Y016274D03*
X013776Y016274D03*
X013776Y017298D03*
X014524Y017298D03*
M02*
