G75*
%MOIN*%
%OFA0B0*%
%FSLAX24Y24*%
%IPPOS*%
%LPD*%
%AMOC8*
5,1,8,0,0,1.08239X$1,22.5*
%
%ADD10C,0.2060*%
%ADD11C,0.2029*%
%ADD12R,0.0315X0.0472*%
%ADD13OC8,0.0560*%
%ADD14C,0.0560*%
%ADD15OC8,0.0690*%
%ADD16C,0.0690*%
%ADD17C,0.0920*%
%ADD18R,0.0300X0.0930*%
%ADD19R,0.0375X0.0532*%
%ADD20R,0.0670X0.0296*%
%ADD21R,0.0639X0.0560*%
%ADD22C,0.0112*%
%ADD23C,0.0760*%
%ADD24C,0.1143*%
%ADD25R,0.0277X0.0532*%
D10*
X001626Y003156D03*
D11*
X027020Y003156D03*
D12*
X019024Y020353D03*
X018650Y020353D03*
X018276Y020353D03*
X018276Y021219D03*
X018650Y021219D03*
X019024Y021219D03*
X010399Y021219D03*
X010025Y021219D03*
X009651Y021219D03*
X009651Y020353D03*
X010025Y020353D03*
X010399Y020353D03*
D13*
X016900Y013142D03*
X024531Y002906D03*
X004531Y002906D03*
D14*
X003769Y002306D03*
X003769Y003506D03*
X004531Y004006D03*
X016900Y013930D03*
X024531Y004006D03*
X023769Y003506D03*
X023769Y002306D03*
D15*
X018150Y002847D03*
X010150Y002847D03*
D16*
X010150Y004225D03*
X013150Y007286D03*
X013150Y008664D03*
X015006Y007286D03*
X015794Y007286D03*
X018150Y004225D03*
D17*
X015134Y014286D03*
X013166Y014286D03*
D18*
X013400Y012066D03*
X013900Y012066D03*
X014400Y012066D03*
X014900Y012066D03*
X014900Y010006D03*
X013900Y010006D03*
X013400Y010006D03*
D19*
X012544Y012661D03*
X011835Y012661D03*
D20*
X007963Y004286D03*
X007963Y003786D03*
X007963Y003286D03*
X007963Y002786D03*
X005837Y002786D03*
X005837Y003286D03*
X005837Y003786D03*
X005837Y004286D03*
X020337Y004286D03*
X020337Y003786D03*
X020337Y003286D03*
X020337Y002786D03*
X022463Y002786D03*
X022463Y003286D03*
X022463Y003786D03*
X022463Y004286D03*
D21*
X016150Y010190D03*
X016150Y011882D03*
X016900Y015065D03*
X016900Y016757D03*
X011123Y007769D03*
X011123Y006076D03*
D22*
X009061Y006102D02*
X009061Y005840D01*
X008739Y005840D01*
X008739Y006102D01*
X009061Y006102D01*
X009061Y005951D02*
X008739Y005951D01*
X008739Y006062D02*
X009061Y006062D01*
X009061Y006470D02*
X009061Y006732D01*
X009061Y006470D02*
X008739Y006470D01*
X008739Y006732D01*
X009061Y006732D01*
X009061Y006581D02*
X008739Y006581D01*
X008739Y006692D02*
X009061Y006692D01*
X007346Y005322D02*
X007084Y005322D01*
X007346Y005322D02*
X007346Y005000D01*
X007084Y005000D01*
X007084Y005322D01*
X007084Y005111D02*
X007346Y005111D01*
X007346Y005222D02*
X007084Y005222D01*
X006716Y005322D02*
X006454Y005322D01*
X006716Y005322D02*
X006716Y005000D01*
X006454Y005000D01*
X006454Y005322D01*
X006454Y005111D02*
X006716Y005111D01*
X006716Y005222D02*
X006454Y005222D01*
X006454Y001750D02*
X006716Y001750D01*
X006454Y001750D02*
X006454Y002072D01*
X006716Y002072D01*
X006716Y001750D01*
X006716Y001861D02*
X006454Y001861D01*
X006454Y001972D02*
X006716Y001972D01*
X007084Y001750D02*
X007346Y001750D01*
X007084Y001750D02*
X007084Y002072D01*
X007346Y002072D01*
X007346Y001750D01*
X007346Y001861D02*
X007084Y001861D01*
X007084Y001972D02*
X007346Y001972D01*
X007954Y002072D02*
X008216Y002072D01*
X008216Y001750D01*
X007954Y001750D01*
X007954Y002072D01*
X007954Y001861D02*
X008216Y001861D01*
X008216Y001972D02*
X007954Y001972D01*
X008584Y002072D02*
X008846Y002072D01*
X008846Y001750D01*
X008584Y001750D01*
X008584Y002072D01*
X008584Y001861D02*
X008846Y001861D01*
X008846Y001972D02*
X008584Y001972D01*
X011704Y009845D02*
X011966Y009845D01*
X011704Y009845D02*
X011704Y010167D01*
X011966Y010167D01*
X011966Y009845D01*
X011966Y009956D02*
X011704Y009956D01*
X011704Y010067D02*
X011966Y010067D01*
X012334Y009845D02*
X012596Y009845D01*
X012334Y009845D02*
X012334Y010167D01*
X012596Y010167D01*
X012596Y009845D01*
X012596Y009956D02*
X012334Y009956D01*
X012334Y010067D02*
X012596Y010067D01*
X012596Y011072D02*
X012334Y011072D01*
X012596Y011072D02*
X012596Y010750D01*
X012334Y010750D01*
X012334Y011072D01*
X012334Y010861D02*
X012596Y010861D01*
X012596Y010972D02*
X012334Y010972D01*
X011966Y011072D02*
X011704Y011072D01*
X011966Y011072D02*
X011966Y010750D01*
X011704Y010750D01*
X011704Y011072D01*
X011704Y010861D02*
X011966Y010861D01*
X011966Y010972D02*
X011704Y010972D01*
X011704Y011947D02*
X011966Y011947D01*
X011966Y011625D01*
X011704Y011625D01*
X011704Y011947D01*
X011704Y011736D02*
X011966Y011736D01*
X011966Y011847D02*
X011704Y011847D01*
X012334Y011947D02*
X012596Y011947D01*
X012596Y011625D01*
X012334Y011625D01*
X012334Y011947D01*
X012334Y011736D02*
X012596Y011736D01*
X012596Y011847D02*
X012334Y011847D01*
X012864Y016340D02*
X012864Y016602D01*
X013186Y016602D01*
X013186Y016340D01*
X012864Y016340D01*
X012864Y016451D02*
X013186Y016451D01*
X013186Y016562D02*
X012864Y016562D01*
X012864Y016970D02*
X012864Y017232D01*
X013186Y017232D01*
X013186Y016970D01*
X012864Y016970D01*
X012864Y017081D02*
X013186Y017081D01*
X013186Y017192D02*
X012864Y017192D01*
X015436Y017232D02*
X015436Y016970D01*
X015114Y016970D01*
X015114Y017232D01*
X015436Y017232D01*
X015436Y017081D02*
X015114Y017081D01*
X015114Y017192D02*
X015436Y017192D01*
X015436Y016602D02*
X015436Y016340D01*
X015114Y016340D01*
X015114Y016602D01*
X015436Y016602D01*
X015436Y016451D02*
X015114Y016451D01*
X015114Y016562D02*
X015436Y016562D01*
X017364Y020340D02*
X017364Y020602D01*
X017686Y020602D01*
X017686Y020340D01*
X017364Y020340D01*
X017364Y020451D02*
X017686Y020451D01*
X017686Y020562D02*
X017364Y020562D01*
X017364Y020970D02*
X017364Y021232D01*
X017686Y021232D01*
X017686Y020970D01*
X017364Y020970D01*
X017364Y021081D02*
X017686Y021081D01*
X017686Y021192D02*
X017364Y021192D01*
X019614Y021232D02*
X019614Y020970D01*
X019614Y021232D02*
X019936Y021232D01*
X019936Y020970D01*
X019614Y020970D01*
X019614Y021081D02*
X019936Y021081D01*
X019936Y021192D02*
X019614Y021192D01*
X019614Y020602D02*
X019614Y020340D01*
X019614Y020602D02*
X019936Y020602D01*
X019936Y020340D01*
X019614Y020340D01*
X019614Y020451D02*
X019936Y020451D01*
X019936Y020562D02*
X019614Y020562D01*
X020811Y020602D02*
X020811Y020340D01*
X020489Y020340D01*
X020489Y020602D01*
X020811Y020602D01*
X020811Y020451D02*
X020489Y020451D01*
X020489Y020562D02*
X020811Y020562D01*
X020811Y020970D02*
X020811Y021232D01*
X020811Y020970D02*
X020489Y020970D01*
X020489Y021232D01*
X020811Y021232D01*
X020811Y021081D02*
X020489Y021081D01*
X020489Y021192D02*
X020811Y021192D01*
X011311Y021232D02*
X011311Y020970D01*
X010989Y020970D01*
X010989Y021232D01*
X011311Y021232D01*
X011311Y021081D02*
X010989Y021081D01*
X010989Y021192D02*
X011311Y021192D01*
X011311Y020602D02*
X011311Y020340D01*
X010989Y020340D01*
X010989Y020602D01*
X011311Y020602D01*
X011311Y020451D02*
X010989Y020451D01*
X010989Y020562D02*
X011311Y020562D01*
X009061Y020602D02*
X009061Y020340D01*
X008739Y020340D01*
X008739Y020602D01*
X009061Y020602D01*
X009061Y020451D02*
X008739Y020451D01*
X008739Y020562D02*
X009061Y020562D01*
X009061Y020970D02*
X009061Y021232D01*
X009061Y020970D02*
X008739Y020970D01*
X008739Y021232D01*
X009061Y021232D01*
X009061Y021081D02*
X008739Y021081D01*
X008739Y021192D02*
X009061Y021192D01*
X007864Y021232D02*
X007864Y020970D01*
X007864Y021232D02*
X008186Y021232D01*
X008186Y020970D01*
X007864Y020970D01*
X007864Y021081D02*
X008186Y021081D01*
X008186Y021192D02*
X007864Y021192D01*
X007864Y020602D02*
X007864Y020340D01*
X007864Y020602D02*
X008186Y020602D01*
X008186Y020340D01*
X007864Y020340D01*
X007864Y020451D02*
X008186Y020451D01*
X008186Y020562D02*
X007864Y020562D01*
X020954Y005322D02*
X021216Y005322D01*
X021216Y005000D01*
X020954Y005000D01*
X020954Y005322D01*
X020954Y005111D02*
X021216Y005111D01*
X021216Y005222D02*
X020954Y005222D01*
X021584Y005322D02*
X021846Y005322D01*
X021846Y005000D01*
X021584Y005000D01*
X021584Y005322D01*
X021584Y005111D02*
X021846Y005111D01*
X021846Y005222D02*
X021584Y005222D01*
X021584Y001750D02*
X021846Y001750D01*
X021584Y001750D02*
X021584Y002072D01*
X021846Y002072D01*
X021846Y001750D01*
X021846Y001861D02*
X021584Y001861D01*
X021584Y001972D02*
X021846Y001972D01*
X021216Y001750D02*
X020954Y001750D01*
X020954Y002072D01*
X021216Y002072D01*
X021216Y001750D01*
X021216Y001861D02*
X020954Y001861D01*
X020954Y001972D02*
X021216Y001972D01*
D23*
X016323Y021758D03*
X015323Y021758D03*
X014323Y021758D03*
X013323Y021758D03*
X012323Y021758D03*
D24*
X013150Y003536D03*
X015150Y003536D03*
D25*
X014524Y016274D03*
X014150Y016274D03*
X013776Y016274D03*
X013776Y017298D03*
X014524Y017298D03*
M02*
