G75*
%MOIN*%
%OFA0B0*%
%FSLAX24Y24*%
%IPPOS*%
%LPD*%
%AMOC8*
5,1,8,0,0,1.08239X$1,22.5*
%
%ADD10OC8,0.0500*%
%ADD11C,0.0500*%
%ADD12OC8,0.0630*%
%ADD13C,0.0630*%
%ADD14C,0.0700*%
%ADD15C,0.1083*%
%ADD16C,0.0376*%
%ADD17C,0.0416*%
%ADD18C,0.0550*%
%ADD19C,0.0270*%
%ADD20C,0.0160*%
%ADD21C,0.0280*%
%ADD22C,0.0100*%
D10*
X004531Y001725D03*
X016900Y011961D03*
X024531Y001725D03*
D11*
X003769Y001125D03*
X003769Y002325D03*
X004531Y002825D03*
X016900Y012748D03*
X024531Y002825D03*
X023769Y002325D03*
X023769Y001125D03*
D12*
X018150Y001666D03*
X010150Y001666D03*
D13*
X010150Y003044D03*
X012838Y005852D03*
X012838Y007230D03*
X018150Y003044D03*
D14*
X016323Y020577D03*
X015323Y020577D03*
X014323Y020577D03*
X013323Y020577D03*
X012323Y020577D03*
D15*
X013150Y002355D03*
X015150Y002355D03*
D16*
X014756Y005667D03*
X015544Y005667D03*
D17*
X015134Y013105D03*
X013166Y013105D03*
D18*
X016900Y011961D02*
X016900Y004105D01*
X015150Y002355D01*
X015150Y001230D01*
X015775Y000605D01*
X017089Y000605D01*
X018150Y001666D01*
X015150Y001230D02*
X014525Y000605D01*
X011211Y000605D01*
X010150Y001666D01*
X010150Y003044D02*
X011214Y003044D01*
X012150Y003980D01*
X013069Y003980D01*
X014756Y005667D01*
D19*
X009400Y004105D03*
X006775Y001666D03*
X011835Y011915D03*
X014150Y014605D03*
X016400Y015576D03*
X018276Y018731D03*
X020650Y020355D03*
X013323Y018855D03*
X011775Y019605D03*
X011150Y018855D03*
X010399Y020479D03*
X008025Y018855D03*
X022150Y000730D03*
D20*
X019086Y000730D01*
X018150Y001666D01*
X010150Y001666D02*
X006775Y001666D01*
X005661Y002855D02*
X004531Y001725D01*
X005661Y002855D02*
X008150Y002855D01*
X009400Y004105D01*
X011150Y018855D02*
X013323Y018855D01*
X013975Y019229D02*
X011649Y019229D01*
X010399Y020479D01*
X011775Y019605D02*
X013351Y019605D01*
X014323Y020577D01*
X015323Y020577D02*
X013975Y019229D01*
X016323Y020577D02*
X016928Y020577D01*
X018275Y019230D01*
X018275Y018732D01*
X018276Y018731D01*
D21*
X016400Y015576D02*
X014121Y015576D01*
X011835Y013290D01*
X011835Y011915D01*
X014150Y012605D02*
X014794Y011961D01*
X016900Y011961D01*
X014150Y012605D02*
X014150Y014605D01*
D22*
X010386Y014584D02*
X000350Y014584D01*
X000350Y014486D02*
X010386Y014486D01*
X010386Y014387D02*
X000350Y014387D01*
X000350Y014289D02*
X010386Y014289D01*
X010386Y014190D02*
X000350Y014190D01*
X000350Y014092D02*
X010386Y014092D01*
X010386Y013993D02*
X000350Y013993D01*
X000350Y013895D02*
X010386Y013895D01*
X010386Y013796D02*
X000350Y013796D01*
X000350Y013698D02*
X010386Y013698D01*
X010386Y013599D02*
X000350Y013599D01*
X000350Y013501D02*
X010386Y013501D01*
X010386Y013402D02*
X000350Y013402D01*
X000350Y013304D02*
X010386Y013304D01*
X010386Y013205D02*
X000350Y013205D01*
X000350Y013107D02*
X010386Y013107D01*
X010386Y013008D02*
X000350Y013008D01*
X000350Y012910D02*
X010386Y012910D01*
X010386Y012811D02*
X000350Y012811D01*
X000350Y012713D02*
X010386Y012713D01*
X010386Y012614D02*
X000350Y012614D01*
X000350Y012516D02*
X010386Y012516D01*
X010386Y012417D02*
X000350Y012417D01*
X000350Y012319D02*
X010386Y012319D01*
X010386Y012220D02*
X000350Y012220D01*
X000350Y012122D02*
X010386Y012122D01*
X010386Y012023D02*
X000350Y012023D01*
X000350Y011925D02*
X010386Y011925D01*
X010386Y011826D02*
X000350Y011826D01*
X000350Y011728D02*
X010386Y011728D01*
X010386Y011629D02*
X000350Y011629D01*
X000350Y011531D02*
X010386Y011531D01*
X010386Y011432D02*
X000350Y011432D01*
X000350Y011334D02*
X010386Y011334D01*
X010386Y011235D02*
X000350Y011235D01*
X000350Y011137D02*
X010386Y011137D01*
X010386Y011038D02*
X000350Y011038D01*
X000350Y010940D02*
X010386Y010940D01*
X010386Y010841D02*
X000350Y010841D01*
X000350Y010743D02*
X010386Y010743D01*
X010386Y010644D02*
X000350Y010644D01*
X000350Y010546D02*
X010386Y010546D01*
X010386Y010447D02*
X000350Y010447D01*
X000350Y010349D02*
X010386Y010349D01*
X010386Y010250D02*
X000350Y010250D01*
X000350Y010152D02*
X010386Y010152D01*
X010386Y010053D02*
X000350Y010053D01*
X000350Y009955D02*
X010386Y009955D01*
X010386Y009856D02*
X000350Y009856D01*
X000350Y009758D02*
X010386Y009758D01*
X010386Y009659D02*
X000350Y009659D01*
X000350Y009561D02*
X010386Y009561D01*
X010386Y009462D02*
X000350Y009462D01*
X000350Y009364D02*
X010386Y009364D01*
X010386Y009265D02*
X000350Y009265D01*
X000350Y009167D02*
X010386Y009167D01*
X010386Y009068D02*
X000350Y009068D01*
X000350Y008970D02*
X010386Y008970D01*
X010386Y008871D02*
X000350Y008871D01*
X000350Y008773D02*
X010386Y008773D01*
X010386Y008674D02*
X000350Y008674D01*
X000350Y008576D02*
X010386Y008576D01*
X010386Y008477D02*
X000350Y008477D01*
X000350Y008379D02*
X010386Y008379D01*
X010386Y008280D02*
X000350Y008280D01*
X000350Y008182D02*
X010386Y008182D01*
X010386Y008083D02*
X000350Y008083D01*
X000350Y007985D02*
X010386Y007985D01*
X010386Y007886D02*
X000350Y007886D01*
X000350Y007788D02*
X010386Y007788D01*
X010386Y007689D02*
X000350Y007689D01*
X000350Y007591D02*
X010386Y007591D01*
X010386Y007492D02*
X000350Y007492D01*
X000350Y007394D02*
X010386Y007394D01*
X010386Y007295D02*
X000350Y007295D01*
X000350Y007197D02*
X010386Y007197D01*
X010386Y007098D02*
X000350Y007098D01*
X000350Y007000D02*
X010386Y007000D01*
X010386Y006901D02*
X000350Y006901D01*
X000350Y006803D02*
X010386Y006803D01*
X010386Y006704D02*
X000350Y006704D01*
X000350Y006606D02*
X010386Y006606D01*
X010386Y006507D02*
X000350Y006507D01*
X000350Y006409D02*
X010386Y006409D01*
X010386Y006310D02*
X000350Y006310D01*
X000350Y006212D02*
X010386Y006212D01*
X010386Y006113D02*
X000350Y006113D01*
X000350Y006015D02*
X010386Y006015D01*
X010386Y005916D02*
X000350Y005916D01*
X000350Y005818D02*
X010386Y005818D01*
X010386Y005719D02*
X000350Y005719D01*
X000350Y005621D02*
X010386Y005621D01*
X010386Y005522D02*
X000350Y005522D01*
X000350Y005424D02*
X010386Y005424D01*
X010386Y005325D02*
X000350Y005325D01*
X000350Y005227D02*
X010386Y005227D01*
X010386Y005128D02*
X000350Y005128D01*
X000350Y005030D02*
X010386Y005030D01*
X010386Y004931D02*
X000350Y004931D01*
X000350Y004833D02*
X010386Y004833D01*
X010386Y004734D02*
X000350Y004734D01*
X000350Y004636D02*
X010386Y004636D01*
X010386Y004537D02*
X000350Y004537D01*
X000350Y004439D02*
X010386Y004439D01*
X010386Y004405D02*
X010386Y020166D01*
X010359Y020194D01*
X010342Y020194D01*
X010238Y020237D01*
X010157Y020317D01*
X010114Y020422D01*
X010114Y020535D01*
X010157Y020640D01*
X010238Y020720D01*
X010342Y020764D01*
X010386Y020764D01*
X010386Y021164D01*
X001725Y021164D01*
X001545Y021153D01*
X001199Y021060D01*
X000888Y020880D01*
X000634Y020627D01*
X000455Y020316D01*
X000362Y019969D01*
X000350Y019790D01*
X000350Y004405D01*
X010386Y004405D01*
X018260Y004405D02*
X018260Y018446D01*
X018333Y018446D01*
X018437Y018489D01*
X018518Y018569D01*
X018561Y018674D01*
X018561Y018787D01*
X018518Y018892D01*
X018505Y018905D01*
X018505Y019325D01*
X018370Y019460D01*
X018260Y019570D01*
X018260Y021164D01*
X026922Y021164D01*
X027101Y021153D01*
X027448Y021060D01*
X027759Y020880D01*
X028012Y020627D01*
X028192Y020316D01*
X028285Y019969D01*
X028296Y019790D01*
X028296Y004405D01*
X018260Y004405D01*
X018260Y004439D02*
X028296Y004439D01*
X028296Y004537D02*
X018260Y004537D01*
X018260Y004636D02*
X028296Y004636D01*
X028296Y004734D02*
X018260Y004734D01*
X018260Y004833D02*
X028296Y004833D01*
X028296Y004931D02*
X018260Y004931D01*
X018260Y005030D02*
X028296Y005030D01*
X028296Y005128D02*
X018260Y005128D01*
X018260Y005227D02*
X028296Y005227D01*
X028296Y005325D02*
X018260Y005325D01*
X018260Y005424D02*
X028296Y005424D01*
X028296Y005522D02*
X018260Y005522D01*
X018260Y005621D02*
X028296Y005621D01*
X028296Y005719D02*
X018260Y005719D01*
X018260Y005818D02*
X028296Y005818D01*
X028296Y005916D02*
X018260Y005916D01*
X018260Y006015D02*
X028296Y006015D01*
X028296Y006113D02*
X018260Y006113D01*
X018260Y006212D02*
X028296Y006212D01*
X028296Y006310D02*
X018260Y006310D01*
X018260Y006409D02*
X028296Y006409D01*
X028296Y006507D02*
X018260Y006507D01*
X018260Y006606D02*
X028296Y006606D01*
X028296Y006704D02*
X018260Y006704D01*
X018260Y006803D02*
X028296Y006803D01*
X028296Y006901D02*
X018260Y006901D01*
X018260Y007000D02*
X028296Y007000D01*
X028296Y007098D02*
X018260Y007098D01*
X018260Y007197D02*
X028296Y007197D01*
X028296Y007295D02*
X018260Y007295D01*
X018260Y007394D02*
X028296Y007394D01*
X028296Y007492D02*
X018260Y007492D01*
X018260Y007591D02*
X028296Y007591D01*
X028296Y007689D02*
X018260Y007689D01*
X018260Y007788D02*
X028296Y007788D01*
X028296Y007886D02*
X018260Y007886D01*
X018260Y007985D02*
X028296Y007985D01*
X028296Y008083D02*
X018260Y008083D01*
X018260Y008182D02*
X028296Y008182D01*
X028296Y008280D02*
X018260Y008280D01*
X018260Y008379D02*
X028296Y008379D01*
X028296Y008477D02*
X018260Y008477D01*
X018260Y008576D02*
X028296Y008576D01*
X028296Y008674D02*
X018260Y008674D01*
X018260Y008773D02*
X028296Y008773D01*
X028296Y008871D02*
X018260Y008871D01*
X018260Y008970D02*
X028296Y008970D01*
X028296Y009068D02*
X018260Y009068D01*
X018260Y009167D02*
X028296Y009167D01*
X028296Y009265D02*
X018260Y009265D01*
X018260Y009364D02*
X028296Y009364D01*
X028296Y009462D02*
X018260Y009462D01*
X018260Y009561D02*
X028296Y009561D01*
X028296Y009659D02*
X018260Y009659D01*
X018260Y009758D02*
X028296Y009758D01*
X028296Y009856D02*
X018260Y009856D01*
X018260Y009955D02*
X028296Y009955D01*
X028296Y010053D02*
X018260Y010053D01*
X018260Y010152D02*
X028296Y010152D01*
X028296Y010250D02*
X018260Y010250D01*
X018260Y010349D02*
X028296Y010349D01*
X028296Y010447D02*
X018260Y010447D01*
X018260Y010546D02*
X028296Y010546D01*
X028296Y010644D02*
X018260Y010644D01*
X018260Y010743D02*
X028296Y010743D01*
X028296Y010841D02*
X018260Y010841D01*
X018260Y010940D02*
X028296Y010940D01*
X028296Y011038D02*
X018260Y011038D01*
X018260Y011137D02*
X028296Y011137D01*
X028296Y011235D02*
X018260Y011235D01*
X018260Y011334D02*
X028296Y011334D01*
X028296Y011432D02*
X018260Y011432D01*
X018260Y011531D02*
X028296Y011531D01*
X028296Y011629D02*
X018260Y011629D01*
X018260Y011728D02*
X028296Y011728D01*
X028296Y011826D02*
X018260Y011826D01*
X018260Y011925D02*
X028296Y011925D01*
X028296Y012023D02*
X018260Y012023D01*
X018260Y012122D02*
X028296Y012122D01*
X028296Y012220D02*
X018260Y012220D01*
X018260Y012319D02*
X028296Y012319D01*
X028296Y012417D02*
X018260Y012417D01*
X018260Y012516D02*
X028296Y012516D01*
X028296Y012614D02*
X018260Y012614D01*
X018260Y012713D02*
X028296Y012713D01*
X028296Y012811D02*
X018260Y012811D01*
X018260Y012910D02*
X028296Y012910D01*
X028296Y013008D02*
X018260Y013008D01*
X018260Y013107D02*
X028296Y013107D01*
X028296Y013205D02*
X018260Y013205D01*
X018260Y013304D02*
X028296Y013304D01*
X028296Y013402D02*
X018260Y013402D01*
X018260Y013501D02*
X028296Y013501D01*
X028296Y013599D02*
X018260Y013599D01*
X018260Y013698D02*
X028296Y013698D01*
X028296Y013796D02*
X018260Y013796D01*
X018260Y013895D02*
X028296Y013895D01*
X028296Y013993D02*
X018260Y013993D01*
X018260Y014092D02*
X028296Y014092D01*
X028296Y014190D02*
X018260Y014190D01*
X018260Y014289D02*
X028296Y014289D01*
X028296Y014387D02*
X018260Y014387D01*
X018260Y014486D02*
X028296Y014486D01*
X028296Y014584D02*
X018260Y014584D01*
X018260Y014683D02*
X028296Y014683D01*
X028296Y014781D02*
X018260Y014781D01*
X018260Y014880D02*
X028296Y014880D01*
X028296Y014978D02*
X018260Y014978D01*
X018260Y015077D02*
X028296Y015077D01*
X028296Y015175D02*
X018260Y015175D01*
X018260Y015274D02*
X028296Y015274D01*
X028296Y015372D02*
X018260Y015372D01*
X018260Y015471D02*
X028296Y015471D01*
X028296Y015569D02*
X018260Y015569D01*
X018260Y015668D02*
X028296Y015668D01*
X028296Y015766D02*
X018260Y015766D01*
X018260Y015865D02*
X028296Y015865D01*
X028296Y015963D02*
X018260Y015963D01*
X018260Y016062D02*
X028296Y016062D01*
X028296Y016160D02*
X018260Y016160D01*
X018260Y016259D02*
X028296Y016259D01*
X028296Y016357D02*
X018260Y016357D01*
X018260Y016456D02*
X028296Y016456D01*
X028296Y016554D02*
X018260Y016554D01*
X018260Y016653D02*
X028296Y016653D01*
X028296Y016751D02*
X018260Y016751D01*
X018260Y016850D02*
X028296Y016850D01*
X028296Y016948D02*
X018260Y016948D01*
X018260Y017047D02*
X028296Y017047D01*
X028296Y017145D02*
X018260Y017145D01*
X018260Y017244D02*
X028296Y017244D01*
X028296Y017342D02*
X018260Y017342D01*
X018260Y017441D02*
X028296Y017441D01*
X028296Y017539D02*
X018260Y017539D01*
X018260Y017638D02*
X028296Y017638D01*
X028296Y017736D02*
X018260Y017736D01*
X018260Y017835D02*
X028296Y017835D01*
X028296Y017933D02*
X018260Y017933D01*
X018260Y018032D02*
X028296Y018032D01*
X028296Y018130D02*
X018260Y018130D01*
X018260Y018229D02*
X028296Y018229D01*
X028296Y018327D02*
X018260Y018327D01*
X018260Y018426D02*
X028296Y018426D01*
X028296Y018524D02*
X018473Y018524D01*
X018540Y018623D02*
X028296Y018623D01*
X028296Y018721D02*
X018561Y018721D01*
X018548Y018820D02*
X028296Y018820D01*
X028296Y018918D02*
X018505Y018918D01*
X018505Y019017D02*
X028296Y019017D01*
X028296Y019115D02*
X018505Y019115D01*
X018505Y019214D02*
X028296Y019214D01*
X028296Y019312D02*
X018505Y019312D01*
X018419Y019411D02*
X028296Y019411D01*
X028296Y019509D02*
X018321Y019509D01*
X018260Y019608D02*
X028296Y019608D01*
X028296Y019706D02*
X018260Y019706D01*
X018260Y019805D02*
X028295Y019805D01*
X028289Y019903D02*
X018260Y019903D01*
X018260Y020002D02*
X028276Y020002D01*
X028250Y020100D02*
X018260Y020100D01*
X018260Y020199D02*
X028223Y020199D01*
X028197Y020297D02*
X018260Y020297D01*
X018260Y020396D02*
X028146Y020396D01*
X028089Y020494D02*
X018260Y020494D01*
X018260Y020593D02*
X028032Y020593D01*
X027948Y020691D02*
X018260Y020691D01*
X018260Y020790D02*
X027849Y020790D01*
X027745Y020888D02*
X018260Y020888D01*
X018260Y020987D02*
X027574Y020987D01*
X027353Y021085D02*
X018260Y021085D01*
X010386Y021085D02*
X001293Y021085D01*
X001072Y020987D02*
X010386Y020987D01*
X010386Y020888D02*
X000901Y020888D01*
X000797Y020790D02*
X010386Y020790D01*
X010209Y020691D02*
X000699Y020691D01*
X000615Y020593D02*
X010138Y020593D01*
X010114Y020494D02*
X000558Y020494D01*
X000501Y020396D02*
X010125Y020396D01*
X010177Y020297D02*
X000450Y020297D01*
X000423Y020199D02*
X010330Y020199D01*
X010386Y020100D02*
X000397Y020100D01*
X000370Y020002D02*
X010386Y020002D01*
X010386Y019903D02*
X000357Y019903D01*
X000351Y019805D02*
X010386Y019805D01*
X010386Y019706D02*
X000350Y019706D01*
X000350Y019608D02*
X010386Y019608D01*
X010386Y019509D02*
X000350Y019509D01*
X000350Y019411D02*
X010386Y019411D01*
X010386Y019312D02*
X000350Y019312D01*
X000350Y019214D02*
X010386Y019214D01*
X010386Y019115D02*
X000350Y019115D01*
X000350Y019017D02*
X010386Y019017D01*
X010386Y018918D02*
X000350Y018918D01*
X000350Y018820D02*
X010386Y018820D01*
X010386Y018721D02*
X000350Y018721D01*
X000350Y018623D02*
X010386Y018623D01*
X010386Y018524D02*
X000350Y018524D01*
X000350Y018426D02*
X010386Y018426D01*
X010386Y018327D02*
X000350Y018327D01*
X000350Y018229D02*
X010386Y018229D01*
X010386Y018130D02*
X000350Y018130D01*
X000350Y018032D02*
X010386Y018032D01*
X010386Y017933D02*
X000350Y017933D01*
X000350Y017835D02*
X010386Y017835D01*
X010386Y017736D02*
X000350Y017736D01*
X000350Y017638D02*
X010386Y017638D01*
X010386Y017539D02*
X000350Y017539D01*
X000350Y017441D02*
X010386Y017441D01*
X010386Y017342D02*
X000350Y017342D01*
X000350Y017244D02*
X010386Y017244D01*
X010386Y017145D02*
X000350Y017145D01*
X000350Y017047D02*
X010386Y017047D01*
X010386Y016948D02*
X000350Y016948D01*
X000350Y016850D02*
X010386Y016850D01*
X010386Y016751D02*
X000350Y016751D01*
X000350Y016653D02*
X010386Y016653D01*
X010386Y016554D02*
X000350Y016554D01*
X000350Y016456D02*
X010386Y016456D01*
X010386Y016357D02*
X000350Y016357D01*
X000350Y016259D02*
X010386Y016259D01*
X010386Y016160D02*
X000350Y016160D01*
X000350Y016062D02*
X010386Y016062D01*
X010386Y015963D02*
X000350Y015963D01*
X000350Y015865D02*
X010386Y015865D01*
X010386Y015766D02*
X000350Y015766D01*
X000350Y015668D02*
X010386Y015668D01*
X010386Y015569D02*
X000350Y015569D01*
X000350Y015471D02*
X010386Y015471D01*
X010386Y015372D02*
X000350Y015372D01*
X000350Y015274D02*
X010386Y015274D01*
X010386Y015175D02*
X000350Y015175D01*
X000350Y015077D02*
X010386Y015077D01*
X010386Y014978D02*
X000350Y014978D01*
X000350Y014880D02*
X010386Y014880D01*
X010386Y014781D02*
X000350Y014781D01*
X000350Y014683D02*
X010386Y014683D01*
M02*
