%
M48
M72
T01C0.0130
T02C0.0315
T03C0.0354
T04C0.0472
T05C0.1969
T06C0.2000
%
T01
X6775Y2847
X9400Y5286
X11835Y13096
X14150Y15786
X16400Y16757
X18276Y19912
X20650Y21536
X13323Y20036
X11775Y20786
X11150Y20036
X10399Y21660
X8025Y20036
X22150Y1911
T02
X23769Y2306
X24531Y2906
X23769Y3506
X24531Y4006
X18150Y4225
X18150Y2847
X10150Y2847
X10150Y4225
X4531Y4006
X3769Y3506
X4531Y2906
X3769Y2306
X16900Y13142
X16900Y13930
T03
X15134Y14286
X13166Y14286
X13150Y8664
X13150Y7286
X15006Y7286
X15794Y7286
X15323Y21758
X14323Y21758
X13323Y21758
X12323Y21758
X16323Y21758
T04
X15150Y3536
X13150Y3536
T05
X27020Y3156
T06
X1626Y3156
M30
